<?xml version="1.0" encoding="utf-8"?>
<!-- Generator: Adobe Illustrator 27.0.0, SVG Export Plug-In . SVG Version: 6.00 Build 0)  -->
<svg version="1.1" xmlns="http://www.w3.org/2000/svg" xmlns:xlink="http://www.w3.org/1999/xlink" x="0px" y="0px"
	 viewBox="0 0 40 40" style="enable-background:new 0 0 40 40;" xml:space="preserve">
<style type="text/css">
	.st0{fill:url(#SVGID_1_);}
	.st1{fill:url(#SVGID_00000000224241132111032090000009586842047570727593_);}
	.st2{fill:url(#SVGID_00000067201957011437284710000009889857109726382997_);}
	.st3{fill:url(#SVGID_00000111874200517019943480000009943285720090193554_);}
	.st4{fill:url(#SVGID_00000117641898687899140960000000478937487192981432_);}
	.st5{fill:url(#SVGID_00000164507433527759284660000004572507314613837202_);}
	.st6{fill:#F2A34F;}
	.st7{fill:#107FA8;}
	.st8{fill:url(#SVGID_00000069367318173048994290000009284665013262060954_);}
	.st9{fill:url(#SVGID_00000176765921908251870040000016492908907966198205_);}
	.st10{fill:url(#SVGID_00000179636176716454573390000012778325188446335406_);}
	.st11{fill:#2A75D7;}
	.st12{fill:url(#SVGID_00000026158625294057735670000012263686221938728121_);}
	.st13{fill:url(#SVGID_00000109723664223946581590000008409585811558949526_);}
	.st14{fill:url(#SVGID_00000011736312210679437420000007714909254356324499_);}
	.st15{fill:url(#SVGID_00000132780032215127275000000014224104452241896088_);}
	.st16{fill:url(#SVGID_00000144312880635954946100000004935493353208770979_);}
	.st17{fill:url(#SVGID_00000141426490670687978500000011180757206031417265_);}
	.st18{fill:url(#SVGID_00000183242414735000300940000008599092927992830889_);}
	.st19{fill:url(#SVGID_00000050651250288818334380000016071030146485558710_);}
	.st20{fill:url(#SVGID_00000114765387028505811070000011785756451614522267_);}
	.st21{fill:#FFFFFF;}
	.st22{fill:url(#SVGID_00000023999527994878688830000006714992921764649353_);}
	.st23{fill:url(#SVGID_00000138531049328490124660000000862473483695523235_);}
	.st24{fill:url(#SVGID_00000166658374519639633390000010411019097372942984_);}
	.st25{fill:url(#SVGID_00000106860431252485099080000013079752165801523641_);}
	.st26{fill:url(#SVGID_00000111883329133609131110000003839659809948478616_);}
	.st27{fill:url(#SVGID_00000142889965630421107150000015820362191087376040_);}
	.st28{fill:none;stroke:#00A651;stroke-width:0.1;}
	.st29{fill:#2F2C2A;}
	.st30{fill:#EFBA82;}
	.st31{fill:#F5D6B4;}
	.st32{fill:#F9E3CD;}
	.st33{fill:#FCF1E6;}
	.st34{fill:#FEFCFA;}
	.st35{fill:#784611;}
	.st36{fill:#B3691A;}
	.st37{fill:#EF8C22;}
	.st38{fill:#06333F;}
	.st39{fill:#094859;}
	.st40{fill:#0C5D72;}
	.st41{fill:#0E728C;}
	.st42{fill:#58A6C2;}
	.st43{fill:#9FCCDC;}
	.st44{fill:#CFE5EE;}
	.st45{fill:#E7F2F6;}
	.st46{fill:#BAB1A7;}
	.st47{fill:#121266;}
	.st48{fill:#1B1B8C;}
	.st49{fill:#1E31A5;}
	.st50{fill:#2B54D6;}
	.st51{fill:#2A6AFF;}
	.st52{fill:#6A97FF;}
	.st53{fill:#AAC3FF;}
	.st54{fill:#D4E1FF;}
	.st55{fill:#E9F0FF;}
	.st56{fill:#5D5954;}
	.st57{fill:#8C857D;}
	.st58{fill:#C8C1B9;}
	.st59{fill:#D6D0CA;}
	.st60{fill:#E3E0DC;}
	.st61{fill:#FBFDFF;}
	.st62{fill:#FFFFFF;stroke:#CECECE;stroke-miterlimit:10;}
	.st63{fill:url(#SVGID_00000152230433493541183460000007981475577322268086_);}
	.st64{fill:url(#SVGID_00000068646475870477613230000015835824470874902676_);}
	.st65{fill:#FF409F;}
	.st66{fill:none;stroke:#E3E0DC;stroke-width:0.2;stroke-miterlimit:10;}
	.st67{fill:url(#SVGID_00000042714880454626359570000008907912096866215569_);}
	.st68{fill:none;stroke:#FFFCFC;stroke-width:0.4;stroke-miterlimit:10;}
	.st69{fill:none;stroke:#FFFFFF;stroke-width:0.4;stroke-linecap:round;stroke-miterlimit:10;}
	
		.st70{clip-path:url(#SVGID_00000157305142063722941070000000852738990264051083_);fill:url(#SVGID_00000107582686020239760670000015965083331642064796_);}
	.st71{filter:url(#Adobe_OpacityMaskFilter);}
	
		.st72{mask:url(#SVGID_00000125605367284660733640000002553774267198740878_);fill:url(#SVGID_00000065755685604373236420000016475952189977716622_);}
	
		.st73{clip-path:url(#SVGID_00000029746689796295934440000013575885754498591399_);fill:url(#SVGID_00000150788481439739206700000016010331960373770167_);}
	.st74{fill:#142466;}
	.st75{fill:#19337C;}
	.st76{fill:#204C99;}
	.st77{fill:#2561AF;}
	.st78{fill:#6A9FE3;}
	.st79{fill:#AAC8EF;}
	.st80{fill:#D4E3F7;}
	.st81{fill:#E9F1FB;}
	.st82{fill:#282899;}
	.st83{fill:#2F2FB2;}
	.st84{fill:#3636CC;}
	.st85{fill:#3C3CE5;}
	.st86{fill:#4640FF;}
	.st87{fill:#7E7AFF;}
	.st88{fill:#B5B3FF;}
	.st89{fill:#DAD9FF;}
	.st90{fill:#ECECFF;}
	.st91{fill:url(#SVGID_00000126289683843269335850000014831273364553826728_);}
	.st92{fill:url(#SVGID_00000147220460560770960560000006187614670425098887_);}
	.st93{fill:url(#SVGID_00000155855885067902552580000013784556540446558615_);}
	
		.st94{clip-path:url(#SVGID_00000052092821464722600880000003201082384550927254_);fill:url(#SVGID_00000168814435119721120850000003623998862436791728_);}
	.st95{filter:url(#Adobe_OpacityMaskFilter_00000058560448033690290390000002912732646180599478_);}
	
		.st96{mask:url(#SVGID_00000180336963455603417620000009116293811752102567_);fill:url(#SVGID_00000005239687603198317710000000603147365991885217_);}
	
		.st97{clip-path:url(#SVGID_00000161610099898758633780000010870706004001574067_);fill:url(#SVGID_00000132787536923798746010000007521839574897867708_);}
	.st98{fill:url(#SVGID_00000096775402137644416890000006089651633504043929_);}
	.st99{fill:url(#SVGID_00000010292815211031887550000007231201919745971107_);}
	.st100{fill:url(#SVGID_00000129202083054231189730000016073758996143238045_);}
	.st101{fill:url(#SVGID_00000103962553239826793360000017647068777279651731_);}
	.st102{fill:url(#SVGID_00000114768920997272166780000014483623362537333691_);}
	.st103{fill:url(#SVGID_00000168112496103022838520000006364733602643127453_);}
	.st104{fill:url(#SVGID_00000159449507357131371430000006857431499385950636_);}
	.st105{fill:url(#SVGID_00000167397590688698663590000009721043251602166685_);}
	.st106{fill:url(#SVGID_00000080915442563000812720000001598894449985695413_);}
	.st107{fill:url(#SVGID_00000037669398758216125130000013593879394599471532_);}
	.st108{fill:url(#SVGID_00000181794171304027888100000008430831289444554909_);}
	.st109{fill:url(#SVGID_00000167387988419276568620000003123714245200602004_);}
	.st110{fill:url(#SVGID_00000039830983267103205100000008516566186410991512_);}
	.st111{fill:url(#SVGID_00000137848309687523481380000017735122025560521646_);}
	.st112{fill:url(#SVGID_00000155858901994229342450000006219446651881904521_);}
	.st113{fill:url(#SVGID_00000179632220738773015110000009490494524925529219_);}
	.st114{fill:url(#SVGID_00000013908070451035236820000016161404390276254091_);}
	.st115{fill:url(#SVGID_00000101808805519854911590000005400892182166819006_);}
	.st116{fill:url(#SVGID_00000042008646334375659150000012204381489123145096_);}
	.st117{fill:url(#SVGID_00000067914609969836485090000005022016309796224159_);}
	.st118{fill:url(#SVGID_00000008862747867429438920000008448261436202458769_);}
	.st119{fill:url(#SVGID_00000039136123806882856280000012468129039981052044_);}
	.st120{fill:url(#SVGID_00000067227532968293525440000011646068783701349800_);}
	.st121{fill:url(#SVGID_00000010301082247277303110000004181419277469529773_);}
	.st122{fill:url(#SVGID_00000025431589420789704630000005683254034284680629_);}
	.st123{fill:url(#SVGID_00000010308769373059227820000011576964329558719393_);}
	.st124{fill:url(#SVGID_00000051370565738059347620000007568851785415188667_);}
	.st125{fill:none;stroke:#000000;stroke-miterlimit:10;}
	.st126{fill:url(#SVGID_00000038413390049136920850000004686925927444839571_);}
	.st127{fill:url(#SVGID_00000039098369528182078010000011009672870381454978_);}
	.st128{fill:url(#SVGID_00000119822286245156507480000000315009077621355183_);}
	
		.st129{clip-path:url(#SVGID_00000052787392213457498770000000661027103425431971_);fill:url(#SVGID_00000055692172025522160500000008266115005004577203_);}
	.st130{filter:url(#Adobe_OpacityMaskFilter_00000148632842787546769930000014717063968371286406_);}
	
		.st131{mask:url(#SVGID_00000083090934357862737650000004711186941370655404_);fill:url(#SVGID_00000020361741232343006860000002728141066355512736_);}
	
		.st132{clip-path:url(#SVGID_00000140707552993372863260000004727906894432456838_);fill:url(#SVGID_00000177484201841553038790000011039555928991567806_);}
	.st133{fill:#FFFFFF;stroke:#17457B;stroke-miterlimit:10;}
	.st134{fill:#0C447C;}
	.st135{fill:none;}
	.st136{fill:none;stroke:#000000;stroke-linecap:round;stroke-linejoin:round;stroke-miterlimit:10;}
	.st137{fill:none;stroke:#3C3CE5;stroke-linecap:round;stroke-linejoin:round;stroke-miterlimit:10;}
	.st138{fill:#DAD9FF;stroke:#3C3CE5;stroke-linecap:round;stroke-linejoin:round;stroke-miterlimit:10;}
	.st139{fill:none;stroke:#0C447C;stroke-miterlimit:10;}
	.st140{fill:#0C447C;stroke:#0C447C;stroke-linecap:round;stroke-linejoin:round;stroke-miterlimit:10;}
	.st141{fill:none;stroke:#0C447C;stroke-linecap:round;stroke-linejoin:round;stroke-miterlimit:10;}
	.st142{fill:none;stroke:#17457B;stroke-miterlimit:10;}
</style>
<g id="Layer_1">
</g>
<g id="Layer_2">
	<circle class="st134" cx="20" cy="20" r="19.83"/>
	<g>
		<path class="st21" d="M18.15,16.04c0.29-0.29,0.65-0.45,1.03-0.5c0.09-0.01,0.18-0.01,0.27-0.01c0.03,0,0.07-0.01,0.1,0
			c0.04,0,0.09,0.01,0.13,0.02c0.08,0.01,0.16,0.02,0.23,0.05c0.05,0.01,0.1,0.03,0.15,0.05c0.08,0.03,0.15,0.06,0.22,0.1
			c0.04,0.02,0.08,0.04,0.12,0.06c0.11,0.07,0.21,0.15,0.31,0.24l0.62,0.62l1.31,1.31c0.35,0.35,0.93,0.35,1.29,0l0,0l0,0
			c0.09-0.09,0.16-0.19,0.2-0.3c0.13-0.33,0.07-0.72-0.2-0.99l-3.91-3.91l-0.52-0.52l0,0c-0.01-0.01-0.01-0.01-0.02-0.02l-0.18-0.18
			c-2.27-2.15-5.86-2.12-8.09,0.1c-2.26,2.26-2.26,5.94,0,8.2c0.46,0.46,0.98,0.82,1.53,1.09L18.15,16.04z"/>
		<path class="st21" d="M28.79,12.07c-2.24-2.24-5.86-2.26-8.13-0.06l3.97,3.97c0.75,0.75,0.74,1.96,0,2.7
			c-0.44,0.44-1.04,0.61-1.61,0.53c-0.19-0.03-0.38-0.08-0.56-0.17c-0.02-0.01-0.04-0.02-0.06-0.03c-0.17-0.09-0.34-0.2-0.48-0.34
			l-0.99-0.99l0,0L20,16.75c-0.25-0.25-0.62-0.29-0.92-0.14l0,0c-0.08,0.04-0.15,0.08-0.22,0.14l0,0l-5.1,5.1l-0.81,0.81l0,0
			c-0.32,0.32-0.32,0.83,0,1.15c0.32,0.32,0.83,0.32,1.15,0l0,0l1.78-1.78l2.53-2.53c0.05-0.05,0.12-0.09,0.19-0.11
			c0,0,0.01,0,0.01,0c0.07-0.02,0.13-0.03,0.2-0.02l0,0c0.11,0.01,0.22,0.05,0.31,0.14c0.01,0.01,0.01,0.03,0.02,0.04
			c0.08,0.1,0.12,0.22,0.12,0.34c0,0.01-0.01,0.03-0.01,0.04c-0.01,0.05-0.01,0.09-0.03,0.13c-0.02,0.06-0.06,0.11-0.11,0.16
			l-0.02,0.02l-1.24,1.24l-3.05,3.05c-0.32,0.32-0.32,0.83,0,1.15c0.32,0.32,0.83,0.32,1.15,0l4.19-4.19
			c0.01-0.01,0.02-0.01,0.03-0.02l0,0l0.09-0.09c0.2-0.2,0.51-0.2,0.71,0c0,0,0,0,0,0c0.2,0.2,0.2,0.51,0,0.71l0,0l-4.31,4.31
			c-0.32,0.32-0.32,0.83,0,1.15c0.32,0.32,0.83,0.32,1.15,0l4.31-4.31l0,0c0.2-0.2,0.51-0.2,0.71,0l0,0c0.2,0.2,0.2,0.51,0,0.71
			l-4.31,4.31c-0.32,0.32-0.32,0.83,0,1.15s0.83,0.32,1.15,0L29,20.06l-0.01-0.01C31.05,17.78,30.98,14.26,28.79,12.07z"/>
	</g>
</g>
</svg>
