<?xml version="1.0" encoding="utf-8"?>
<!-- Generator: Adobe Illustrator 27.0.0, SVG Export Plug-In . SVG Version: 6.00 Build 0)  -->
<svg version="1.1" xmlns="http://www.w3.org/2000/svg" xmlns:xlink="http://www.w3.org/1999/xlink" x="0px" y="0px"
	 viewBox="0 0 40 40" style="enable-background:new 0 0 40 40;" xml:space="preserve">
<style type="text/css">
	.st0{fill:url(#SVGID_1_);}
	.st1{fill:url(#SVGID_00000108311151323623599470000008921640397218875832_);}
	.st2{fill:url(#SVGID_00000113312158921773484470000000031930806986360995_);}
	.st3{fill:url(#SVGID_00000014602802067131764640000013411471568925430698_);}
	.st4{fill:url(#SVGID_00000075131244442933480560000009217380129044839060_);}
	.st5{fill:url(#SVGID_00000087389741576337352230000000393247591387509129_);}
	.st6{fill:#F2A34F;}
	.st7{fill:#107FA8;}
	.st8{fill:url(#SVGID_00000108298595019679834250000010825627594819893661_);}
	.st9{fill:url(#SVGID_00000061465062745128623080000002332885208172765592_);}
	.st10{fill:url(#SVGID_00000028297443161406352380000011241849389840289942_);}
	.st11{fill:#2A75D7;}
	.st12{fill:url(#SVGID_00000023265013584135002650000003359995256677425054_);}
	.st13{fill:url(#SVGID_00000132069117395214597010000010910167076094754992_);}
	.st14{fill:url(#SVGID_00000104676560174093798900000018089685306782732213_);}
	.st15{fill:url(#SVGID_00000093138507896655908080000006856452859791628171_);}
	.st16{fill:url(#SVGID_00000036236740117543894650000012099486070383217547_);}
	.st17{fill:url(#SVGID_00000078018149605493613230000010031148335487391381_);}
	.st18{fill:url(#SVGID_00000044898610805150370300000014526428757699099019_);}
	.st19{fill:url(#SVGID_00000065758508275652156570000016675837663905703084_);}
	.st20{fill:url(#SVGID_00000022562459348021358060000008494269707637726093_);}
	.st21{fill:#FFFFFF;}
	.st22{fill:url(#SVGID_00000177475939384310759340000017439609348481554084_);}
	.st23{fill:url(#SVGID_00000013168611338424223070000001774114853895400885_);}
	.st24{fill:url(#SVGID_00000172399229668267941790000001630362812429696154_);}
	.st25{fill:url(#SVGID_00000037672016218720537550000006649375446518894762_);}
	.st26{fill:url(#SVGID_00000148628115224436405080000000587877795379986066_);}
	.st27{fill:url(#SVGID_00000092431975080595898230000003786904241838458809_);}
	.st28{fill:none;stroke:#00A651;stroke-width:0.1;}
	.st29{fill:#2F2C2A;}
	.st30{fill:#EFBA82;}
	.st31{fill:#F5D6B4;}
	.st32{fill:#F9E3CD;}
	.st33{fill:#FCF1E6;}
	.st34{fill:#FEFCFA;}
	.st35{fill:#784611;}
	.st36{fill:#B3691A;}
	.st37{fill:#EF8C22;}
	.st38{fill:#06333F;}
	.st39{fill:#094859;}
	.st40{fill:#0C5D72;}
	.st41{fill:#0E728C;}
	.st42{fill:#58A6C2;}
	.st43{fill:#9FCCDC;}
	.st44{fill:#CFE5EE;}
	.st45{fill:#E7F2F6;}
	.st46{fill:#BAB1A7;}
	.st47{fill:#121266;}
	.st48{fill:#1B1B8C;}
	.st49{fill:#1E31A5;}
	.st50{fill:#2B54D6;}
	.st51{fill:#2A6AFF;}
	.st52{fill:#6A97FF;}
	.st53{fill:#AAC3FF;}
	.st54{fill:#D4E1FF;}
	.st55{fill:#E9F0FF;}
	.st56{fill:#5D5954;}
	.st57{fill:#8C857D;}
	.st58{fill:#C8C1B9;}
	.st59{fill:#D6D0CA;}
	.st60{fill:#E3E0DC;}
	.st61{fill:#FBFDFF;}
	.st62{fill:#FFFFFF;stroke:#CECECE;stroke-miterlimit:10;}
	.st63{fill:url(#SVGID_00000082359273777886365300000008959349073041185939_);}
	.st64{fill:url(#SVGID_00000155127691791130003290000016975564432581435287_);}
	.st65{fill:#FF409F;}
	.st66{fill:none;stroke:#E3E0DC;stroke-width:0.2;stroke-miterlimit:10;}
	.st67{fill:url(#SVGID_00000085252028012851334580000008920975658827637931_);}
	.st68{fill:none;stroke:#FFFCFC;stroke-width:0.4;stroke-miterlimit:10;}
	.st69{fill:none;stroke:#FFFFFF;stroke-width:0.4;stroke-linecap:round;stroke-miterlimit:10;}
	
		.st70{clip-path:url(#SVGID_00000154407271410652934240000002080165916522418580_);fill:url(#SVGID_00000008835130965225268020000002314625023394416007_);}
	.st71{filter:url(#Adobe_OpacityMaskFilter);}
	
		.st72{mask:url(#SVGID_00000178923186934983690790000005342089653747762609_);fill:url(#SVGID_00000183214227700146023260000016331708952134145969_);}
	
		.st73{clip-path:url(#SVGID_00000022527425160125708380000006799973441085829273_);fill:url(#SVGID_00000039131459306780216610000014568899398498157736_);}
	.st74{fill:#142466;}
	.st75{fill:#19337C;}
	.st76{fill:#204C99;}
	.st77{fill:#2561AF;}
	.st78{fill:#6A9FE3;}
	.st79{fill:#AAC8EF;}
	.st80{fill:#D4E3F7;}
	.st81{fill:#E9F1FB;}
	.st82{fill:#282899;}
	.st83{fill:#2F2FB2;}
	.st84{fill:#3636CC;}
	.st85{fill:#3C3CE5;}
	.st86{fill:#4640FF;}
	.st87{fill:#7E7AFF;}
	.st88{fill:#B5B3FF;}
	.st89{fill:#DAD9FF;}
	.st90{fill:#ECECFF;}
	.st91{fill:url(#SVGID_00000067237954208230667010000008247893052800225934_);}
	.st92{fill:url(#SVGID_00000019639673054152655330000013775035283296040337_);}
	.st93{fill:url(#SVGID_00000129920360845317681310000008520500408439100301_);}
	
		.st94{clip-path:url(#SVGID_00000099649023667617129370000002745407164475899551_);fill:url(#SVGID_00000016076965825255658700000017048716888187471791_);}
	.st95{filter:url(#Adobe_OpacityMaskFilter_00000170972564605137603370000006260888048551014551_);}
	
		.st96{mask:url(#SVGID_00000130632669166552463870000001244764648803969208_);fill:url(#SVGID_00000085212923388642340210000017918761146044567229_);}
	
		.st97{clip-path:url(#SVGID_00000060023519746293383610000012887179813382505606_);fill:url(#SVGID_00000062186984777858050710000006572030120055576476_);}
	.st98{fill:url(#SVGID_00000163792262045731608250000000740126826510258084_);}
	.st99{fill:url(#SVGID_00000095319476064494757420000000312508407777535366_);}
	.st100{fill:url(#SVGID_00000042719618352334034720000017315370533037564298_);}
	.st101{fill:url(#SVGID_00000139266276830913057900000011629544114633712554_);}
	.st102{fill:url(#SVGID_00000079445830228616898860000004543504478915601062_);}
	.st103{fill:url(#SVGID_00000023282092092864324230000012812135317572408468_);}
	.st104{fill:url(#SVGID_00000052824390863122031090000011827322944569357717_);}
	.st105{fill:url(#SVGID_00000000208594467635144650000006021260513270247048_);}
	.st106{fill:url(#SVGID_00000066475497405223047590000006662067625409701532_);}
	.st107{fill:url(#SVGID_00000048468816570563843350000017718193706428989605_);}
	.st108{fill:url(#SVGID_00000145748753582148881560000005369566654827831440_);}
	.st109{fill:url(#SVGID_00000089551884894283862810000002561588595066951610_);}
	.st110{fill:url(#SVGID_00000124856540085983163530000018041533164186116256_);}
	.st111{fill:url(#SVGID_00000105420020628172735200000002945058592287182240_);}
	.st112{fill:url(#SVGID_00000085222073147868759790000010095376628063861148_);}
	.st113{fill:url(#SVGID_00000013174135022497592720000006294625087911338939_);}
	.st114{fill:url(#SVGID_00000096036617552099279380000012496432768880222866_);}
	.st115{fill:url(#SVGID_00000035532090649878275610000006495432119263366808_);}
	.st116{fill:url(#SVGID_00000172415234961009031820000008750852157924453524_);}
	.st117{fill:url(#SVGID_00000070802740653176777850000010790736109261586867_);}
	.st118{fill:url(#SVGID_00000183955528651161483190000004284928894247775382_);}
	.st119{fill:url(#SVGID_00000140726842779410742980000010924323149324882048_);}
	.st120{fill:url(#SVGID_00000005241695339172489580000004986558602684529822_);}
	.st121{fill:url(#SVGID_00000137127542913564094420000000739793521477561758_);}
	.st122{fill:url(#SVGID_00000181056054005124734180000000472629030917886343_);}
	.st123{fill:url(#SVGID_00000161604926721496055740000009864824815833418368_);}
	.st124{fill:url(#SVGID_00000032646489661725689980000014869378621258971545_);}
	.st125{fill:none;stroke:#000000;stroke-miterlimit:10;}
	.st126{fill:url(#SVGID_00000108990924936014633060000001382454853355018925_);}
	.st127{fill:url(#SVGID_00000127021299621441267410000012831436118424212627_);}
	.st128{fill:url(#SVGID_00000094576326108517881480000014983054115914781601_);}
	
		.st129{clip-path:url(#SVGID_00000036956728257044498000000011337817276043613591_);fill:url(#SVGID_00000070100953587111227740000004149806880176589750_);}
	.st130{filter:url(#Adobe_OpacityMaskFilter_00000080916616633101097630000005472536583388021648_);}
	
		.st131{mask:url(#SVGID_00000038379690525583519250000013604971627009296797_);fill:url(#SVGID_00000097491590298267140640000002543024478818677671_);}
	
		.st132{clip-path:url(#SVGID_00000080923440074515696840000017027682910777605506_);fill:url(#SVGID_00000103985040981804467410000000501888612674797206_);}
	.st133{fill:#0C447C;}
	.st134{fill:none;}
	.st135{fill:none;stroke:#000000;stroke-linecap:round;stroke-linejoin:round;stroke-miterlimit:10;}
	.st136{fill:none;stroke:#3C3CE5;stroke-linecap:round;stroke-linejoin:round;stroke-miterlimit:10;}
	.st137{fill:#DAD9FF;stroke:#3C3CE5;stroke-linecap:round;stroke-linejoin:round;stroke-miterlimit:10;}
</style>
<g id="Layer_1">
</g>
<g id="Layer_2">
	<circle class="st133" cx="20" cy="20" r="19.83"/>
	<g>
		<path class="st21" d="M14.94,14.95c1.53,0,2.77-1.24,2.77-2.77s-1.24-2.77-2.77-2.77s-2.77,1.24-2.77,2.77
			S13.41,14.95,14.94,14.95z"/>
		<path class="st21" d="M24.66,13.54c1.53,0,2.77-1.24,2.77-2.77S26.19,8,24.66,8s-2.77,1.24-2.77,2.77S23.13,13.54,24.66,13.54z"/>
		<g>
			<path class="st21" d="M11.89,25.65l0.04,0.13c0.68,2.14,1.86,3,2.49,3.47l0.08,0.06c0.04,0.03,0.08,0.07,0.11,0.1
				c0.57-1.53,1.78-2.74,3.3-3.3c-0.81-0.6-1.34-1.55-1.34-2.62c0-1.8,1.47-3.27,3.27-3.27c0.08,0,0.15,0.02,0.22,0.02
				c-0.01-0.03-0.01-0.07-0.03-0.1c-0.06-0.11-0.29-0.52-0.73-1.02c0,0,0,0,0,0c-0.73-0.84-2.01-1.91-3.92-2.14
				c-2.03-0.24-4.08,0.54-5.34,2.06c-2.1,2.53-1.02,5.92-0.56,7.37l0.04,0.13c0.92,2.92,2.66,4.19,3.4,4.73
				c0.52,0.38,0.89,0.22,1.13-0.1c0.12-0.16,0.17-0.36,0.14-0.56c-0.03-0.2-0.13-0.37-0.3-0.49l-0.08-0.06
				c-0.72-0.53-2.08-1.52-2.85-3.97l-0.04-0.13c-0.3-0.95-0.87-2.73-0.5-4.35c0.06-0.27,0.33-0.43,0.6-0.38
				c0.27,0.06,0.44,0.33,0.38,0.6C11.1,23.18,11.62,24.78,11.89,25.65z"/>
			<path class="st21" d="M27.47,28.16c-0.51,0.73-1.1,1.4-1.75,2.01c-0.3,0.28-0.32,0.76-0.04,1.06c0.27,0.29,0.76,0.31,1.06,0.04
				c0.73-0.68,1.39-1.43,1.96-2.25c0.45-0.64,1.49-2.13,2.01-4.33c0.4-1.69,0.95-4-0.36-6.16c-0.16-0.26-1.61-2.52-4.36-2.86
				c-2.14-0.26-3.43,0.5-4.14,1.18c-0.57,0.55-1.2,1.47-1.51,1.94c0.34,0.43,0.53,0.76,0.58,0.86c0.14,0.25,0.2,0.53,0.2,0.81
				c1.17,0.5,2,1.66,2,3.01c0,1.08-0.53,2.03-1.34,2.62c1.52,0.56,2.72,1.76,3.29,3.27c0.58-0.54,1.11-1.14,1.56-1.79
				c0.37-0.52,1.22-1.75,1.63-3.48c0.22-0.92,0.45-1.87,0.39-2.78c-0.02-0.28,0.19-0.51,0.47-0.53c0.26-0.01,0.51,0.19,0.53,0.47
				c0.07,1.06-0.19,2.13-0.41,3.07C28.8,26.25,27.87,27.59,27.47,28.16z"/>
			<path class="st21" d="M19.86,25.76c1.25,0,2.27-1.02,2.27-2.27c0-1.04-0.71-1.91-1.66-2.18c0,0-0.01,0-0.01,0
				c0,0-0.01,0-0.01-0.01c-0.19-0.05-0.38-0.09-0.59-0.09c-1.25,0-2.27,1.02-2.27,2.27S18.61,25.76,19.86,25.76z"/>
			<path class="st21" d="M24.46,32v-0.65c0-2.53-2.06-4.59-4.59-4.59c-2.53,0-4.59,2.06-4.59,4.59V32v0L24.46,32L24.46,32z"/>
		</g>
	</g>
</g>
</svg>
