<?xml version="1.0" encoding="utf-8"?>
<!-- Generator: Adobe Illustrator 27.0.0, SVG Export Plug-In . SVG Version: 6.00 Build 0)  -->
<svg version="1.1" xmlns="http://www.w3.org/2000/svg" xmlns:xlink="http://www.w3.org/1999/xlink" x="0px" y="0px"
	 viewBox="0 0 40 40" style="enable-background:new 0 0 40 40;" xml:space="preserve">
<style type="text/css">
	.st0{fill:url(#SVGID_1_);}
	.st1{fill:url(#SVGID_00000068656810994719150370000007954251422879593364_);}
	.st2{fill:url(#SVGID_00000036965633675292393030000003374612980328638104_);}
	.st3{fill:url(#SVGID_00000083064165215450212760000010775506345856157076_);}
	.st4{fill:url(#SVGID_00000129190348442215747500000013529647776495350917_);}
	.st5{fill:url(#SVGID_00000109726479210377178610000001162038710242989469_);}
	.st6{fill:#F2A34F;}
	.st7{fill:#107FA8;}
	.st8{fill:url(#SVGID_00000035490805198799226290000004238521867534671759_);}
	.st9{fill:url(#SVGID_00000176735959001082405220000005210176919559503767_);}
	.st10{fill:url(#SVGID_00000055699801077321398540000015994221910090237841_);}
	.st11{fill:#2A75D7;}
	.st12{fill:url(#SVGID_00000145763293257475932240000013426115022078570391_);}
	.st13{fill:url(#SVGID_00000094611713495348402090000017235679260719725731_);}
	.st14{fill:url(#SVGID_00000174598706497584473100000007689786177194289581_);}
	.st15{fill:url(#SVGID_00000145736630715847027400000008996755358568895624_);}
	.st16{fill:url(#SVGID_00000092424311940474082090000017426314223114479536_);}
	.st17{fill:url(#SVGID_00000035508496228439479050000001695860922846825112_);}
	.st18{fill:url(#SVGID_00000041975140384025783080000011964100702608205994_);}
	.st19{fill:url(#SVGID_00000155826125249821072940000006089684465350408121_);}
	.st20{fill:url(#SVGID_00000101787057115185311000000000320663519561406611_);}
	.st21{fill:#FFFFFF;}
	.st22{fill:url(#SVGID_00000123408033083644599840000011758660595709055641_);}
	.st23{fill:url(#SVGID_00000134950853405578314860000017463032151571255684_);}
	.st24{fill:url(#SVGID_00000138556299687582938310000000258684917594729374_);}
	.st25{fill:url(#SVGID_00000080204503000810799910000014432724804128800169_);}
	.st26{fill:url(#SVGID_00000082339773366042183470000002811720570712468663_);}
	.st27{fill:url(#SVGID_00000060019057296286838690000012894892583764551593_);}
	.st28{fill:none;stroke:#00A651;stroke-width:0.1;}
	.st29{fill:#2F2C2A;}
	.st30{fill:#EFBA82;}
	.st31{fill:#F5D6B4;}
	.st32{fill:#F9E3CD;}
	.st33{fill:#FCF1E6;}
	.st34{fill:#FEFCFA;}
	.st35{fill:#784611;}
	.st36{fill:#B3691A;}
	.st37{fill:#EF8C22;}
	.st38{fill:#06333F;}
	.st39{fill:#094859;}
	.st40{fill:#0C5D72;}
	.st41{fill:#0E728C;}
	.st42{fill:#58A6C2;}
	.st43{fill:#9FCCDC;}
	.st44{fill:#CFE5EE;}
	.st45{fill:#E7F2F6;}
	.st46{fill:#BAB1A7;}
	.st47{fill:#121266;}
	.st48{fill:#1B1B8C;}
	.st49{fill:#1E31A5;}
	.st50{fill:#2B54D6;}
	.st51{fill:#2A6AFF;}
	.st52{fill:#6A97FF;}
	.st53{fill:#AAC3FF;}
	.st54{fill:#D4E1FF;}
	.st55{fill:#E9F0FF;}
	.st56{fill:#5D5954;}
	.st57{fill:#8C857D;}
	.st58{fill:#C8C1B9;}
	.st59{fill:#D6D0CA;}
	.st60{fill:#E3E0DC;}
	.st61{fill:#FBFDFF;}
	.st62{fill:#FFFFFF;stroke:#CECECE;stroke-miterlimit:10;}
	.st63{fill:url(#SVGID_00000136381116227389018990000014449630152119439270_);}
	.st64{fill:url(#SVGID_00000090982415645679288960000013055386511913826960_);}
	.st65{fill:#FF409F;}
	.st66{fill:none;stroke:#E3E0DC;stroke-width:0.2;stroke-miterlimit:10;}
	.st67{fill:url(#SVGID_00000052076403673745201470000008641531774852827055_);}
	.st68{fill:none;stroke:#FFFCFC;stroke-width:0.4;stroke-miterlimit:10;}
	.st69{fill:none;stroke:#FFFFFF;stroke-width:0.4;stroke-linecap:round;stroke-miterlimit:10;}
	
		.st70{clip-path:url(#SVGID_00000057827196031580790770000004723378138823219883_);fill:url(#SVGID_00000088124349279857583240000012021631224216715147_);}
	.st71{filter:url(#Adobe_OpacityMaskFilter);}
	
		.st72{mask:url(#SVGID_00000104688408574116300070000016945731223584355218_);fill:url(#SVGID_00000008140209449169961700000008199247122323277712_);}
	
		.st73{clip-path:url(#SVGID_00000106868731454647114790000007876177724341509508_);fill:url(#SVGID_00000062884106219775878830000010950702139534351544_);}
	.st74{fill:#142466;}
	.st75{fill:#19337C;}
	.st76{fill:#204C99;}
	.st77{fill:#2561AF;}
	.st78{fill:#6A9FE3;}
	.st79{fill:#AAC8EF;}
	.st80{fill:#D4E3F7;}
	.st81{fill:#E9F1FB;}
	.st82{fill:#282899;}
	.st83{fill:#2F2FB2;}
	.st84{fill:#3636CC;}
	.st85{fill:#3C3CE5;}
	.st86{fill:#4640FF;}
	.st87{fill:#7E7AFF;}
	.st88{fill:#B5B3FF;}
	.st89{fill:#DAD9FF;}
	.st90{fill:#ECECFF;}
	.st91{fill:url(#SVGID_00000083787625711259178800000003454858350783870367_);}
	.st92{fill:url(#SVGID_00000050637189955513516970000009934692338711287999_);}
	.st93{fill:url(#SVGID_00000067943093410261840860000002328099885660285625_);}
	
		.st94{clip-path:url(#SVGID_00000026859070348425115580000004565641710833498042_);fill:url(#SVGID_00000088836649989532005440000003571605856767882119_);}
	.st95{filter:url(#Adobe_OpacityMaskFilter_00000024000540429582349780000014095129186919095217_);}
	
		.st96{mask:url(#SVGID_00000153673955302997716910000000619410523768397998_);fill:url(#SVGID_00000011750203487035018570000002786164976594853300_);}
	
		.st97{clip-path:url(#SVGID_00000171706004964414758730000007366863469733819782_);fill:url(#SVGID_00000075124785225907347740000004624535676891314326_);}
	.st98{fill:url(#SVGID_00000132795748234954406570000006833523170293444264_);}
	.st99{fill:url(#SVGID_00000056416830896199671130000017815561099709586862_);}
	.st100{fill:url(#SVGID_00000134961414205049781610000018097736430309375159_);}
	.st101{fill:url(#SVGID_00000177446965744195579140000004793892271567624616_);}
	.st102{fill:url(#SVGID_00000139290363476731018020000013475144960957856186_);}
	.st103{fill:url(#SVGID_00000096020230972403540980000007953311412480012675_);}
	.st104{fill:url(#SVGID_00000091721034869692694090000011269789995516604834_);}
	.st105{fill:url(#SVGID_00000014596283674637444140000008643870921791335553_);}
	.st106{fill:url(#SVGID_00000136399400730118026690000014581109731891969446_);}
	.st107{fill:url(#SVGID_00000158015935641724493220000011229167486037710216_);}
	.st108{fill:url(#SVGID_00000057110200393119453740000018337543248144122776_);}
	.st109{fill:url(#SVGID_00000112618975743728645180000008589258135081754499_);}
	.st110{fill:url(#SVGID_00000041268750478635574890000002237012922081193123_);}
	.st111{fill:url(#SVGID_00000000186194263671197630000005356830028158696639_);}
	.st112{fill:url(#SVGID_00000141439712908010309440000016474302555054920613_);}
	.st113{fill:url(#SVGID_00000148625184676176665830000002977991555037019545_);}
	.st114{fill:url(#SVGID_00000045607968603798241550000011642838970052343695_);}
	.st115{fill:url(#SVGID_00000086650549458050499240000015952625043648431515_);}
	.st116{fill:url(#SVGID_00000088843803328221961870000001667956853335312318_);}
	.st117{fill:url(#SVGID_00000009550089903232072530000012269193627513137568_);}
	.st118{fill:url(#SVGID_00000178197630560871314700000015058415491708217276_);}
	.st119{fill:url(#SVGID_00000155144796419459784010000002353281910579593093_);}
	.st120{fill:url(#SVGID_00000007403155270864313170000004273698263680801676_);}
	.st121{fill:url(#SVGID_00000043458837721811699480000000012188410157335217_);}
	.st122{fill:url(#SVGID_00000021109409455173932960000006355671572714386604_);}
	.st123{fill:url(#SVGID_00000157287476245804874930000003017432815739895479_);}
	.st124{fill:url(#SVGID_00000070811144077968177780000000874792918651734424_);}
	.st125{fill:none;stroke:#000000;stroke-miterlimit:10;}
	.st126{fill:url(#SVGID_00000127735196389665719200000017628364673948438658_);}
	.st127{fill:url(#SVGID_00000029746708888944500010000003326737620177687995_);}
	.st128{fill:url(#SVGID_00000127743618672956565840000014925792827063763873_);}
	
		.st129{clip-path:url(#SVGID_00000079471391378728636980000013391682073331280024_);fill:url(#SVGID_00000011711512005392959870000005093729636987953805_);}
	.st130{filter:url(#Adobe_OpacityMaskFilter_00000059274231688597224540000014958905382872961939_);}
	
		.st131{mask:url(#SVGID_00000018220543837245517680000017638415769198447521_);fill:url(#SVGID_00000016781822243381170120000013484840466084106638_);}
	
		.st132{clip-path:url(#SVGID_00000162344969106153678070000013751179674188372906_);fill:url(#SVGID_00000091010284988117893120000009320532087070021555_);}
	.st133{fill:#0C447C;}
	.st134{fill:none;}
	.st135{fill:none;stroke:#000000;stroke-linecap:round;stroke-linejoin:round;stroke-miterlimit:10;}
	.st136{fill:none;stroke:#3C3CE5;stroke-linecap:round;stroke-linejoin:round;stroke-miterlimit:10;}
	.st137{fill:#DAD9FF;stroke:#3C3CE5;stroke-linecap:round;stroke-linejoin:round;stroke-miterlimit:10;}
</style>
<g id="Layer_1">
</g>
<g id="Layer_2">
	<circle class="st133" cx="20" cy="20" r="19.83"/>
	<g>
		<path class="st21" d="M9.11,19.23c7.26,0,14.5,0,21.78,0c-0.06,0.47-0.1,0.93-0.19,1.37c-0.62,2.92-2.16,5.22-4.61,6.93
			c-0.37,0.26-0.75,0.4-1.23,0.4c-3.37-0.02-6.74-0.01-10.11-0.01c-0.15,0-0.31-0.04-0.43-0.12c-2.3-1.41-3.88-3.41-4.73-5.96
			C9.32,21,9.14,20.15,9.11,19.23z"/>
		<path class="st21" d="M14.87,28.94c3.42,0,6.81,0,10.22,0c0,0.33,0.03,0.64-0.01,0.94c-0.04,0.37-0.35,0.59-0.78,0.59
			c-1.45,0-2.9,0-4.35,0c-1.4,0-2.81,0-4.21,0c-0.62,0-0.88-0.26-0.88-0.88C14.87,29.38,14.87,29.17,14.87,28.94z"/>
		<path class="st21" d="M28.59,17.22c-0.4-0.33-0.46-0.59-0.28-1.05c0.54-1.39-0.23-2.74-1.72-3c-0.51-0.09-0.68-0.25-0.77-0.76
			c-0.29-1.54-1.57-2.27-3.04-1.73c-0.43,0.16-0.71,0.1-0.98-0.26c-1-1.33-2.82-1.07-3.64,0c-0.27,0.35-0.56,0.41-0.98,0.25
			c-1.44-0.55-2.76,0.2-3.03,1.73c-0.08,0.48-0.27,0.68-0.75,0.75c-1.53,0.2-2.31,1.77-1.73,3.03c0.18,0.4,0.1,0.67-0.23,0.96
			c-0.09,0.08-0.18,0.14-0.26,0.23c-0.23,0.23-0.43,0.48-0.52,0.83c6.23,0,12.41,0,18.65,0C29.18,17.77,28.91,17.48,28.59,17.22z
			 M14.12,15.33c-0.38-0.01-0.71-0.34-0.71-0.74c0-0.4,0.32-0.71,0.72-0.71c0.39,0,0.73,0.33,0.73,0.71
			C14.87,14.97,14.51,15.33,14.12,15.33z M22.94,15.32c-0.38,0-0.72-0.34-0.73-0.72c-0.01-0.39,0.32-0.72,0.71-0.73
			c0.41-0.01,0.72,0.29,0.73,0.7C23.66,14.98,23.34,15.32,22.94,15.32z M25.81,16.78c-0.38-0.02-0.72-0.38-0.7-0.75
			c0.02-0.4,0.34-0.7,0.74-0.7c0.4,0,0.71,0.32,0.71,0.72C26.55,16.46,26.21,16.79,25.81,16.78z"/>
	</g>
</g>
</svg>
