<?xml version="1.0" encoding="utf-8"?>
<!-- Generator: Adobe Illustrator 27.0.0, SVG Export Plug-In . SVG Version: 6.00 Build 0)  -->
<svg version="1.1" xmlns="http://www.w3.org/2000/svg" xmlns:xlink="http://www.w3.org/1999/xlink" x="0px" y="0px"
	 viewBox="0 0 40 40" style="enable-background:new 0 0 40 40;" xml:space="preserve">
<style type="text/css">
	.st0{fill:url(#SVGID_1_);}
	.st1{fill:url(#SVGID_00000168102304860516235000000008862463164441011646_);}
	.st2{fill:url(#SVGID_00000118374674160345614480000001389057475048929424_);}
	.st3{fill:url(#SVGID_00000049208754805166795150000008089938638335817404_);}
	.st4{fill:url(#SVGID_00000027578314363712157360000008356248595238711684_);}
	.st5{fill:url(#SVGID_00000016769811605280775400000002489682715972786874_);}
	.st6{fill:#F2A34F;}
	.st7{fill:#107FA8;}
	.st8{fill:url(#SVGID_00000178165960730215073250000000569395431974905485_);}
	.st9{fill:url(#SVGID_00000139257391110337101680000018378449977958990504_);}
	.st10{fill:url(#SVGID_00000067238359398797002950000001139036902081751971_);}
	.st11{fill:#2A75D7;}
	.st12{fill:url(#SVGID_00000085245258175741127600000008177905550534064554_);}
	.st13{fill:url(#SVGID_00000052803240673726976160000010590503222810197167_);}
	.st14{fill:url(#SVGID_00000077302062333120154860000005956801097607925152_);}
	.st15{fill:url(#SVGID_00000070833769351624642910000015380305923073239473_);}
	.st16{fill:url(#SVGID_00000072261213988357806430000016818760627806972046_);}
	.st17{fill:url(#SVGID_00000067229707302737388960000007447199207107742134_);}
	.st18{fill:url(#SVGID_00000042733760635310496310000000332916197410155171_);}
	.st19{fill:url(#SVGID_00000035507801251169485620000002169559137666687877_);}
	.st20{fill:url(#SVGID_00000178896289138746001740000011729074181426825914_);}
	.st21{fill:#FFFFFF;}
	.st22{fill:url(#SVGID_00000011001973585434740150000016892256759440492982_);}
	.st23{fill:url(#SVGID_00000105424732999694422780000001966350222371438739_);}
	.st24{fill:url(#SVGID_00000181083781993463851390000004624416558006572722_);}
	.st25{fill:url(#SVGID_00000043416509357451863950000017281783526413025422_);}
	.st26{fill:url(#SVGID_00000036230805137037677210000007997380410952008107_);}
	.st27{fill:url(#SVGID_00000136390459405805451400000015228672288562751888_);}
	.st28{fill:none;stroke:#00A651;stroke-width:0.1;}
	.st29{fill:#2F2C2A;}
	.st30{fill:#EFBA82;}
	.st31{fill:#F5D6B4;}
	.st32{fill:#F9E3CD;}
	.st33{fill:#FCF1E6;}
	.st34{fill:#FEFCFA;}
	.st35{fill:#784611;}
	.st36{fill:#B3691A;}
	.st37{fill:#EF8C22;}
	.st38{fill:#06333F;}
	.st39{fill:#094859;}
	.st40{fill:#0C5D72;}
	.st41{fill:#0E728C;}
	.st42{fill:#58A6C2;}
	.st43{fill:#9FCCDC;}
	.st44{fill:#CFE5EE;}
	.st45{fill:#E7F2F6;}
	.st46{fill:#BAB1A7;}
	.st47{fill:#121266;}
	.st48{fill:#1B1B8C;}
	.st49{fill:#1E31A5;}
	.st50{fill:#2B54D6;}
	.st51{fill:#2A6AFF;}
	.st52{fill:#6A97FF;}
	.st53{fill:#AAC3FF;}
	.st54{fill:#D4E1FF;}
	.st55{fill:#E9F0FF;}
	.st56{fill:#5D5954;}
	.st57{fill:#8C857D;}
	.st58{fill:#C8C1B9;}
	.st59{fill:#D6D0CA;}
	.st60{fill:#E3E0DC;}
	.st61{fill:#FBFDFF;}
	.st62{fill:#FFFFFF;stroke:#CECECE;stroke-miterlimit:10;}
	.st63{fill:url(#SVGID_00000183943617142336083660000017338420781682768295_);}
	.st64{fill:url(#SVGID_00000014608269395942561990000007007004142643099069_);}
	.st65{fill:#FF409F;}
	.st66{fill:none;stroke:#E3E0DC;stroke-width:0.2;stroke-miterlimit:10;}
	.st67{fill:url(#SVGID_00000039092401398011143110000010118799879150395046_);}
	.st68{fill:none;stroke:#FFFCFC;stroke-width:0.4;stroke-miterlimit:10;}
	.st69{fill:none;stroke:#FFFFFF;stroke-width:0.4;stroke-linecap:round;stroke-miterlimit:10;}
	
		.st70{clip-path:url(#SVGID_00000003083331814853858490000001877596163152859033_);fill:url(#SVGID_00000047777671353795354330000014875953747084949934_);}
	.st71{filter:url(#Adobe_OpacityMaskFilter);}
	
		.st72{mask:url(#SVGID_00000148649010592340393680000016729254430719127470_);fill:url(#SVGID_00000183232663054857445990000009206044537232339119_);}
	
		.st73{clip-path:url(#SVGID_00000178181841184166734820000002550816774211313809_);fill:url(#SVGID_00000116952314269484756590000008441606250814689958_);}
	.st74{fill:#142466;}
	.st75{fill:#19337C;}
	.st76{fill:#204C99;}
	.st77{fill:#2561AF;}
	.st78{fill:#6A9FE3;}
	.st79{fill:#AAC8EF;}
	.st80{fill:#D4E3F7;}
	.st81{fill:#E9F1FB;}
	.st82{fill:#282899;}
	.st83{fill:#2F2FB2;}
	.st84{fill:#3636CC;}
	.st85{fill:#3C3CE5;}
	.st86{fill:#4640FF;}
	.st87{fill:#7E7AFF;}
	.st88{fill:#B5B3FF;}
	.st89{fill:#DAD9FF;}
	.st90{fill:#ECECFF;}
	.st91{fill:url(#SVGID_00000070085182583138541260000007377022637872404397_);}
	.st92{fill:url(#SVGID_00000141438458678115780750000008039130033647570818_);}
	.st93{fill:url(#SVGID_00000071523406384024388180000007394242690156293295_);}
	
		.st94{clip-path:url(#SVGID_00000132788487357039720690000006921595875720104613_);fill:url(#SVGID_00000037692873967032222570000012988402608120786561_);}
	.st95{filter:url(#Adobe_OpacityMaskFilter_00000129925902239930629780000011333401846679560855_);}
	
		.st96{mask:url(#SVGID_00000034773828343305682020000002285001548972601527_);fill:url(#SVGID_00000051348070189095727040000000127977208376458135_);}
	
		.st97{clip-path:url(#SVGID_00000034807034612290443230000013944292510415200646_);fill:url(#SVGID_00000179624621878674532610000004501276380381307054_);}
	.st98{fill:url(#SVGID_00000107548749591380183680000005390456318055334074_);}
	.st99{fill:url(#SVGID_00000127745563255249899460000006055007634284077709_);}
	.st100{fill:url(#SVGID_00000159436055148995893660000000313042282090090373_);}
	.st101{fill:url(#SVGID_00000170260455913631506550000002031711857400569016_);}
	.st102{fill:url(#SVGID_00000119837436026939600380000015841371645503290809_);}
	.st103{fill:url(#SVGID_00000119809044088399980570000006427512329952233857_);}
	.st104{fill:url(#SVGID_00000155115694214739291900000005431795634433684875_);}
	.st105{fill:url(#SVGID_00000150825294788685235320000007273689213631585158_);}
	.st106{fill:url(#SVGID_00000078016864581321735010000005410053403133641347_);}
	.st107{fill:url(#SVGID_00000082345160506433494040000014938210484918674053_);}
	.st108{fill:url(#SVGID_00000134943612984627579820000015575184775037610164_);}
	.st109{fill:url(#SVGID_00000001657652098113000570000004169934217217481605_);}
	.st110{fill:url(#SVGID_00000078005682568604378190000011666102246112666290_);}
	.st111{fill:url(#SVGID_00000064353286981133919270000012370576089973706669_);}
	.st112{fill:url(#SVGID_00000054971770717327242940000008263099576404500361_);}
	.st113{fill:url(#SVGID_00000137097409924720053910000003767697147650672543_);}
	.st114{fill:url(#SVGID_00000167357478803872347480000011788444792473313672_);}
	.st115{fill:url(#SVGID_00000017504665619186106700000013166953309242143897_);}
	.st116{fill:url(#SVGID_00000095315043150256224710000003245529687706404775_);}
	.st117{fill:url(#SVGID_00000181065741632611750390000006823942294023477644_);}
	.st118{fill:url(#SVGID_00000024723732692847775360000000358500883727465901_);}
	.st119{fill:url(#SVGID_00000030479578670397250150000011979260891058087579_);}
	.st120{fill:url(#SVGID_00000157294385700464841520000005269242390860213391_);}
	.st121{fill:url(#SVGID_00000118370002694929955820000001032539145315031458_);}
	.st122{fill:url(#SVGID_00000043454389099344964470000013562716286017708161_);}
	.st123{fill:url(#SVGID_00000037691143432071420130000012002986358291445419_);}
	.st124{fill:url(#SVGID_00000003100762427570160110000006504380765541573527_);}
	.st125{fill:none;stroke:#000000;stroke-miterlimit:10;}
	.st126{fill:url(#SVGID_00000127006400633470839500000008095867485237689258_);}
	.st127{fill:url(#SVGID_00000173133741860038008540000004236070059896480912_);}
	.st128{fill:url(#SVGID_00000057831608376432086720000010662134369291218584_);}
	
		.st129{clip-path:url(#SVGID_00000083063133451402685250000015608990172868721307_);fill:url(#SVGID_00000138535462223826628270000005167701818884447401_);}
	.st130{filter:url(#Adobe_OpacityMaskFilter_00000042699144060661572310000014448172258827167148_);}
	
		.st131{mask:url(#SVGID_00000054232363352462470510000010642072991752597670_);fill:url(#SVGID_00000116201855415640980620000006861460183565470643_);}
	
		.st132{clip-path:url(#SVGID_00000023247680325716147360000003256044664606761660_);fill:url(#SVGID_00000044177579843945099220000012468644032082826923_);}
	.st133{fill:#0C447C;}
	.st134{fill:none;}
	.st135{fill:none;stroke:#000000;stroke-linecap:round;stroke-linejoin:round;stroke-miterlimit:10;}
	.st136{fill:none;stroke:#3C3CE5;stroke-linecap:round;stroke-linejoin:round;stroke-miterlimit:10;}
	.st137{fill:#DAD9FF;stroke:#3C3CE5;stroke-linecap:round;stroke-linejoin:round;stroke-miterlimit:10;}
</style>
<g id="Layer_1">
</g>
<g id="Layer_2">
	<circle class="st133" cx="20" cy="20" r="19.83"/>
	<g>
		<path class="st21" d="M22.83,32c0.06-1.65,0.51-2.12,1.88-2.19c1.02-0.05,2.05-0.11,3.06-0.26c1.26-0.19,1.29-1.26,1.3-2.15
			c0.01-0.89,0.03-4.72,0.03-4.72c0.12-0.06,0.22-0.13,0.34-0.17c1.59-0.6,1.72-1.2,0.39-2.29c-0.92-0.75-1.38-1.6-1.31-2.8
			c0.29-5.01-3.86-8.41-7.33-9.19c-4.22-0.94-8.67,1.1-10.77,5.02c-2.09,3.89-1.3,8.53,1.93,11.61c0.51,0.49,1.01,1.02,1.37,1.62
			c0.71,1.21,0.41,2.46-0.12,3.66c-0.26,0.6-0.56,1.2-0.84,1.8L22.83,32z"/>
		<path class="st133" d="M17.62,25.66c-0.16,0-0.31-0.07-0.41-0.21c-0.16-0.23-0.1-0.54,0.12-0.7c0.3-0.21,0.5-0.42,0.61-0.64
			c0.94-1.87,0.59-3.79,0.12-5.43l-0.36-0.59c-0.02-0.03-0.04-0.07-0.05-0.11c-0.02-0.05-0.03-0.11-0.02-0.17
			c0-0.08,0.02-0.15,0.05-0.21c0.03-0.06,0.08-0.12,0.13-0.17c0.05-0.04,0.1-0.07,0.15-0.08c0.04-0.01,0.08-0.02,0.12-0.02
			c1.2-0.13,2.2-0.8,2.74-1.86c0.48-0.94,0.51-2.05,0.1-3.03c-0.83,0.45-2.28,1.47-2.65,3.22c-0.06,0.27-0.34,0.44-0.59,0.39
			c-0.27-0.06-0.44-0.32-0.39-0.59c0.55-2.59,2.93-3.82,3.65-4.14c0.24-0.1,0.51-0.01,0.64,0.21c0.79,1.37,0.84,3.02,0.14,4.4
			c-0.58,1.14-1.57,1.93-2.79,2.26l0.02,0.04c0.02,0.04,0.04,0.08,0.05,0.12c0.5,1.73,0.94,4-0.17,6.22
			c-0.19,0.37-0.49,0.7-0.93,1.01C17.82,25.63,17.72,25.66,17.62,25.66z"/>
		<path class="st133" d="M16.59,23.18c-0.77,0-1.48-0.17-2.1-0.52c-1.12-0.63-1.83-1.77-2-3.2c-0.03-0.22,0.09-0.43,0.29-0.52
			c1.18-0.53,2.6-0.51,3.88,0.05c1.33,0.58,2.34,1.67,2.77,2.98c0.08,0.24-0.04,0.51-0.27,0.61C18.29,22.98,17.41,23.18,16.59,23.18
			z M13.54,19.72c0.2,0.93,0.7,1.66,1.44,2.07c0.9,0.5,2.09,0.52,3.33,0.07c-0.41-0.85-1.13-1.54-2.05-1.95
			C15.36,19.52,14.38,19.45,13.54,19.72z"/>
		<path class="st133" d="M18.12,18.33c-1.61,0-3.04-0.66-3.93-1.81c-0.88-1.13-1.14-2.58-0.75-4.09c0.07-0.25,0.31-0.4,0.56-0.37
			c2.83,0.45,4.99,3.18,4.62,5.84C18.59,18.14,18.38,18.33,18.12,18.33C18.13,18.33,18.12,18.33,18.12,18.33z M14.31,13.15
			c-0.15,1.03,0.08,1.99,0.67,2.76c0.62,0.79,1.58,1.29,2.68,1.4C17.67,15.49,16.2,13.68,14.31,13.15z"/>
		<path class="st133" d="M23.28,24.61c0,0-0.01,0-0.01,0c-0.15,0-0.29-0.07-0.38-0.19l-0.76-0.95c-0.65-0.81-1.27-1.58-1.85-2.37
			c-0.31-0.43-0.33-1.05-0.3-1.49c0.05-0.68,0.42-1.24,0.99-1.49c0.57-0.25,1.24-0.15,1.78,0.28c0.22,0.17,0.39,0.37,0.58,0.57
			c0.08-0.09,0.15-0.18,0.23-0.26c0.68-0.73,1.4-0.91,2.15-0.55c0.81,0.39,1.14,1.15,0.92,2.14c-0.09,0.41-0.23,0.92-0.54,1.31
			c-0.5,0.63-1.03,1.23-1.63,1.92l-0.8,0.92C23.56,24.55,23.42,24.61,23.28,24.61z M21.61,18.99c-0.08,0-0.17,0.02-0.24,0.05
			c-0.23,0.1-0.37,0.33-0.39,0.65c-0.03,0.45,0.04,0.73,0.12,0.83c0.56,0.77,1.17,1.53,1.81,2.33l0.39,0.49l0.41-0.47
			c0.59-0.67,1.11-1.26,1.6-1.88c0.18-0.23,0.28-0.6,0.35-0.9c0.15-0.67-0.12-0.9-0.38-1.02c-0.23-0.11-0.51-0.18-0.99,0.33
			c-0.12,0.13-0.23,0.27-0.36,0.42l-0.21,0.25c-0.09,0.11-0.23,0.17-0.37,0.18c-0.14,0-0.28-0.05-0.38-0.16
			c-0.12-0.13-0.23-0.25-0.33-0.37c-0.18-0.21-0.34-0.39-0.51-0.52C21.96,19.06,21.78,18.99,21.61,18.99z"/>
	</g>
</g>
</svg>
