<svg width="230" height="100" viewBox="0 0 230 100" fill="none" xmlns="http://www.w3.org/2000/svg">
<g clip-path="url(#clip0_4825_759)">
<mask id="mask0_4825_759" style="mask-type:luminance" maskUnits="userSpaceOnUse" x="92" y="15" width="46" height="70">
<path d="M137.372 15H92.5V85H137.372V15Z" fill="white"/>
</mask>
<g mask="url(#mask0_4825_759)">
<path d="M112.207 74.3282H108.168V59.4288C109.955 58.4501 112.673 57.9238 115.236 57.9238C117.022 57.9238 118.343 58.3001 119.198 58.8263C120.168 59.5284 120.698 60.5094 120.984 61.6112C121.14 62.3637 121.217 63.1161 121.217 63.9436V74.2532H117.101V64.3199C117.101 62.2875 116.634 61.0838 114.383 61.0838C113.684 61.0838 112.674 61.2338 112.209 61.535V74.3282H112.207Z" fill="url(#paint0_linear_4825_759)"/>
<path d="M123.826 69.2943C123.826 66.4344 125.069 64.6282 128.33 64.177C130.039 63.8757 131.336 63.8757 133.199 63.8007C133.199 61.9195 132.345 61.0921 130.171 61.0921C128.23 61.0921 126.411 61.3523 124.67 61.9266L124.654 58.7338C126.214 58.292 128.074 57.9321 130.481 57.9321C134.132 57.9321 137.161 58.9108 137.161 63.1244V73.0578C135.375 74.0365 133.069 74.5627 130.118 74.5627C126.116 74.544 123.827 72.7566 123.827 69.2954L123.826 69.2943ZM133.2 66.3594C131.958 66.4344 130.972 66.4344 129.807 66.7356C128.409 67.0368 127.788 67.5631 127.788 69.2192C127.788 70.8754 128.798 71.4017 130.584 71.4017C131.516 71.4017 132.269 71.3266 133.2 70.9504V66.3594Z" fill="url(#paint1_linear_4825_759)"/>
<path d="M105.071 73.7447C103.672 74.121 101.061 74.5464 98.8867 74.5464C93.3709 74.5464 92.5176 70.4078 92.5176 66.043C92.5176 60.7757 93.76 57.8408 99.8184 57.8408C101.682 57.8408 103.906 58.3413 105.071 58.6425L105.047 61.9009C103.323 61.3946 102.454 61.2328 101.19 61.2C97.3852 61.1015 96.7124 62.1295 96.7124 65.9668C96.7124 69.5792 97.0746 70.9599 101.19 70.9599C102.2 70.9599 104.057 70.5239 105.067 70.2988L105.072 73.7447H105.071Z" fill="url(#paint2_linear_4825_759)"/>
<path d="M132.802 43.8989L137.326 54.4992H108.007L132.802 43.8989Z" fill="#ED2227"/>
<path d="M109.545 15H120.326L103.281 54.492H92.5L109.545 15Z" fill="url(#paint3_linear_4825_759)"/>
<path d="M137.372 54.492H126.59L109.545 15H120.326L137.372 54.492Z" fill="url(#paint4_linear_4825_759)"/>
<path d="M104.202 78.8699H102.42V84.9249H100.944V78.8699H99.1714V77.6826H104.201V78.8699H104.202Z" fill="#C9252C"/>
<path d="M105.089 81.3044C105.089 78.6813 105.733 77.6089 107.987 77.6089C110.241 77.6089 110.881 78.6813 110.881 81.3044C110.881 83.9275 110.237 85 107.987 85C105.736 85 105.089 83.9275 105.089 81.3044ZM109.387 81.3044C109.387 79.8276 109.356 78.8173 107.986 78.8173C106.615 78.8173 106.58 79.8276 106.58 81.3044C106.58 82.7813 106.611 83.7881 107.986 83.7881C109.36 83.7881 109.387 82.7813 109.387 81.3044Z" fill="#C9252C"/>
<path d="M112.131 77.814C112.746 77.6956 113.629 77.6089 114.49 77.6089C117.204 77.6089 117.685 78.8431 117.685 81.3044C117.685 83.7658 117.204 85 114.49 85C113.619 85 112.753 84.9156 112.131 84.8007V77.8128V77.814ZM113.601 78.8606V83.747C113.787 83.7752 114.02 83.7998 114.288 83.7998C116.196 83.7998 116.212 82.718 116.212 81.3044C116.212 79.8909 116.197 78.8114 114.288 78.8114C114.02 78.8114 113.787 78.836 113.601 78.8606Z" fill="#C9252C"/>
<path d="M118.417 84.9252L120.571 78.6182C120.814 77.9091 121.205 77.6079 121.762 77.6079C122.319 77.6079 122.71 77.9279 122.943 78.6182L125.06 84.9252H123.5L122.947 83.1319H120.476L119.936 84.9252H118.419H118.417ZM122.6 82.0032L121.699 79.0753L120.813 82.0032H122.6Z" fill="#C9252C"/>
<path d="M128.383 84.9249H126.913V82.1342L124.582 77.6826H126.164L127.66 80.6855L129.195 77.6826H130.721L128.384 82.1342V84.9249H128.383Z" fill="#C9252C"/>
</g>
</g>
<defs>
<linearGradient id="paint0_linear_4825_759" x1="114.692" y1="57.9227" x2="114.692" y2="74.3282" gradientUnits="userSpaceOnUse">
<stop stop-color="#534B48"/>
<stop offset="0.27" stop-color="#4A423F"/>
<stop offset="0.7" stop-color="#312B29"/>
<stop offset="1" stop-color="#1D1816"/>
</linearGradient>
<linearGradient id="paint1_linear_4825_759" x1="130.494" y1="57.931" x2="130.494" y2="74.5627" gradientUnits="userSpaceOnUse">
<stop stop-color="#534B48"/>
<stop offset="0.27" stop-color="#4A423F"/>
<stop offset="0.7" stop-color="#312B29"/>
<stop offset="1" stop-color="#1D1816"/>
</linearGradient>
<linearGradient id="paint2_linear_4825_759" x1="98.7941" y1="57.8408" x2="98.7941" y2="74.5464" gradientUnits="userSpaceOnUse">
<stop stop-color="#534B48"/>
<stop offset="0.27" stop-color="#4A423F"/>
<stop offset="0.7" stop-color="#312B29"/>
<stop offset="1" stop-color="#1D1816"/>
</linearGradient>
<linearGradient id="paint3_linear_4825_759" x1="106.413" y1="54.4908" x2="106.413" y2="15" gradientUnits="userSpaceOnUse">
<stop stop-color="#ED2227"/>
<stop offset="0.17" stop-color="#E42125"/>
<stop offset="0.45" stop-color="#CB1E22"/>
<stop offset="0.8" stop-color="#A41A1E"/>
<stop offset="1" stop-color="#8B181B"/>
</linearGradient>
<linearGradient id="paint4_linear_4825_759" x1="106.628" y1="17.9161" x2="140.288" y2="51.5759" gradientUnits="userSpaceOnUse">
<stop stop-color="#ED2227"/>
<stop offset="0.17" stop-color="#E42125"/>
<stop offset="0.45" stop-color="#CB1E22"/>
<stop offset="0.8" stop-color="#A41A1E"/>
<stop offset="1" stop-color="#8B181B"/>
</linearGradient>
<clipPath id="clip0_4825_759">
<rect width="45" height="70" fill="white" transform="translate(92.5 15)"/>
</clipPath>
</defs>
</svg>
