<svg width="230" height="100" viewBox="0 0 230 100" fill="none" xmlns="http://www.w3.org/2000/svg">
<g clip-path="url(#clip0_4825_778)">
<path d="M136.65 15.6504H146.65L145.85 18.6504H139.35L138.75 20.7504H144.65L143.85 23.6504H137.95L136.85 28.0504H133.35L136.65 15.6504Z" fill="black"/>
<path d="M147.95 15.6504H151.45L153.05 20.4504L157.25 15.6504H161.15L157.85 28.1504H154.35L156.25 21.0504L151.75 25.9504H151.65L149.85 21.0504L147.95 28.1504H144.55L147.95 15.6504Z" fill="black"/>
<path d="M72.1501 15.6504H75.6501L77.3501 20.4504L81.5501 15.6504H85.4501L82.1501 28.1504H78.6501L80.5501 21.0504L76.0501 25.9504L74.1501 21.0504L72.2501 28.1504H68.8501L72.1501 15.6504Z" fill="#008837"/>
<path d="M85.0503 22.7502C85.0503 18.6502 88.3503 15.4502 92.4503 15.4502C95.9503 15.4502 98.3503 17.8502 98.3503 21.0502C98.3503 25.1502 94.9503 28.3502 90.9503 28.3502C87.4503 28.3502 85.0503 25.9502 85.0503 22.7502ZM94.9503 21.3502C95.0503 19.9502 94.0503 18.7502 92.6503 18.6502C92.5503 18.6502 92.3503 18.6502 92.2503 18.6502C90.0503 18.6502 88.6503 20.7502 88.6503 22.6502C88.5503 24.0502 89.5503 25.2502 90.9503 25.3502C91.0503 25.3502 91.2503 25.3502 91.3503 25.3502C93.3503 25.1502 94.9503 23.3502 94.9503 21.3502Z" fill="#008837"/>
<path d="M101.35 15.6504H104.55L107.75 22.5504L109.65 15.6504H113.05L109.65 28.0504H106.65L103.25 20.8504L101.35 28.0504H97.9502L101.35 15.6504Z" fill="#008837"/>
<path d="M130.85 21.55L125.05 28.05H121.05L126.85 21.65L124.35 15.75H128.15L130.85 21.55Z" fill="#008837"/>
<path d="M129.25 18.4504L131.65 15.6504H135.75L130.75 21.5504" fill="#008837"/>
<path d="M123.45 18.6504L124.25 15.6504H114.35L110.95 28.1504H121.05L121.85 25.1504H115.15L118.05 21.5504L116.95 18.6504H123.45Z" fill="#008837"/>
<path d="M73.1499 68.6501C70.5499 66.3501 69.1499 63.0501 69.1499 59.5501C69.1499 57.3501 69.7499 55.1501 70.9499 53.3501C72.0499 51.5501 73.6499 50.0501 75.5499 49.0501C74.3499 48.2501 73.4499 47.1501 72.8499 45.8501C72.1499 44.5501 71.7499 43.0501 71.7499 41.5501C71.7499 38.6501 72.8499 35.9501 74.9499 34.0501C77.0499 31.9501 79.9499 30.8501 82.9499 30.9501C85.9499 30.8501 88.8499 31.9501 90.9499 34.0501C93.0499 35.9501 94.2499 38.7501 94.1499 41.5501C94.1499 43.0501 93.7499 44.4501 93.0499 45.8501C92.4499 47.1501 91.4499 48.2501 90.3499 49.0501C92.2499 50.0501 93.8499 51.5501 94.9499 53.3501C96.1499 55.2501 96.7499 57.3501 96.7499 59.5501C96.7499 63.0501 95.3499 66.3501 92.7499 68.6501C90.0499 71.1501 86.5499 72.4501 82.9499 72.3501C79.3499 72.4501 75.8499 71.1501 73.1499 68.6501ZM77.2499 54.3501C75.7499 55.6501 74.9499 57.5501 74.9499 59.5501C74.9499 61.5501 75.7499 63.4501 77.2499 64.7501C80.5499 67.5501 85.4499 67.5501 88.7499 64.7501C90.2499 63.4501 91.0499 61.5501 91.0499 59.5501C91.0499 57.5501 90.2499 55.6501 88.7499 54.3501C85.3499 51.5501 80.5499 51.5501 77.2499 54.3501ZM79.0499 37.9501C77.0499 39.9501 76.9499 43.1501 78.9499 45.2501L79.0499 45.3501C81.2499 47.3501 84.6499 47.3501 86.8499 45.3501C88.8499 43.3501 88.9499 40.1501 86.9499 38.0501L86.8499 37.9501C84.5499 35.9501 81.2499 35.9501 79.0499 37.9501Z" fill="black"/>
<path d="M138.65 62.7503C139.35 64.0503 140.35 65.0503 141.65 65.7503C143.05 66.5503 144.65 66.9503 146.15 66.9503C148.35 66.9503 150.45 66.1503 152.05 64.5503C155.35 61.2503 155.35 55.9503 152.05 52.6503C150.35 51.0503 148.15 50.2503 145.85 50.2503C144.25 50.2503 142.75 50.4503 141.15 50.8503V47.1503L149.75 37.0503H135.85V31.5503H158.25V35.2503L149.45 45.4503C152.45 45.8503 155.25 47.4503 157.15 49.8503C159.25 52.2503 160.35 55.3503 160.25 58.5503C160.35 66.0503 154.25 72.2503 146.75 72.3503C146.65 72.3503 146.55 72.3503 146.45 72.3503C143.85 72.3503 141.25 71.7503 138.85 70.5503C136.65 69.4503 134.85 67.6503 133.65 65.3503L138.65 62.7503Z" fill="black"/>
<g filter="url(#filter0_dd_4825_778)">
<path d="M122.75 67.1503C123.75 66.1503 125.45 66.0503 126.55 67.1503C127.55 68.1503 127.65 69.8502 126.55 70.9502C125.55 71.9502 123.85 72.0502 122.75 70.9502C122.25 70.4502 121.95 69.7502 121.95 69.0502C121.95 68.2502 122.25 67.5503 122.75 67.1503Z" fill="black"/>
</g>
<path d="M121.85 34.9501C116.25 29.6501 107.55 29.6501 101.95 34.9501C99.3503 37.5501 97.8503 41.0501 97.9503 44.7501C97.8503 48.3501 99.2503 51.8501 101.85 54.4501C104.35 57.0501 107.75 58.4501 111.35 58.4501C112.05 58.4501 112.85 58.4501 113.55 58.3501L104.75 71.8501H111.25L120.85 57.3501C122.35 55.2501 123.55 53.0501 124.65 50.7501C125.55 48.8501 125.95 46.7501 125.95 44.5501C125.85 40.9501 124.45 37.4501 121.85 34.9501ZM104.05 44.5501C104.05 40.1501 107.65 36.6501 111.95 36.6501C116.25 36.6501 119.85 40.2501 119.85 44.5501C119.85 48.8501 116.25 52.4501 111.95 52.4501C107.55 52.5501 104.05 48.9501 104.05 44.5501Z" fill="black"/>
<path d="M71.5503 81.5503C70.9503 81.5503 70.3503 81.3503 69.9503 80.9503C69.6503 80.6503 69.5503 80.2503 69.5503 79.8503C69.5503 79.3503 69.7503 78.8503 70.1503 78.5503C70.5503 78.2503 71.0503 78.0503 71.5503 78.0503C71.9503 78.0503 72.4503 78.1503 72.8503 78.3503C73.2503 78.5503 73.5503 78.9503 73.6503 79.3503C73.6503 79.4503 73.6503 79.6503 73.4503 79.6503C73.3503 79.6503 73.3503 79.6503 73.2503 79.6503C73.1503 79.6503 73.1503 79.5503 73.0503 79.4503C72.9503 79.1503 72.7503 78.8503 72.4503 78.7503C72.1503 78.6503 71.7503 78.5503 71.4503 78.5503C71.0503 78.5503 70.7503 78.6503 70.4503 78.9503C70.1503 79.1503 70.0503 79.5503 69.9503 79.8503C69.9503 80.1503 70.0503 80.3503 70.2503 80.5503C70.5503 80.8503 71.0503 81.0503 71.4503 80.9503C71.5503 80.9503 71.7503 81.0503 71.7503 81.2503C71.7503 81.3503 71.7503 81.3503 71.6503 81.4503C71.5503 81.4503 71.5503 81.4503 71.5503 81.5503ZM70.3503 84.1503C69.9503 83.9503 69.6503 83.5503 69.5503 83.1503C69.5503 83.0503 69.5503 83.0503 69.5503 82.9503C69.5503 82.8503 69.6503 82.8503 69.7503 82.8503C69.8503 82.8503 69.8503 82.8503 69.9503 82.8503C70.0503 82.8503 70.0503 82.9503 70.0503 83.0503C70.1503 83.3503 70.3503 83.6503 70.6503 83.7503C70.9503 83.8503 71.3503 83.9503 71.6503 83.9503C72.0503 83.9503 72.3503 83.8503 72.6503 83.5503C72.9503 83.3503 73.0503 82.9503 73.1503 82.6503C73.1503 82.3503 73.0503 82.1503 72.8503 81.9503C72.5503 81.6503 72.0503 81.4503 71.6503 81.5503C71.5503 81.5503 71.5503 81.5503 71.4503 81.4503C71.3503 81.3503 71.3503 81.1503 71.4503 81.0503C71.4503 80.9503 71.5503 80.9503 71.6503 80.9503C72.2503 80.9503 72.8503 81.1503 73.2503 81.5503C73.5503 81.8503 73.6503 82.2503 73.6503 82.6503C73.6503 83.1503 73.4503 83.6503 73.0503 83.9503C72.6503 84.2503 72.1503 84.4503 71.6503 84.4503C71.1503 84.4503 70.7503 84.3503 70.3503 84.1503Z" fill="black"/>
<path d="M80.1502 78.5502H78.3502C78.2502 78.5502 78.2502 78.5502 78.1502 78.4502C78.0502 78.3502 78.0502 78.1502 78.1502 78.0502C78.1502 77.9502 78.2502 77.9502 78.3502 77.9502H82.4502C82.5502 77.9502 82.7502 78.0502 82.7502 78.2502C82.7502 78.3502 82.7502 78.3502 82.6502 78.4502C82.6502 78.5502 82.5502 78.5502 82.4502 78.5502H80.6502V84.1502C80.6502 84.2502 80.5502 84.4502 80.4502 84.4502C80.3502 84.4502 80.3502 84.4502 80.2502 84.3502C80.1502 84.2502 80.1502 84.2502 80.1502 84.1502V78.5502Z" fill="black"/>
<path d="M86.7499 84.45C86.6499 84.45 86.6499 84.35 86.6499 84.35C86.6499 84.25 86.6499 84.25 86.6499 84.15L87.2499 82.65L89.0499 78.25H89.1499H89.2499H89.3499L91.1499 82.65L91.7499 84.15C91.7499 84.25 91.7499 84.25 91.7499 84.35C91.7499 84.45 91.6499 84.45 91.6499 84.45H91.5499C91.4499 84.45 91.3499 84.35 91.2499 84.25L90.6499 82.95H87.6499L87.1499 84.25C87.1499 84.35 87.0499 84.45 86.8499 84.45H86.7499ZM90.6499 82.45L89.2499 79.05L87.8499 82.45H90.6499Z" fill="black"/>
<path d="M101.25 78.1502C101.35 78.1502 101.35 78.2502 101.35 78.3502C101.35 78.4502 101.35 78.4502 101.25 78.5502L99.05 81.2502V84.2502C99.05 84.3502 99.05 84.3502 98.95 84.4502C98.95 84.5502 98.85 84.5502 98.75 84.5502C98.65 84.5502 98.45 84.4502 98.45 84.2502V81.2502L96.35 78.4502C96.35 78.3502 96.25 78.3502 96.25 78.2502C96.25 78.1502 96.25 78.1502 96.35 78.0502C96.45 77.9502 96.65 77.9502 96.75 78.0502L98.75 80.6502L100.75 78.0502C100.75 77.9502 100.85 77.9502 100.95 77.9502C101.05 77.9502 101.15 77.9502 101.25 78.1502Z" fill="black"/>
<path d="M114.55 84.45C114.45 84.45 114.45 84.35 114.45 84.35C114.45 84.25 114.45 84.25 114.45 84.15L115.05 82.65L116.85 78.25H116.95H117.05H117.15L118.95 82.65L119.55 84.15C119.55 84.25 119.55 84.25 119.55 84.35C119.55 84.45 119.45 84.45 119.45 84.45H119.35C119.25 84.45 119.15 84.35 119.05 84.25L118.45 82.95H115.35L114.85 84.25C114.85 84.35 114.75 84.45 114.55 84.45ZM118.45 82.45L117.05 79.05L115.65 82.45H118.45Z" fill="black"/>
<path d="M129.35 84.4502C129.25 84.4502 129.25 84.4502 129.15 84.3502C129.05 84.3502 129.05 84.2502 129.05 84.1502V81.4502H125.35V84.1502C125.35 84.2502 125.35 84.2502 125.25 84.3502C125.25 84.4502 125.15 84.4502 125.05 84.4502C124.95 84.4502 124.75 84.3502 124.75 84.1502V78.2502C124.75 78.1502 124.85 77.9502 125.05 77.9502C125.15 77.9502 125.15 77.9502 125.25 78.0502C125.35 78.0502 125.35 78.1502 125.35 78.2502V80.9502H129.05V78.2502C129.05 78.1502 129.05 78.1502 129.15 78.0502C129.15 77.9502 129.25 77.9502 129.35 77.9502C129.45 77.9502 129.65 78.0502 129.65 78.2502V84.1502C129.65 84.3502 129.55 84.4502 129.35 84.4502Z" fill="black"/>
<path d="M135.55 84.4502C135.45 84.4502 135.25 84.3502 135.25 84.1502V78.2502C135.25 78.1502 135.25 78.1502 135.35 78.0502C135.35 77.9502 135.45 77.9502 135.55 77.9502H139.05C139.15 77.9502 139.15 77.9502 139.25 78.0502C139.35 78.0502 139.35 78.1502 139.35 78.2502C139.35 78.3502 139.35 78.3502 139.25 78.4502C139.25 78.5502 139.15 78.5502 139.05 78.5502H135.85V80.9502H138.25C138.35 80.9502 138.55 81.0502 138.55 81.2502C138.55 81.3502 138.45 81.5502 138.25 81.5502H135.85V83.9502H139.15C139.25 83.9502 139.45 84.0502 139.45 84.2502C139.45 84.3502 139.35 84.5502 139.15 84.5502L135.55 84.4502Z" fill="black"/>
<path d="M144.35 84.45C144.25 84.45 144.25 84.35 144.25 84.35C144.25 84.25 144.25 84.25 144.25 84.15L144.85 82.65L146.65 78.25H146.75H146.85L148.65 82.65L149.25 84.15C149.25 84.25 149.25 84.25 149.25 84.35C149.25 84.45 149.15 84.45 149.15 84.45H149.05C148.95 84.45 148.85 84.35 148.75 84.25L148.15 82.95H144.85L144.25 84.25C144.45 84.35 144.35 84.45 144.35 84.45ZM148.25 82.45L146.85 79.05L145.45 82.45H148.25Z" fill="black"/>
<path d="M154.75 84.4502C154.65 84.4502 154.65 84.4502 154.55 84.3502C154.45 84.3502 154.45 84.2502 154.45 84.1502V78.2502C154.45 78.1502 154.45 78.1502 154.55 78.0502C154.55 77.9502 154.65 77.9502 154.75 77.9502H156.25C158.05 78.0502 159.35 79.5502 159.25 81.3502C159.15 82.9502 157.85 84.2502 156.25 84.3502L154.75 84.4502ZM154.95 83.9502H156.15C157.65 84.0502 158.85 82.9502 158.95 81.4502C159.05 79.9502 157.95 78.7502 156.45 78.6502C156.35 78.6502 156.25 78.6502 156.15 78.6502H154.95V83.9502Z" fill="black"/>
</g>
<defs>
<filter id="filter0_dd_4825_778" x="118.95" y="64.3623" width="11.3882" height="11.376" filterUnits="userSpaceOnUse" color-interpolation-filters="sRGB">
<feFlood flood-opacity="0" result="BackgroundImageFix"/>
<feColorMatrix in="SourceAlpha" type="matrix" values="0 0 0 0 0 0 0 0 0 0 0 0 0 0 0 0 0 0 127 0" result="hardAlpha"/>
<feOffset dy="1"/>
<feGaussianBlur stdDeviation="1"/>
<feColorMatrix type="matrix" values="0 0 0 0 0 0 0 0 0 0 0 0 0 0 0 0 0 0 0.06 0"/>
<feBlend mode="normal" in2="BackgroundImageFix" result="effect1_dropShadow_4825_778"/>
<feColorMatrix in="SourceAlpha" type="matrix" values="0 0 0 0 0 0 0 0 0 0 0 0 0 0 0 0 0 0 127 0" result="hardAlpha"/>
<feOffset dy="1"/>
<feGaussianBlur stdDeviation="1.5"/>
<feColorMatrix type="matrix" values="0 0 0 0 0 0 0 0 0 0 0 0 0 0 0 0 0 0 0.1 0"/>
<feBlend mode="normal" in2="effect1_dropShadow_4825_778" result="effect2_dropShadow_4825_778"/>
<feBlend mode="normal" in="SourceGraphic" in2="effect2_dropShadow_4825_778" result="shape"/>
</filter>
<clipPath id="clip0_4825_778">
<rect width="92.3" height="69.1" fill="white" transform="translate(68.8501 15.4502)"/>
</clipPath>
</defs>
</svg>
