<svg width="402" height="564" viewBox="0 0 402 564" fill="none" xmlns="http://www.w3.org/2000/svg">
<g clip-path="url(#clip0_4796_7304)">
<path d="M300.061 462.991L309.265 464.314L362.797 84.8419L353.593 83.5184L300.061 462.991Z" fill="#171717"/>
<path d="M402.001 547.609H250.923V553.084H402.001V547.609Z" fill="#71717A"/>
<path d="M328.538 370.937L373.381 552.817L378.618 551.407L333.775 369.539L328.538 370.937Z" fill="#71717A"/>
<path d="M328.399 378.652C332.677 378.652 336.146 375.15 336.146 370.83C336.146 366.51 332.677 363.008 328.399 363.008C324.12 363.008 320.651 366.51 320.651 370.83C320.651 375.15 324.12 378.652 328.399 378.652Z" fill="#090814"/>
<path d="M234.772 282.721C249.984 275.704 256.731 257.615 249.841 242.316C242.951 227.018 225.034 220.304 209.821 227.32C194.609 234.337 187.862 252.427 194.752 267.725C201.642 283.023 219.56 289.737 234.772 282.721Z" fill="white"/>
<path d="M226.644 261.772L216.381 261.989L216.549 272.303L226.812 272.086L226.644 261.772Z" fill="#9F616A"/>
<path d="M238.982 279.888C229.553 287.42 217.374 287.912 207.523 281.153C208.309 279.299 209.344 277.561 210.599 275.988C214.445 271.179 219.937 268.78 225.469 269.497C231.001 270.214 235.948 273.965 238.864 279.652C238.903 279.728 238.947 279.808 238.982 279.888Z" fill="#3B82F6"/>
<path d="M221.61 264.171C229.822 263.997 236.371 257.167 236.237 248.914C236.103 240.662 229.337 234.113 221.125 234.286C212.914 234.46 206.365 241.291 206.499 249.543C206.633 257.795 213.399 264.345 221.61 264.171Z" fill="#2F2E41"/>
<path d="M221.541 265.57C227.653 265.441 232.527 260.357 232.427 254.215C232.328 248.073 227.292 243.198 221.18 243.328C215.068 243.457 210.194 248.541 210.294 254.683C210.394 260.825 215.429 265.699 221.541 265.57Z" fill="#9F616A"/>
<path d="M211.069 247.65C213.624 249.345 216.637 250.211 219.704 250.134C218.622 250.919 217.385 251.46 216.077 251.72C220.17 252.512 224.386 252.446 228.461 251.528C229.368 251.362 230.241 251.041 231.041 250.579C231.439 250.345 231.784 250.03 232.054 249.654C232.324 249.278 232.512 248.85 232.606 248.397C232.852 246.833 231.62 245.443 230.348 244.516C228.4 243.119 226.165 242.175 223.805 241.753C221.445 241.332 219.018 241.442 216.701 242.077C215.156 242.423 213.758 243.254 212.71 244.448C211.742 245.693 211.481 247.588 212.442 248.83L211.069 247.65Z" fill="#2F2E41"/>
<path d="M221.891 224.575C213.864 224.754 206.221 228.124 200.637 233.948C195.054 239.771 191.986 247.572 192.107 255.639C192.148 258.099 192.489 260.544 193.122 262.919C193.186 263.16 193.251 263.407 193.323 263.648C195.179 270.044 199.078 275.641 204.42 279.576C209.762 283.511 216.25 285.566 222.888 285.426C229.525 285.286 235.942 282.957 241.153 278.799C246.363 274.641 250.078 268.884 251.725 262.413C251.786 262.166 251.845 261.925 251.899 261.676C252.924 257.171 252.918 252.495 251.88 248.003C250.843 243.51 248.802 239.319 245.911 235.745C243.02 232.17 239.356 229.308 235.194 227.372C231.033 225.437 226.484 224.481 221.891 224.575ZM251.206 261.691C251.149 261.935 251.09 262.184 251.024 262.428C249.386 268.716 245.748 274.303 240.666 278.336C235.584 282.368 229.336 284.625 222.876 284.762C216.417 284.898 210.1 282.907 204.89 279.092C199.68 275.277 195.864 269.848 194.022 263.633C193.949 263.391 193.88 263.15 193.814 262.904C193.168 260.532 192.821 258.086 192.78 255.625C192.717 251.411 193.545 247.227 195.21 243.351C196.875 239.474 199.339 235.994 202.439 233.14C205.538 230.286 209.202 228.123 213.189 226.796C217.175 225.468 221.393 225.005 225.562 225.438C229.732 225.871 233.758 227.19 237.374 229.307C240.99 231.424 244.114 234.291 246.538 237.719C248.963 241.147 250.633 245.056 251.437 249.189C252.242 253.321 252.163 257.583 251.206 261.691Z" fill="#3F3D56"/>
<path d="M228.939 225.745C228.899 225.691 228.862 225.635 228.83 225.576C228.742 225.418 228.686 225.243 228.666 225.063C228.645 224.882 228.66 224.699 228.71 224.525L232.582 210.819C232.598 210.761 232.599 210.7 232.584 210.641C232.569 210.583 232.54 210.53 232.498 210.487C232.457 210.444 232.405 210.413 232.348 210.397C232.29 210.381 232.23 210.38 232.172 210.395L221.51 213.173C221.232 213.244 220.94 213.227 220.674 213.122C220.407 213.018 220.18 212.832 220.025 212.59C219.869 212.349 219.793 212.064 219.806 211.775C219.819 211.487 219.921 211.209 220.098 210.981L241.401 183.513C241.569 183.296 241.798 183.135 242.057 183.049C242.316 182.963 242.594 182.957 242.856 183.031C243.117 183.105 243.351 183.256 243.527 183.465C243.702 183.674 243.812 183.931 243.842 184.204L247.628 218.774C247.659 219.061 247.6 219.35 247.46 219.603C247.32 219.855 247.106 220.057 246.847 220.181C246.588 220.305 246.297 220.344 246.016 220.293C245.735 220.242 245.477 220.104 245.278 219.897L237.642 211.949C237.601 211.906 237.548 211.874 237.491 211.858C237.433 211.841 237.372 211.841 237.314 211.856C237.256 211.871 237.203 211.901 237.16 211.943C237.117 211.986 237.085 212.039 237.069 212.097L233.197 225.803C233.097 226.156 232.862 226.455 232.544 226.635C232.227 226.815 231.852 226.861 231.502 226.762L229.651 226.234C229.367 226.153 229.117 225.981 228.94 225.744L228.939 225.745Z" fill="#3B82F6"/>
<path d="M163.036 221.628H167.762V227.149H163.036V221.628Z" fill="#ED9DA0"/>
<path d="M154.304 231.808C154.705 232.119 156.29 233.182 156.681 233.405C156.822 233.486 156.968 233.566 157.113 233.647C158.232 234.253 159.413 234.735 160.634 235.087C161.226 235.26 161.828 235.396 162.436 235.494C162.939 235.579 163.446 235.639 163.958 235.675C164.324 235.701 164.689 235.713 165.056 235.713C166.523 235.712 167.983 235.509 169.395 235.11C169.768 235.01 170.133 234.891 170.499 234.76C172.327 234.098 174.044 233.158 175.591 231.972C175.736 231.865 175.881 231.749 176.026 231.638C176.241 231.469 176.452 231.292 176.66 231.108C176.559 230.901 176.451 230.697 176.34 230.498C173.889 225.994 170.263 223.247 166.367 222.948C162.47 222.649 158.671 224.82 155.92 228.923C155.436 229.645 154.999 230.396 154.609 231.174C154.503 231.382 154.402 231.592 154.304 231.808Z" fill="#3B82F6"/>
<path d="M164.539 221.572C158.261 221.572 153.171 216.433 153.171 210.094C153.171 203.755 158.261 198.617 164.539 198.617C170.818 198.617 175.908 203.755 175.908 210.094C175.908 216.433 170.818 221.572 164.539 221.572Z" fill="#2F2E41"/>
<path d="M165.573 222.636C160.9 222.636 157.111 218.811 157.111 214.093C157.111 209.375 160.9 205.55 165.573 205.55C170.246 205.55 174.034 209.375 174.034 214.093C174.034 218.811 170.246 222.636 165.573 222.636Z" fill="#ED9DA0"/>
<path d="M156.683 208.719C158.617 210.064 160.911 210.78 163.26 210.771C162.422 211.357 161.468 211.753 160.465 211.932C163.587 212.608 166.813 212.626 169.943 211.985C170.639 211.873 171.31 211.64 171.927 211.298C172.235 211.124 172.503 210.887 172.714 210.602C172.925 210.317 173.074 209.991 173.152 209.644C173.36 208.444 172.434 207.354 171.472 206.62C169.999 205.513 168.301 204.751 166.5 204.388C164.699 204.025 162.841 204.07 161.06 204.521C159.873 204.762 158.793 205.379 157.976 206.281C157.22 207.224 156.997 208.678 157.717 209.649L156.683 208.719Z" fill="#2F2E41"/>
<path d="M163.351 188.723C163.537 188.709 163.725 188.697 163.912 188.689C164.29 188.669 164.672 188.661 165.056 188.661C168.877 188.661 172.64 189.61 176.012 191.424C179.384 193.238 182.263 195.861 184.395 199.063C186.526 202.265 187.845 205.947 188.235 209.784C188.626 213.622 188.075 217.497 186.632 221.07C186.557 221.26 186.478 221.451 186.396 221.636C184.468 226.045 181.254 229.756 177.183 232.273L177.034 232.361C176.908 232.437 176.785 232.511 176.661 232.579C176.451 232.706 176.24 232.825 176.027 232.941C175.881 233.018 175.735 233.094 175.592 233.168C173.975 234.002 172.265 234.639 170.499 235.065C170.134 235.156 169.769 235.235 169.396 235.304C167.966 235.578 166.513 235.715 165.057 235.715C164.69 235.715 164.325 235.706 163.958 235.689C163.447 235.667 162.939 235.624 162.437 235.568C161.829 235.5 161.228 235.407 160.634 235.29C159.437 235.057 158.26 234.729 157.114 234.31C156.968 234.254 156.822 234.2 156.682 234.143C156.289 233.993 155.908 233.832 155.529 233.659C155.114 233.468 154.705 233.267 154.303 233.056C150.273 230.924 146.941 227.658 144.712 223.654C144.702 223.632 144.691 223.611 144.678 223.591C142.78 220.138 141.774 216.258 141.752 212.308C141.731 208.359 142.694 204.468 144.555 200.994C146.415 197.52 149.113 194.575 152.398 192.43C155.683 190.286 159.449 189.012 163.351 188.725L163.351 188.723ZM142.673 216.504C143.124 218.88 143.945 221.168 145.105 223.284C145.125 223.321 145.144 223.357 145.164 223.392C147.347 227.338 150.632 230.548 154.609 232.624C155.007 232.833 155.41 233.03 155.818 233.213C156.157 233.366 156.505 233.513 156.857 233.649C157.003 233.705 157.154 233.765 157.303 233.816C158.293 234.181 159.309 234.474 160.34 234.693C161.105 234.858 161.878 234.981 162.655 235.062C163.135 235.116 163.62 235.152 164.111 235.169C164.425 235.184 164.739 235.192 165.056 235.192C166.465 235.193 167.87 235.06 169.255 234.796C170.097 234.64 170.93 234.434 171.748 234.179C172.995 233.791 174.207 233.295 175.37 232.698C175.504 232.627 175.639 232.554 175.771 232.482C175.96 232.38 176.153 232.276 176.338 232.165C176.48 232.086 176.618 232.001 176.756 231.919C176.837 231.871 176.916 231.823 176.997 231.771C180.872 229.353 183.946 225.825 185.827 221.636C185.911 221.449 185.992 221.259 186.071 221.07C187.521 217.574 188.092 213.77 187.735 209.997C187.378 206.224 186.103 202.599 184.023 199.443C181.944 196.288 179.124 193.7 175.815 191.91C172.506 190.12 168.81 189.184 165.056 189.183C164.672 189.183 164.291 189.192 163.912 189.214C163.723 189.22 163.534 189.234 163.351 189.248C160.15 189.493 157.037 190.418 154.214 191.961C151.392 193.504 148.924 195.632 146.972 198.205C145.02 200.777 143.628 203.737 142.888 206.89C142.147 210.044 142.074 213.319 142.673 216.503L142.673 216.504Z" fill="#3F3D56"/>
<path d="M170.297 198.775C170.419 197.477 171.995 196.677 173.226 197.07C174.457 197.463 175.268 198.715 175.512 199.996C175.63 200.535 175.641 201.093 175.544 201.636C175.448 202.18 175.246 202.699 174.951 203.164C174.646 203.623 174.216 203.984 173.714 204.204C173.211 204.424 172.657 204.494 172.116 204.405C170.898 204.142 170.053 202.941 169.812 201.707C169.57 200.473 169.812 199.2 170.048 197.966L170.297 198.775Z" fill="#2F2E41"/>
<path d="M152.954 200.63C153.076 199.331 154.652 198.531 155.883 198.924C157.114 199.317 157.924 200.569 158.169 201.85C158.286 202.39 158.297 202.947 158.201 203.491C158.105 204.035 157.903 204.554 157.608 205.019C157.303 205.478 156.873 205.839 156.371 206.059C155.868 206.278 155.314 206.348 154.773 206.259C153.555 205.997 152.71 204.795 152.468 203.561C152.227 202.327 152.468 201.054 152.705 199.82L152.954 200.63Z" fill="#2F2E41"/>
<path d="M182.214 195.178C182.265 195.178 182.317 195.174 182.368 195.166C182.506 195.146 182.638 195.099 182.757 195.027C182.876 194.955 182.98 194.86 183.063 194.748L189.566 185.941C189.593 185.904 189.63 185.875 189.672 185.857C189.714 185.838 189.761 185.832 189.806 185.837C189.852 185.843 189.895 185.86 189.932 185.888C189.969 185.916 189.998 185.953 190.016 185.995L193.35 193.871C193.437 194.075 193.585 194.248 193.774 194.363C193.963 194.479 194.183 194.531 194.403 194.514C194.624 194.497 194.833 194.411 195.002 194.267C195.171 194.124 195.291 193.931 195.346 193.715L201.999 167.715C202.052 167.51 202.043 167.293 201.973 167.093C201.903 166.893 201.776 166.718 201.608 166.592C201.439 166.465 201.237 166.391 201.027 166.381C200.817 166.371 200.609 166.424 200.429 166.533L177.649 180.39C177.46 180.505 177.311 180.677 177.224 180.882C177.136 181.087 177.115 181.314 177.161 181.531C177.208 181.749 177.322 181.947 177.485 182.096C177.649 182.246 177.855 182.34 178.074 182.365L186.498 183.351C186.544 183.357 186.587 183.374 186.624 183.402C186.66 183.43 186.689 183.467 186.708 183.509C186.726 183.552 186.733 183.599 186.727 183.645C186.722 183.691 186.705 183.735 186.678 183.772L180.176 192.578C180.009 192.806 179.937 193.09 179.978 193.371C180.018 193.651 180.167 193.904 180.391 194.073L181.582 194.97C181.765 195.106 181.987 195.18 182.215 195.178L182.214 195.178Z" fill="#3B82F6"/>
<path d="M303.771 239.274C314.262 239.274 322.767 230.688 322.767 220.097C322.767 209.505 314.262 200.919 303.771 200.919C293.28 200.919 284.776 209.505 284.776 220.097C284.776 230.688 293.28 239.274 303.771 239.274Z" fill="white"/>
<path d="M307.018 225.095H300.575V231.099H307.018V225.095Z" fill="#ED9DA0"/>
<path d="M313.923 235.475C307.923 240.109 300.267 240.256 294.147 235.856C294.179 235.782 294.214 235.707 294.251 235.635C296.209 231.377 299.906 228.705 303.942 228.627C307.978 228.549 311.744 231.077 313.815 235.258C313.828 235.28 313.84 235.304 313.852 235.326C313.875 235.373 313.9 235.425 313.923 235.475Z" fill="#3B82F6"/>
<path d="M312.538 216.44C312.528 218.608 311.774 220.706 310.405 222.376C309.036 224.046 307.136 225.185 305.029 225.6C302.921 226.016 300.736 225.681 298.846 224.654C296.955 223.626 295.475 221.969 294.658 219.964C293.841 217.959 293.737 215.731 294.364 213.657C294.991 211.584 296.31 209.794 298.097 208.592C299.884 207.389 302.028 206.849 304.165 207.063C306.302 207.277 308.299 208.231 309.817 209.764C310.683 210.642 311.369 211.683 311.836 212.829C312.303 213.974 312.542 215.202 312.538 216.44Z" fill="#2F2E41"/>
<path d="M310.507 222.291C310.401 222.563 310.278 222.827 310.139 223.084C309.272 224.68 307.825 225.873 306.102 226.41C304.38 226.947 302.518 226.787 300.91 225.962C299.303 225.138 298.077 223.714 297.491 221.992C296.905 220.271 297.006 218.387 297.772 216.739C298.538 215.092 299.909 213.81 301.595 213.165C303.281 212.52 305.149 212.563 306.805 213.284C308.46 214.006 309.772 215.35 310.463 217.031C311.154 218.712 311.17 220.598 310.507 222.291Z" fill="#ED9DA0"/>
<path d="M317.615 206.948C317.468 206.786 317.315 206.627 317.157 206.472C314.494 203.808 311.11 202 307.431 201.275C303.752 200.55 299.942 200.94 296.482 202.396C293.023 203.853 290.067 206.31 287.988 209.459C285.909 212.609 284.8 216.308 284.8 220.093C284.8 223.878 285.909 227.577 287.988 230.727C290.067 233.876 293.023 236.333 296.482 237.79C299.942 239.246 303.752 239.636 307.431 238.911C311.11 238.186 314.494 236.378 317.157 233.714C317.312 233.558 317.467 233.401 317.615 233.241C320.934 229.684 322.783 224.981 322.783 220.094C322.783 215.207 320.934 210.504 317.615 206.947V206.948ZM317.157 233.107C316.152 234.158 315.03 235.087 313.813 235.876C313.81 235.878 313.808 235.878 313.806 235.881C310.897 237.761 307.527 238.786 304.073 238.841C300.62 238.896 297.219 237.98 294.252 236.194C294.25 236.194 294.25 236.191 294.248 236.191C291.972 234.822 290.013 232.976 288.502 230.78C286.991 228.583 285.963 226.085 285.486 223.454C285.009 220.823 285.095 218.12 285.738 215.525C286.382 212.93 287.567 210.504 289.215 208.41C290.862 206.316 292.935 204.602 295.293 203.382C297.651 202.163 300.24 201.467 302.886 201.34C305.532 201.214 308.175 201.66 310.636 202.649C313.097 203.639 315.321 205.148 317.157 207.076C317.315 207.237 317.467 207.404 317.615 207.572C320.67 211.012 322.359 215.47 322.359 220.091C322.359 224.711 320.67 229.169 317.615 232.609C317.468 232.779 317.315 232.945 317.157 233.107Z" fill="#3F3D56"/>
<path d="M310.775 208.617C310.315 207.829 309.649 207.184 308.849 206.755C308.049 206.325 307.147 206.127 306.243 206.182C305.297 206.302 304.374 206.563 303.504 206.956L298.996 208.732C297.83 209.191 296.553 209.754 296.046 210.91C295.576 211.983 295.927 213.222 296.282 214.34L297.968 219.65C298.155 218.448 298.476 217.271 298.924 216.142C299.38 215.005 300.203 214.057 301.26 213.453C302.431 212.846 303.811 212.859 305.125 212.923C306.987 213.013 309.011 213.253 310.334 214.578C311.036 215.331 311.512 216.27 311.707 217.285C311.898 218.295 311.995 219.32 311.995 220.349C312.758 219.024 313.401 217.632 313.916 216.19C314.339 215.116 314.581 213.978 314.63 212.824C314.674 211.659 314.291 210.519 313.555 209.622C313.181 209.183 312.693 208.859 312.147 208.685C311.6 208.512 311.016 208.495 310.461 208.639" fill="#2F2E41"/>
<path d="M290.721 205.912C290.679 205.912 290.637 205.909 290.595 205.903C290.483 205.887 290.375 205.848 290.278 205.79C290.181 205.731 290.096 205.653 290.029 205.562L284.726 198.379C284.704 198.349 284.674 198.325 284.639 198.31C284.605 198.295 284.567 198.29 284.53 198.294C284.493 198.299 284.457 198.313 284.427 198.335C284.397 198.358 284.374 198.388 284.359 198.423L281.64 204.846C281.568 205.012 281.447 205.152 281.293 205.246C281.14 205.339 280.961 205.382 280.781 205.368C280.602 205.354 280.432 205.284 280.294 205.168C280.156 205.051 280.058 204.894 280.013 204.718L274.585 183.514C274.542 183.346 274.55 183.17 274.607 183.007C274.664 182.844 274.767 182.701 274.905 182.598C275.042 182.495 275.207 182.435 275.378 182.426C275.549 182.418 275.719 182.461 275.866 182.55L294.446 193.853C294.6 193.947 294.721 194.087 294.792 194.253C294.863 194.42 294.881 194.605 294.843 194.783C294.804 194.96 294.712 195.121 294.579 195.243C294.446 195.365 294.278 195.442 294.099 195.463L287.229 196.267C287.191 196.272 287.156 196.286 287.126 196.309C287.096 196.331 287.072 196.361 287.057 196.396C287.043 196.431 287.037 196.469 287.041 196.507C287.046 196.544 287.06 196.58 287.082 196.61L292.385 203.793C292.521 203.978 292.58 204.211 292.547 204.439C292.514 204.668 292.393 204.874 292.209 205.012L291.238 205.743C291.089 205.855 290.908 205.915 290.722 205.914L290.721 205.912Z" fill="#3B82F6"/>
<path d="M247.702 160.762C230.966 160.762 212.779 158.251 194.715 153.423C172.376 147.452 151.893 138.44 135.481 127.36L135.967 126.625C152.303 137.652 172.692 146.623 194.939 152.569C215.043 157.943 235.298 160.433 253.507 159.776L253.538 160.658C251.615 160.728 249.67 160.763 247.702 160.762Z" fill="#090814"/>
<path d="M245.197 46.0779C239.761 44.291 234.172 42.6277 228.58 41.1329C196.407 32.5333 164.78 29.4805 137.119 32.3081L137.031 31.4299C164.795 28.5962 196.528 31.6551 228.804 40.2827C234.41 41.7817 240.016 43.4475 245.468 45.2416L245.197 46.0779Z" fill="#090814"/>
<path d="M97.7682 114.777C84.3587 101.449 78.6947 87.5452 81.8203 75.6262C85.8296 60.3307 103.649 49.7549 130.705 46.6108L130.805 47.4885C104.125 50.5887 86.5801 60.9265 82.6678 75.8496C79.626 87.449 85.2081 101.05 98.3837 114.146L97.7682 114.777Z" fill="#090814"/>
<path d="M279.633 155.285L279.353 154.449C294.321 149.336 303.683 141.109 306.427 130.645C309.915 117.344 302.337 101.908 285.092 87.1829C267.758 72.3822 242.762 60.0999 214.706 52.603L214.929 51.751C243.106 59.2825 268.224 71.6269 285.655 86.5104C303.173 101.469 310.852 117.223 307.271 130.872C304.45 141.633 294.893 150.075 279.633 155.285Z" fill="#090814"/>
<path d="M130.789 157.763C97.9034 143.035 72.5625 123.933 59.4351 103.969L60.1639 103.482C73.2008 123.309 98.4085 142.3 131.143 156.958L130.789 157.763Z" fill="#090814"/>
<path d="M267.777 163.572C270.885 163.572 273.403 161.029 273.403 157.892C273.403 154.755 270.885 152.211 267.777 152.211C264.67 152.211 262.151 154.755 262.151 157.892C262.151 161.029 264.67 163.572 267.777 163.572Z" fill="#E6E6E6"/>
<path d="M146.961 131.481L146.875 131.466C146.996 131.39 147.111 131.303 147.217 131.207L146.961 131.481Z" fill="white"/>
<path d="M318.789 44.1624L318.876 44.1478C318.754 44.0719 318.64 43.985 318.534 43.8882L318.789 44.1624Z" fill="white"/>
<path d="M111.047 19.3723L110.96 19.3577C111.082 19.2818 111.196 19.1949 111.302 19.0981L111.047 19.3723Z" fill="white"/>
<path d="M141.401 68.7223C141.07 68.7222 140.74 68.6961 140.413 68.6444L103.697 62.8286C102.853 62.6949 102.045 62.3922 101.319 61.9383C100.594 61.4843 99.9656 60.8883 99.4717 60.1854C98.9778 59.4825 98.6282 58.6869 98.4436 57.8455C98.259 57.0041 98.2431 56.1338 98.3968 55.2861L106.057 13.0487C106.351 11.401 107.27 9.93405 108.618 8.95903C109.966 7.98401 111.638 7.57768 113.278 7.82624L149.396 13.2015C150.237 13.3268 151.045 13.6201 151.773 14.0643C152.5 14.5085 153.132 15.0946 153.633 15.7884C154.133 16.4822 154.492 17.2698 154.687 18.1051C154.883 18.9404 154.911 19.8067 154.772 20.6533L147.71 63.3295C147.456 64.8351 146.683 66.2018 145.528 67.1885C144.374 68.1753 142.911 68.7187 141.398 68.7229L141.401 68.7223Z" fill="#D6D6E3"/>
<path d="M142.844 31.5804C142.731 31.5804 142.617 31.5696 142.505 31.5482L113.717 26.1261C113.238 26.0359 112.815 25.7575 112.539 25.352C112.264 24.9464 112.159 24.4471 112.249 23.9637C112.338 23.4804 112.614 23.0526 113.015 22.7746C113.417 22.4965 113.912 22.391 114.39 22.4811L143.179 27.9032C143.629 27.9882 144.031 28.2395 144.306 28.608C144.582 28.9765 144.712 29.4357 144.67 29.8956C144.628 30.3556 144.418 30.7832 144.08 31.0948C143.742 31.4064 143.302 31.5796 142.844 31.5804Z" fill="#52525B"/>
<path d="M140.129 41.2838C140.045 41.284 139.962 41.2783 139.879 41.2667L112.278 37.472C111.798 37.4025 111.365 37.1442 111.073 36.7536C110.781 36.3629 110.654 35.8715 110.719 35.3866C110.785 34.9017 111.037 34.4626 111.422 34.1651C111.807 33.8676 112.293 33.7358 112.774 33.7985L140.375 37.5932C140.836 37.6557 141.258 37.8931 141.552 38.2573C141.847 38.6215 141.994 39.0853 141.963 39.5547C141.932 40.024 141.725 40.4639 141.384 40.7851C141.044 41.1062 140.595 41.2847 140.129 41.2844V41.2838Z" fill="#52525B"/>
<path d="M129.049 51.2441C128.95 51.2438 128.851 51.2357 128.753 51.2197L110.099 48.1718C109.861 48.1329 109.633 48.047 109.428 47.9191C109.222 47.7912 109.044 47.6237 108.903 47.4262C108.618 47.0274 108.502 46.5307 108.58 46.0453C108.658 45.56 108.923 45.1257 109.318 44.8381C109.713 44.5505 110.205 44.433 110.686 44.5116L129.341 47.5596C129.795 47.6347 130.206 47.8798 130.49 48.2462C130.774 48.6126 130.912 49.0735 130.875 49.5374C130.838 50.0013 130.63 50.4344 130.292 50.7505C129.953 51.0667 129.51 51.2428 129.049 51.2441Z" fill="#52525B"/>
<path d="M132.672 182.61C131.185 182.606 129.747 182.079 128.603 181.121C127.459 180.162 126.681 178.832 126.403 177.358L118.457 135.177C118.141 133.532 118.473 131.828 119.382 130.426C120.292 129.025 121.707 128.037 123.327 127.673L158.935 119.53C159.764 119.34 160.622 119.319 161.459 119.468C162.296 119.617 163.095 119.934 163.81 120.398C164.525 120.863 165.141 121.467 165.622 122.175C166.102 122.882 166.439 123.68 166.611 124.52L175.274 166.894C175.609 168.56 175.283 170.292 174.364 171.717C173.446 173.142 172.01 174.145 170.366 174.51L134.043 182.46C133.592 182.56 133.133 182.61 132.672 182.61Z" fill="#D6D6E3"/>
<path d="M129.936 144.614C129.478 144.614 129.037 144.44 128.699 144.129C128.362 143.817 128.151 143.39 128.109 142.93C128.067 142.47 128.197 142.011 128.473 141.642C128.749 141.273 129.151 141.022 129.6 140.937L158.387 135.508C158.624 135.463 158.868 135.466 159.104 135.516C159.339 135.566 159.563 135.663 159.762 135.801C159.961 135.938 160.131 136.114 160.263 136.318C160.395 136.522 160.485 136.75 160.529 136.99C160.574 137.229 160.571 137.475 160.521 137.713C160.471 137.951 160.376 138.177 160.239 138.378C160.103 138.579 159.929 138.751 159.727 138.884C159.525 139.016 159.299 139.108 159.062 139.153L130.276 144.583C130.164 144.604 130.05 144.615 129.936 144.615L129.936 144.614Z" fill="#52525B"/>
<path d="M132.558 155.739C132.108 155.738 131.674 155.57 131.339 155.268C131.003 154.966 130.789 154.55 130.737 154.099C130.685 153.648 130.799 153.193 131.056 152.821C131.314 152.449 131.698 152.185 132.136 152.08L159.234 145.568C159.469 145.509 159.714 145.497 159.955 145.534C160.195 145.57 160.425 145.655 160.633 145.782C160.841 145.91 161.021 146.077 161.164 146.276C161.307 146.474 161.41 146.699 161.466 146.938C161.522 147.176 161.531 147.424 161.492 147.666C161.453 147.908 161.366 148.14 161.238 148.348C161.109 148.556 160.941 148.737 160.743 148.879C160.545 149.021 160.321 149.122 160.084 149.176L132.986 155.688C132.846 155.721 132.703 155.738 132.559 155.739H132.558Z" fill="#52525B"/>
<path d="M134.395 166.501C133.942 166.5 133.505 166.33 133.168 166.023C132.832 165.716 132.62 165.294 132.573 164.839C132.526 164.384 132.647 163.927 132.914 163.557C133.18 163.186 133.573 162.929 134.017 162.833L152.504 158.88C152.98 158.778 153.477 158.872 153.885 159.14C154.294 159.408 154.58 159.828 154.681 160.309C154.782 160.79 154.689 161.292 154.424 161.704C154.158 162.117 153.741 162.405 153.265 162.507L134.778 166.46C134.652 166.487 134.524 166.501 134.395 166.501Z" fill="#52525B"/>
<path d="M323.64 115.83C324.731 115.826 325.787 115.441 326.628 114.741C327.47 114.04 328.046 113.067 328.257 111.986L336.487 69.1271C336.617 68.4484 336.599 67.7491 336.434 67.0782C336.269 66.4073 335.96 65.781 335.53 65.2429C335.1 64.7049 334.559 64.2682 333.944 63.9633C333.33 63.6585 332.657 63.4929 331.972 63.478L292.202 62.615C291.088 62.5847 290 62.9573 289.134 63.6655C288.269 64.3737 287.682 65.3709 287.481 66.4772L279.681 108.041C279.556 108.706 279.574 109.389 279.732 110.047C279.891 110.704 280.186 111.319 280.6 111.852C281.013 112.384 281.534 112.821 282.128 113.134C282.722 113.446 283.376 113.627 284.045 113.664L323.386 115.823C323.471 115.827 323.556 115.83 323.64 115.83Z" fill="#3B82F6"/>
<path d="M319.388 88.5498C319.277 89.351 319.095 90.1404 318.844 90.9086C318.449 91.8796 317.927 92.7931 317.293 93.625C316.076 95.2319 314.939 95.7339 313.843 97.3199C313.679 97.4138 313.514 97.4957 313.344 97.5752C313.007 97.7322 312.838 98.7101 312.486 98.8324C312.486 98.8324 312.481 98.8317 312.479 98.8363C312.354 98.9949 312.269 99.1816 312.231 99.3805L312.23 99.3853C311.93 100.338 311.512 102.304 311.184 103.456C311.142 103.595 311.104 103.723 311.065 103.835C310.966 104.138 310.881 104.328 310.812 104.343C309.97 104.54 309.689 104.065 308.797 104.055C308.317 104.051 305.865 104.096 305.376 104.026C303.99 103.828 303.306 103.245 302.255 102.575C302.181 102.53 302.108 102.483 302.03 102.435C302.002 102.419 301.978 102.402 301.951 102.387C301.648 102.203 301.823 98.691 301.702 97.3352C301.701 97.334 301.701 97.3329 301.701 97.3317C301.702 97.3306 301.702 97.3295 301.702 97.3285C301.677 97.0468 301.639 96.8596 301.582 96.8145L301.539 96.7807C301.355 96.6372 301.178 96.4836 301.005 96.3251C300.119 94.225 298.146 92.066 297.46 88.8985C297.299 87.743 297.296 86.5711 297.449 85.4154C297.63 83.9476 298.099 82.5314 298.829 81.2493C299.558 79.9672 300.534 78.8447 301.699 77.9471C302.864 77.0494 304.195 76.3946 305.615 76.0207C307.034 75.6468 308.514 75.5613 309.969 75.769C311.423 75.9768 312.823 76.4738 314.086 77.231C315.349 77.9883 316.451 78.9907 317.328 80.18C318.204 81.3693 318.838 82.7217 319.191 84.1586C319.545 85.5955 319.612 87.0881 319.388 88.5498Z" fill="#E6E6E6"/>
<path d="M318.847 90.9124C318.452 91.883 317.93 92.7961 317.296 93.6277C316.079 95.2346 314.943 95.7366 313.846 97.3226C312.835 98.9374 312.108 100.717 311.699 102.582C311.656 102.739 311.673 102.928 311.63 103.082C311.53 103.424 311.601 103.371 311.347 103.656C311.243 103.697 311.195 103.612 311.184 103.459C311.186 103.077 311.234 102.696 311.327 102.325C311.528 101.317 311.831 100.333 312.23 99.3883L312.231 99.3835C312.312 99.1949 312.396 99.0135 312.479 98.8392C313.955 95.8074 316.067 94.6397 317.163 93.0991C322.921 85.0255 315.855 74.0858 306.122 76.1492C305.601 76.2589 305.612 76.3704 305.584 76.3793C304.876 76.5134 304.185 76.7228 303.521 77.0038C299.027 79.2305 296.785 84.5881 298.001 89.4428C298.661 92.0693 300.568 93.77 301.537 96.7859C301.594 96.9611 301.649 97.1437 301.701 97.3337C301.7 97.3347 301.7 97.3358 301.7 97.3369C301.699 97.3381 301.7 97.3392 301.7 97.3403C302.121 99.0061 302.234 100.735 302.031 102.441C302.027 102.471 302.028 102.501 302.024 102.529C302.103 102.547 302.181 102.563 302.256 102.581C303.431 102.854 304.174 103.156 304.602 103.006L305.034 103.113C305.151 103.339 307.632 103.439 308.024 103.49L308.122 103.504C309.096 103.668 310.078 103.78 311.063 103.838C311.113 103.841 311.165 103.841 311.215 103.842C311.279 103.866 311.33 103.914 311.359 103.975C311.389 104.036 311.394 104.107 311.374 104.171C311.23 104.609 310.965 104.996 310.61 105.286C310.113 105.491 302.616 104.56 301.972 103.951C301.784 103.774 301.661 103.539 301.623 103.283C301.585 103.027 301.634 102.766 301.763 102.543C301.758 102.478 301.508 102.261 301.505 102.199C301.478 101.412 301.905 99.4899 301.291 97.164C301.217 96.8786 301.122 96.599 301.007 96.3276C300.118 94.2278 298.146 92.0688 297.461 88.899C297.109 87.2 297.146 85.4431 297.571 83.7629C298.554 79.5792 302.761 75.9262 306.981 75.4546C308.92 75.2189 310.887 75.4951 312.69 76.2561C314.493 77.0171 316.07 78.2367 317.267 79.7953C318.463 81.354 319.238 83.1982 319.515 85.1471C319.792 87.096 319.562 89.0827 318.847 90.9124Z" fill="#010001"/>
<path d="M310.668 105.548C311.283 106.327 310.872 106.502 310.433 107.246C310.028 107.092 302.835 106.533 301.894 106.028C301.744 105.941 301.619 105.817 301.529 105.668C301.44 105.519 301.389 105.349 301.383 105.175C301.376 105.001 301.414 104.828 301.492 104.673C301.57 104.518 301.686 104.385 301.829 104.288C304.719 105.036 307.683 105.459 310.665 105.548L310.668 105.548Z" fill="#010001"/>
<path d="M310.786 107.609C310.979 108.272 310.392 108.578 310.082 109.035L309.572 109.064L301.739 107.846C301.28 107.687 301.073 106.979 301.009 106.52C301.009 106.459 301.027 106.4 301.061 106.35C301.095 106.301 301.144 106.262 301.2 106.241L301.876 106.134C304.44 106.715 307.033 107.153 309.644 107.446C309.832 107.369 310.036 107.344 310.237 107.372C310.437 107.401 310.627 107.482 310.786 107.609Z" fill="#010001"/>
<path d="M305.499 98.534L305.291 98.5042L305.76 95.1131L303.08 86.466L303.279 86.4041L305.976 95.0923L305.499 98.534Z" fill="#0F0F10"/>
<path d="M310.73 69.982C311.19 69.7532 310.73 73.1405 310.585 73.2323C310.035 73.579 310.575 70.0589 310.73 69.982Z" fill="#F2F2F2"/>
<path d="M307.31 69.8039C307.672 69.6362 307.991 72.9508 307.919 73.1094C307.507 74.0133 307.141 69.8823 307.31 69.8039Z" fill="#F2F2F2"/>
<path d="M314.064 70.7604C314.474 70.712 313.377 73.7344 313.279 73.8678C312.343 75.1308 313.842 70.7901 314.064 70.7604Z" fill="#F2F2F2"/>
<path d="M308.69 98.9901L309.043 95.1946L309.049 95.1807L312.226 87.1187L312.419 87.1967L309.248 95.2447L308.898 99.0105L308.69 98.9901Z" fill="#0F0F10"/>
<path d="M255.051 54.4491C258.158 54.4491 260.677 51.9061 260.677 48.769C260.677 45.632 258.158 43.0889 255.051 43.0889C251.944 43.0889 249.425 45.632 249.425 48.769C249.425 51.9061 251.944 54.4491 255.051 54.4491Z" fill="#E6E6E6"/>
<path d="M206.896 56.0033C210.003 56.0033 212.522 53.4603 212.522 50.3232C212.522 47.1862 210.003 44.6431 206.896 44.6431C203.789 44.6431 201.27 47.1862 201.27 50.3232C201.27 53.4603 203.789 56.0033 206.896 56.0033Z" fill="#3B82F6"/>
<path d="M104.955 125.048C108.063 125.048 110.581 122.505 110.581 119.368C110.581 116.231 108.063 113.688 104.955 113.688C101.848 113.688 99.3293 116.231 99.3293 119.368C99.3293 122.505 101.848 125.048 104.955 125.048Z" fill="#3B82F6"/>
<path d="M53.8077 101.967C56.9148 101.967 59.4337 99.4241 59.4337 96.2871C59.4337 93.15 56.9148 90.6069 53.8077 90.6069C50.7005 90.6069 48.1816 93.15 48.1816 96.2871C48.1816 99.4241 50.7005 101.967 53.8077 101.967Z" fill="#E6E6E6"/>
<path d="M47.6643 227.176H64.7161V254.489L45.9251 248.251L47.6643 227.176Z" fill="#ED9DA0"/>
<path d="M62.3903 234.732C52.049 234.732 43.6658 226.268 43.6658 215.827C43.6658 205.387 52.049 196.923 62.3903 196.923C72.7315 196.923 81.1147 205.387 81.1147 215.827C81.1147 226.268 72.7315 234.732 62.3903 234.732Z" fill="#ED9DA0"/>
<path d="M40.2825 531.72H55.6467V553.728H40.2825V531.72Z" fill="#ED9DA0"/>
<path d="M53.9599 566.337C54.0334 566.352 63.8799 567.056 70.6226 567.056C72.2371 567.056 73.6751 567.019 74.7607 566.915C78.8476 566.537 82.7361 563.493 84.6954 561.715C85.124 561.325 85.4222 560.811 85.5487 560.243C85.6752 559.675 85.6237 559.082 85.4015 558.544C85.24 558.158 84.9947 557.813 84.6836 557.535C84.3725 557.256 84.0036 557.052 83.604 556.937L72.8185 553.825L55.3561 541.929L55.1578 542.285C54.2037 543.991 53.4127 545.784 52.7955 547.641C52.6801 547.965 52.6354 548.31 52.6646 548.652C52.6937 548.995 52.796 549.327 52.9643 549.626C53.1636 549.926 53.4437 550.163 53.7716 550.308C53.4562 550.641 52.4654 551.322 49.4135 551.811C44.9594 552.53 44.0204 547.87 43.9839 547.67L43.9545 547.514L43.8227 547.425C41.7046 546.048 40.396 545.417 39.9488 545.551C39.6629 545.633 39.1928 545.773 37.9313 558.47C37.3156 560.445 37.1744 562.54 37.5195 564.582C38.1796 567.626 51.328 566.575 53.9551 566.337H53.9599Z" fill="#090814"/>
<path d="M81.7822 383.496L60.3136 536.549H37.5387L36.5973 388.178C28.7908 363.539 34.9687 339.894 34.9687 339.894L75.2725 341.973L81.7805 383.496L81.7822 383.496Z" fill="#090814"/>
<path d="M45.327 537.072L58.6328 529.316L69.5322 548.376L56.2263 556.132L45.327 537.072Z" fill="#ED9DA0"/>
<path d="M64.8927 566.337C64.9663 566.352 74.8127 567.056 81.5555 567.056C83.1694 567.056 84.608 567.019 85.6936 566.915C89.7804 566.537 93.669 563.493 95.6283 561.715C96.0569 561.325 96.3551 560.811 96.4816 560.243C96.608 559.675 96.5566 559.082 96.3343 558.544C96.1729 558.158 95.9276 557.813 95.6165 557.535C95.3054 557.256 94.9365 557.052 94.5368 556.937L83.7513 553.825L66.2883 541.929L66.0901 542.285C65.136 543.991 64.345 545.784 63.7277 547.641C63.6124 547.965 63.5677 548.31 63.5969 548.652C63.626 548.995 63.7283 549.327 63.8966 549.626C64.0959 549.926 64.376 550.163 64.7039 550.308C64.3885 550.641 63.3977 551.322 60.3458 551.811C55.8918 552.53 54.9527 547.87 54.9162 547.67L54.8868 547.514L54.755 547.425C52.6369 546.048 51.3283 545.417 50.8812 545.551C50.5952 545.633 50.1257 545.773 48.8636 558.47C48.2478 560.445 48.1066 562.54 48.4517 564.582C49.1119 567.626 62.2603 566.575 64.8874 566.337H64.8951H64.8927Z" fill="#090814"/>
<path d="M80.854 382.944L62.8932 536.547H43.8405L35.9468 387.642C29.4158 362.915 34.5841 339.185 34.5841 339.185L75.4098 341.274L80.854 382.944Z" fill="#090814"/>
<path opacity="0.1" d="M24.793 261.682L6.14796 326.031C5.56771 328.034 5.43492 330.142 5.75916 332.204C6.0834 334.265 6.85658 336.228 8.02299 337.951C9.1894 339.675 10.72 341.115 12.5044 342.169C14.2888 343.223 16.2826 343.864 18.342 344.046L38.6875 345.845L24.7924 261.681L24.793 261.682Z" fill="black"/>
<path d="M142.003 263.212L121.597 296.06L117.024 282.13L135.503 253.636C135.647 249.974 136.928 245.911 139.222 242.613C143.236 236.841 148.818 235.592 151.69 239.823C154.561 244.054 153.636 252.161 149.621 257.934C147.327 261.233 144.522 263.046 142.003 263.212L142.003 263.212Z" fill="#ED9DA0"/>
<path d="M135.075 251.266C128.231 251.137 115.579 278.322 115.579 278.322L105.186 273.773L83.8112 264.406L67.4296 256.061L67.5002 256.674C67.4357 256.482 67.3655 256.288 67.2884 256.092C65.5662 251.699 60.5637 246.531 46.3608 247.556L39.6732 254.089L38.7637 254.984C35.8948 254.793 33.0253 255.346 30.3391 256.608C27.2975 258.121 24.2554 260.945 22.8166 266.224C22.071 268.946 22.071 274.575 22.5185 281.727C24.1365 307.62 31.6765 362.667 31.6765 362.667L79.2767 354.868L82.788 354.969C82.788 354.969 83.2055 349.036 83.5785 341.266C83.8095 336.707 84.0182 331.53 84.1376 326.547C84.2195 322.893 84.2422 319.349 84.1899 316.23C84.1825 316.036 84.1825 315.842 84.1751 315.648C84.0335 309.955 83.5711 305.832 82.5798 305.378C82.5798 305.378 85.6589 305.276 90.1023 305.073C100.838 304.575 119.551 303.458 122.22 301.659C125.993 299.124 145.772 265.061 145.772 265.061C145.772 265.061 141.925 251.403 135.074 251.265L135.075 251.266Z" fill="#3B82F6"/>
<path d="M57.621 217.294C48.0305 213.196 49.139 227.903 49.139 227.903L47.3121 231.408L39.2513 215.932C34.4013 200.924 51.3577 192.301 51.3577 192.301C56.8826 185.73 68.0088 193.42 68.0088 193.42C84.0408 189.827 76.2996 203.472 76.2996 203.472C76.2996 203.472 70.8336 203.598 70.8336 208.065C70.8336 212.532 64.8756 212.223 64.8756 212.223L60.2093 220.476L57.6263 217.312V217.297L57.621 217.294Z" fill="#090814"/>
<path d="M24.793 261.682L6.14796 326.031C5.56771 328.034 5.43492 330.142 5.75916 332.204C6.0834 334.265 6.85658 336.228 8.02299 337.951C9.1894 339.675 10.72 341.115 12.5044 342.169C14.2888 343.223 16.2826 343.864 18.342 344.046L38.6875 345.845L24.7924 261.681L24.793 261.682Z" fill="#3B82F6"/>
<path d="M256.18 350.868H163.245C159.297 350.868 156.096 354.1 156.096 358.086C156.096 362.072 159.297 365.303 163.245 365.303H256.18C260.128 365.303 263.329 362.072 263.329 358.086C263.329 354.1 260.128 350.868 256.18 350.868Z" fill="#3B82F6"/>
<path d="M135.408 365.269C142.318 365.269 147.919 359.614 147.919 352.638C147.919 345.662 142.318 340.007 135.408 340.007C128.499 340.007 122.898 345.662 122.898 352.638C122.898 359.614 128.499 365.269 135.408 365.269Z" fill="white"/>
<path d="M135.408 340.908C132.728 340.91 130.132 341.847 128.058 343.561C125.984 345.274 124.561 347.659 124.028 350.311C123.496 352.963 123.889 355.718 125.138 358.112C126.388 360.505 128.419 362.389 130.887 363.444C133.719 364.62 136.897 364.619 139.729 363.442C142.561 362.266 144.819 360.007 146.011 357.159C147.202 354.311 147.232 351.103 146.094 348.232C144.955 345.362 142.74 343.061 139.93 341.831C138.5 341.219 136.962 340.905 135.408 340.908ZM135.408 340.007C137.883 340.007 140.301 340.748 142.359 342.136C144.416 343.524 146.019 345.496 146.966 347.804C147.913 350.112 148.161 352.652 147.678 355.102C147.195 357.552 146.004 359.803 144.254 361.569C142.505 363.336 140.276 364.539 137.849 365.026C135.422 365.513 132.907 365.263 130.621 364.307C128.335 363.351 126.381 361.732 125.006 359.655C123.632 357.578 122.898 355.136 122.898 352.638C122.898 349.288 124.216 346.075 126.562 343.707C128.908 341.338 132.09 340.007 135.408 340.007Z" fill="#090814"/>
<mask id="mask0_4796_7304" style="mask-type:luminance" maskUnits="userSpaceOnUse" x="122" y="339" width="26" height="26">
<path d="M135.408 364.366C142.318 364.366 147.919 358.711 147.919 351.736C147.919 344.76 142.318 339.105 135.408 339.105C128.499 339.105 122.898 344.76 122.898 351.736C122.898 358.711 128.499 364.366 135.408 364.366Z" fill="white"/>
</mask>
<g mask="url(#mask0_4796_7304)">
<path d="M137.475 356.081H133.059L132.536 362.434H137.929L137.475 356.081Z" fill="#ED9DA0"/>
<path d="M143.922 361.758L138.985 359.257L131.393 359.391L124.86 362.767L128.576 381.51L126.97 391.282C133.177 392.88 139.674 392.934 145.905 391.44L145.955 391.428C145.955 391.428 142.264 378.208 143.836 374.174L143.922 361.758Z" fill="#3B82F6"/>
<path d="M129.64 351.767C129.646 350.273 130.238 348.842 131.288 347.788C132.337 346.734 133.758 346.144 135.238 346.147C136.718 346.15 138.136 346.745 139.182 347.803C140.227 348.86 140.815 350.294 140.815 351.788C140.815 353.282 140.227 354.715 139.182 355.773C138.136 356.831 136.718 357.426 135.238 357.429C133.758 357.432 132.337 356.841 131.288 355.788C130.238 354.734 129.646 353.303 129.64 351.809V351.767Z" fill="#ED9DA0"/>
<path d="M133.296 354.54C133.722 354.42 134.157 354.341 134.597 354.305C135.372 354.136 136.061 353.692 136.539 353.054C137.017 352.416 137.252 351.626 137.203 350.827C137.166 350.622 137.163 350.411 137.193 350.204C137.278 349.987 137.424 349.799 137.613 349.666C137.803 349.532 138.028 349.458 138.259 349.454C138.72 349.452 139.18 349.417 139.637 349.348C139.977 349.238 140.283 349.04 140.525 348.774C140.766 348.507 140.935 348.182 141.014 347.83C141.163 347.121 141.085 346.382 140.793 345.719L140.579 346.169C140.356 345.931 140.204 345.634 140.141 345.313C139.954 345.323 139.772 345.381 139.614 345.482C139.456 345.584 139.326 345.724 139.237 345.89C138.961 346.015 138.995 345.377 138.719 345.251C138.595 345.222 138.464 345.24 138.352 345.301C137.745 345.507 137.101 345.198 136.5 344.978C135.458 344.596 134.342 344.467 133.241 344.602C132.503 344.663 131.796 344.933 131.203 345.382C130.754 345.793 130.388 346.289 130.127 346.842C129.373 348.147 128.955 349.622 128.91 351.132C128.924 352.362 129.299 353.561 129.987 354.576C130.346 355.103 131.505 356.931 132.275 356.727C133.243 356.475 132.138 354.999 133.296 354.54Z" fill="#090814"/>
</g>
<path d="M257.171 414.145H164.236C160.288 414.145 157.087 417.376 157.087 421.362C157.087 425.348 160.288 428.58 164.236 428.58H257.171C261.119 428.58 264.32 425.348 264.32 421.362C264.32 417.376 261.119 414.145 257.171 414.145Z" fill="#3B82F6"/>
<path d="M135.408 433.804C142.318 433.804 147.919 428.149 147.919 421.174C147.919 414.198 142.318 408.543 135.408 408.543C128.499 408.543 122.898 414.198 122.898 421.174C122.898 428.149 128.499 433.804 135.408 433.804Z" fill="white"/>
<path d="M135.408 409.443C132.728 409.446 130.132 410.383 128.058 412.096C125.984 413.81 124.561 416.195 124.028 418.846C123.496 421.498 123.889 424.254 125.138 426.647C126.388 429.041 128.419 430.924 130.887 431.979C133.719 433.155 136.897 433.155 139.729 431.978C142.561 430.801 144.819 428.543 146.011 425.695C147.202 422.846 147.232 419.638 146.094 416.768C144.955 413.897 142.74 411.597 139.93 410.366C138.5 409.755 136.962 409.441 135.408 409.443ZM135.408 408.543C137.883 408.543 140.301 409.284 142.359 410.672C144.416 412.059 146.019 414.032 146.966 416.34C147.913 418.648 148.161 421.188 147.678 423.638C147.195 426.088 146.004 428.338 144.254 430.105C142.505 431.871 140.276 433.074 137.849 433.562C135.422 434.049 132.907 433.799 130.621 432.843C128.335 431.887 126.381 430.268 125.006 428.191C123.632 426.114 122.898 423.672 122.898 421.174C122.898 417.824 124.216 414.611 126.562 412.242C128.908 409.874 132.09 408.543 135.408 408.543Z" fill="#090814"/>
<mask id="mask1_4796_7304" style="mask-type:luminance" maskUnits="userSpaceOnUse" x="122" y="407" width="26" height="26">
<path d="M135.408 432.902C142.318 432.902 147.919 427.247 147.919 420.272C147.919 413.296 142.318 407.641 135.408 407.641C128.499 407.641 122.898 413.296 122.898 420.272C122.898 427.247 128.499 432.902 135.408 432.902Z" fill="white"/>
</mask>
<g mask="url(#mask1_4796_7304)">
<path d="M137.475 424.617H133.059L132.536 430.97H137.929L137.475 424.617Z" fill="#ED9DA0"/>
<path d="M143.922 430.294L138.985 427.793L131.393 427.928L124.86 431.303L128.576 450.046L126.97 459.818C133.177 461.416 139.674 461.47 145.905 459.976L145.955 459.964C145.955 459.964 142.264 446.744 143.836 442.71L143.922 430.294Z" fill="#3B82F6"/>
<path d="M129.64 420.303C129.646 418.809 130.238 417.378 131.288 416.324C132.337 415.271 133.758 414.68 135.238 414.683C136.718 414.686 138.136 415.281 139.182 416.339C140.227 417.397 140.815 418.83 140.815 420.324C140.815 421.818 140.227 423.252 139.182 424.309C138.136 425.367 136.718 425.962 135.238 425.965C133.758 425.968 132.337 425.378 131.288 424.324C130.238 423.27 129.646 421.839 129.64 420.345V420.303Z" fill="#ED9DA0"/>
<path d="M133.296 423.076C133.722 422.956 134.157 422.877 134.597 422.841C135.372 422.672 136.061 422.228 136.539 421.59C137.017 420.952 137.252 420.162 137.203 419.363C137.166 419.158 137.163 418.947 137.193 418.74C137.278 418.523 137.424 418.335 137.613 418.202C137.803 418.068 138.028 417.994 138.259 417.99C138.72 417.988 139.18 417.953 139.637 417.884C139.977 417.774 140.283 417.576 140.525 417.31C140.766 417.044 140.935 416.718 141.014 416.366C141.163 415.657 141.085 414.918 140.793 414.255L140.579 414.706C140.356 414.467 140.204 414.17 140.141 413.849C139.954 413.859 139.772 413.918 139.614 414.019C139.456 414.12 139.326 414.26 139.237 414.426C138.961 414.551 138.995 413.914 138.719 413.788C138.595 413.758 138.464 413.776 138.352 413.838C137.745 414.043 137.101 413.734 136.5 413.514C135.458 413.132 134.342 413.004 133.241 413.138C132.503 413.199 131.796 413.469 131.203 413.918C130.754 414.329 130.388 414.825 130.127 415.378C129.373 416.683 128.955 418.158 128.91 419.668C128.924 420.898 129.299 422.097 129.987 423.112C130.346 423.639 131.505 425.467 132.275 425.264C133.243 425.011 132.138 423.535 133.296 423.076Z" fill="#090814"/>
</g>
<path d="M163.741 376.882H256.675C260.624 376.882 263.824 382.088 263.824 388.509C263.824 394.931 260.624 400.137 256.675 400.137H163.741C159.793 400.137 156.592 394.931 156.592 388.509C156.592 382.088 159.793 376.882 163.741 376.882Z" fill="#3B82F6"/>
<path d="M283.562 399.787C276.653 399.787 271.052 394.132 271.052 387.156C271.052 380.18 276.653 374.525 283.562 374.525C290.471 374.525 296.072 380.18 296.072 387.156C296.072 394.132 290.471 399.787 283.562 399.787Z" fill="white"/>
<path d="M283.562 375.426C286.242 375.428 288.839 376.365 290.912 378.079C292.986 379.792 294.41 382.177 294.942 384.829C295.474 387.481 295.082 390.237 293.832 392.63C292.582 395.023 290.551 396.907 288.083 397.962C285.251 399.138 282.073 399.137 279.241 397.961C276.409 396.784 274.151 394.526 272.96 391.677C271.768 388.829 271.738 385.621 272.877 382.75C274.015 379.88 276.23 377.579 279.04 376.349C280.47 375.737 282.008 375.423 283.562 375.426ZM283.562 374.525C281.088 374.525 278.669 375.266 276.612 376.654C274.554 378.042 272.951 380.015 272.004 382.322C271.057 384.63 270.809 387.17 271.292 389.62C271.775 392.07 272.966 394.321 274.716 396.087C276.465 397.854 278.695 399.057 281.121 399.544C283.548 400.031 286.063 399.781 288.349 398.825C290.635 397.869 292.589 396.25 293.964 394.173C295.339 392.096 296.072 389.654 296.072 387.156C296.072 383.806 294.754 380.594 292.408 378.225C290.062 375.856 286.88 374.525 283.562 374.525Z" fill="#090814"/>
<mask id="mask2_4796_7304" style="mask-type:luminance" maskUnits="userSpaceOnUse" x="271" y="373" width="26" height="26">
<path d="M283.562 398.884C276.653 398.884 271.052 393.229 271.052 386.254C271.052 379.278 276.653 373.623 283.562 373.623C290.471 373.623 296.072 379.278 296.072 386.254C296.072 393.229 290.471 398.884 283.562 398.884Z" fill="white"/>
</mask>
<g mask="url(#mask2_4796_7304)">
<path d="M281.495 390.599H285.912L286.434 396.952H281.041L281.495 390.599Z" fill="#ED9DA0"/>
<path d="M275.048 396.276L279.985 393.775L287.577 393.909L294.11 397.285L290.394 416.028L292 425.8C285.794 427.398 279.296 427.452 273.065 425.958L273.015 425.946C273.015 425.946 276.706 412.726 275.135 408.692L275.048 396.276Z" fill="#3B82F6"/>
<path d="M289.33 386.285C289.325 384.791 288.732 383.36 287.683 382.306C286.633 381.252 285.213 380.662 283.732 380.665C282.252 380.668 280.834 381.263 279.788 382.321C278.743 383.379 278.156 384.812 278.156 386.306C278.156 387.8 278.743 389.233 279.788 390.291C280.834 391.349 282.252 391.944 283.732 391.947C285.213 391.95 286.633 391.36 287.683 390.306C288.732 389.252 289.325 387.821 289.33 386.327V386.285Z" fill="#ED9DA0"/>
<path d="M285.674 389.058C285.249 388.938 284.813 388.859 284.373 388.823C283.598 388.654 282.91 388.21 282.432 387.572C281.954 386.934 281.718 386.144 281.767 385.345C281.804 385.14 281.807 384.929 281.777 384.722C281.693 384.505 281.547 384.317 281.357 384.184C281.167 384.05 280.943 383.976 280.711 383.972C280.25 383.97 279.79 383.935 279.334 383.866C278.993 383.756 278.687 383.558 278.445 383.292C278.204 383.026 278.035 382.7 277.956 382.348C277.807 381.639 277.885 380.9 278.178 380.237L278.392 380.687C278.614 380.449 278.766 380.152 278.83 379.831C279.017 379.841 279.198 379.899 279.356 380.001C279.514 380.102 279.644 380.242 279.733 380.408C280.009 380.533 279.976 379.896 280.251 379.769C280.375 379.74 280.506 379.758 280.618 379.819C281.225 380.025 281.869 379.716 282.471 379.496C283.512 379.114 284.629 378.986 285.729 379.12C286.467 379.181 287.174 379.451 287.767 379.9C288.217 380.311 288.582 380.807 288.843 381.36C289.597 382.665 290.015 384.14 290.06 385.65C290.046 386.88 289.671 388.079 288.983 389.094C288.625 389.621 287.466 391.449 286.696 391.246C285.727 390.993 286.832 389.517 285.674 389.058Z" fill="#090814"/>
</g>
</g>
<defs>
<clipPath id="clip0_4796_7304">
<rect width="402" height="564" fill="white"/>
</clipPath>
</defs>
</svg>
