<svg width="652" height="593" viewBox="0 0 652 593" fill="none" xmlns="http://www.w3.org/2000/svg">
<path d="M526.197 522.347C456.671 516.797 381.955 500.281 308.52 474.129C217.705 441.788 135.619 397.362 71.1334 345.652L73.3962 342.749C137.577 394.208 219.295 438.434 309.733 470.638C391.463 499.745 474.774 516.858 550.637 520.153L550.475 523.848C542.462 523.501 534.37 523.001 526.197 522.347Z" fill="#005BC4"/>
<path d="M99.8409 323.304C51.5461 260.971 37.7929 203.833 61.0941 162.413C90.9981 109.26 177.862 86.7659 299.395 100.705L299.131 104.067C179.286 90.3274 93.8175 112.196 64.637 164.064C41.9537 204.374 55.5952 260.304 103.044 321.551L99.8409 323.304Z" fill="#005BC4"/>
<path d="M580.847 512.654L580.286 509.631C614.102 492.195 635.647 463.198 642.592 425.767C651.415 378.187 635.711 322.252 598.362 268.269C560.822 214.012 505.979 168.335 443.933 139.655L444.494 136.602C506.808 165.407 561.919 211.32 599.668 265.882C637.607 320.717 653.513 377.806 644.457 426.632C637.318 465.135 615.321 494.879 580.847 512.654Z" fill="#005BC4"/>
<path d="M516.105 481.197C509.3 481.197 502.647 478.921 496.989 474.657C491.33 470.393 486.92 464.333 484.316 457.242C481.711 450.151 481.03 442.349 482.357 434.822C483.685 427.295 486.962 420.38 491.774 414.953C496.587 409.527 502.718 405.831 509.392 404.334C516.067 402.836 522.986 403.605 529.273 406.542C535.561 409.479 540.934 414.452 544.715 420.834C548.496 427.215 550.514 434.717 550.514 442.392C550.514 447.488 549.624 452.534 547.895 457.242C546.166 461.95 543.631 466.228 540.436 469.831C537.241 473.434 533.448 476.293 529.273 478.243C525.098 480.193 520.624 481.197 516.105 481.197ZM516.105 404.199C509.407 404.199 502.859 406.439 497.29 410.636C491.72 414.833 487.379 420.798 484.816 427.777C482.253 434.756 481.582 442.435 482.889 449.844C484.196 457.253 487.421 464.058 492.158 469.399C496.894 474.741 502.929 478.378 509.499 479.852C516.068 481.325 522.878 480.569 529.066 477.678C535.255 474.787 540.544 469.891 544.265 463.61C547.987 457.329 549.973 449.945 549.973 442.391C549.973 432.262 546.404 422.547 540.053 415.384C533.702 408.222 525.087 404.198 516.105 404.198V404.199Z" fill="#090814"/>
<path d="M522.304 457.203H509.904C509.601 457.207 509.299 457.142 509.018 457.014C508.737 456.885 508.481 456.695 508.265 456.454C508.049 456.213 507.878 455.927 507.761 455.611C507.644 455.295 507.584 454.956 507.584 454.614C507.584 454.271 507.644 453.932 507.761 453.616C507.878 453.3 508.049 453.014 508.265 452.773C508.481 452.532 508.737 452.342 509.018 452.213C509.299 452.085 509.601 452.021 509.904 452.024H522.304C522.909 452.031 523.487 452.307 523.912 452.792C524.338 453.277 524.577 453.931 524.577 454.614C524.577 455.296 524.338 455.95 523.912 456.435C523.487 456.92 522.909 457.196 522.304 457.203H522.304Z" fill="#D6D6E3"/>
<path d="M522.472 493.026H510.073C509.464 493.026 508.88 492.753 508.449 492.268C508.018 491.782 507.776 491.124 507.776 490.437C507.776 489.75 508.018 489.091 508.449 488.606C508.88 488.12 509.464 487.847 510.073 487.847H522.472C523.081 487.847 523.665 488.12 524.096 488.606C524.527 489.091 524.769 489.75 524.769 490.437C524.769 491.124 524.527 491.782 524.096 492.268C523.665 492.753 523.081 493.026 522.472 493.026Z" fill="#3B82F6"/>
<path d="M551.908 484.436H480.538C479.214 484.436 478.142 483.513 478.139 482.375V464.096C478.141 462.959 479.214 462.037 480.538 462.036H551.908C553.232 462.036 554.305 462.959 554.307 464.096V482.376C554.306 483.513 553.232 484.434 551.908 484.436Z" fill="#D6D6E3"/>
<path d="M544.973 483.046H482.155C480.831 483.046 479.759 482.123 479.756 480.985V465.487C479.758 464.349 480.831 463.428 482.155 463.426H550.29C551.615 463.426 552.686 464.349 552.689 465.487V476.418C552.684 480.077 549.233 483.042 544.973 483.046Z" fill="white"/>
<path d="M523.306 471.097H494.62C494.456 471.097 494.299 471.024 494.183 470.893C494.067 470.762 494.001 470.585 494.001 470.4C494.001 470.215 494.067 470.037 494.183 469.906C494.299 469.776 494.456 469.702 494.62 469.702H523.306C523.47 469.702 523.627 469.776 523.743 469.906C523.859 470.037 523.925 470.215 523.925 470.4C523.925 470.585 523.859 470.762 523.743 470.893C523.627 471.024 523.47 471.097 523.306 471.097Z" fill="#3B82F6"/>
<path d="M537.827 473.95H494.62C494.456 473.95 494.299 473.876 494.183 473.746C494.067 473.615 494.001 473.437 494.001 473.252C494.001 473.067 494.067 472.89 494.183 472.759C494.299 472.628 494.456 472.555 494.62 472.555H537.827C537.991 472.555 538.149 472.628 538.265 472.759C538.381 472.89 538.446 473.067 538.446 473.252C538.446 473.437 538.381 473.615 538.265 473.746C538.149 473.876 537.991 473.95 537.827 473.95Z" fill="#E6E6E6"/>
<path d="M537.827 477.225H494.62C494.456 477.225 494.299 477.152 494.183 477.021C494.067 476.89 494.001 476.713 494.001 476.528C494.001 476.343 494.067 476.165 494.183 476.034C494.299 475.904 494.456 475.83 494.62 475.83H537.827C537.991 475.83 538.149 475.904 538.265 476.034C538.381 476.165 538.446 476.343 538.446 476.528C538.446 476.713 538.381 476.89 538.265 477.021C538.149 477.152 537.991 477.225 537.827 477.225Z" fill="#E6E6E6"/>
<path d="M527.838 435.946C527.836 438.781 526.949 441.528 525.329 443.718C523.709 445.909 521.455 447.407 518.952 447.959C516.449 448.51 513.852 448.081 511.602 446.743C509.352 445.406 507.589 443.243 506.613 440.623C505.638 438.003 505.509 435.089 506.25 432.376C506.992 429.663 508.556 427.319 510.678 425.744C512.799 424.169 515.347 423.46 517.886 423.738C520.426 424.015 522.8 425.262 524.605 427.267C525.63 428.407 526.444 429.76 526.998 431.249C527.553 432.738 527.838 434.334 527.838 435.946Z" fill="#3B82F6"/>
<path d="M516.807 437.161C518.837 437.161 520.484 435.515 520.484 433.484C520.484 431.453 518.837 429.807 516.807 429.807C514.776 429.807 513.129 431.453 513.129 433.484C513.129 435.515 514.776 437.161 516.807 437.161Z" fill="white"/>
<path d="M520.988 439.613H512.628C512.111 439.614 511.616 439.83 511.25 440.216C510.885 440.601 510.679 441.124 510.678 441.668C510.797 443.429 511.058 445.175 511.458 446.889C513.135 447.8 515.003 448.246 516.887 448.188C518.772 448.129 520.612 447.567 522.234 446.554C522.592 444.948 522.826 443.314 522.935 441.668C522.935 441.123 522.729 440.601 522.364 440.215C521.998 439.83 521.502 439.613 520.985 439.613L520.988 439.613Z" fill="white"/>
<path d="M544.04 470.44C544.04 470.44 539.991 469.653 533.988 463.513C529.238 458.656 522.832 459.611 520.361 460.224C520.277 460.244 520.201 460.293 520.142 460.364C520.084 460.435 520.046 460.525 520.034 460.621C520.021 460.717 520.035 460.815 520.074 460.902C520.113 460.988 520.174 461.06 520.249 461.106C521.248 461.722 522.795 462.623 523.521 462.725C523.521 462.725 522.024 464.471 523.615 465.405C523.805 465.51 524.018 465.554 524.229 465.531C524.44 465.508 524.642 465.42 524.811 465.275C525.575 464.645 527.7 466.075 530.78 466.819C530.78 466.819 542.785 480.831 545.579 478.455L544.04 470.44Z" fill="#ED9DA0"/>
<path d="M564.712 451.39C564.712 451.39 565.829 456.742 564.712 460.521L569.738 461.308L574.205 458.789V455.483C574.205 455.483 572.111 450.445 572.67 444.619L564.712 451.39Z" fill="#ED9DA0"/>
<path d="M577.29 570.734C577.29 570.734 580.933 578.763 580.361 584.115C579.789 589.467 585.108 584.745 584.549 581.596C584.431 585.407 586.112 568.248 586.898 564.23C586.983 563.795 586.923 563.341 586.728 562.954C586.532 562.568 586.217 562.277 585.842 562.138C584.164 561.516 581.353 560.752 579.942 561.919C577.857 563.649 577.29 570.734 577.29 570.734Z" fill="#090814"/>
<path d="M565.129 576.233C565.129 576.233 560.383 583.16 559.126 583.317C557.87 583.475 557.032 585.679 559.126 586.151C563.307 586.972 567.608 586.499 571.569 584.782C571.966 584.608 572.299 584.288 572.515 583.875C572.732 583.462 572.819 582.979 572.762 582.503L571.962 575.76L565.129 576.233Z" fill="#090814"/>
<path d="M557.311 505.507L552.759 503.396C553.384 509.393 553.365 515.452 552.704 521.444V543.006C552.704 543.006 552.616 544.906 556.113 547.668C559.779 550.542 563.313 553.627 566.7 556.909L579.367 572.08C579.367 572.08 583.388 565.771 582.69 561.678C582.69 561.678 575.319 555.273 574.202 550.393C573.561 547.6 570.314 545.259 567.655 543.787C565.984 542.872 564.641 541.339 563.848 539.444C563.056 537.549 562.863 535.405 563.3 533.368C563.455 532.661 563.695 531.98 564.013 531.346C566.247 526.937 569.458 517.019 569.458 517.019L563.315 503.815L557.311 505.507Z" fill="#090814"/>
<path d="M564.014 576.715C564.014 576.715 572.251 578.289 572.53 579.234C572.809 580.179 572.53 577.975 572.53 577.975C572.53 577.975 577.277 561.758 576.173 547.435C575.069 533.111 577.569 523.661 577.569 523.661C577.569 523.661 580.501 512.956 578.826 506.816C577.15 500.676 559.559 503.352 559.559 503.352C559.559 503.352 565.701 519.568 565.562 527.283C565.562 527.283 566.26 550.583 567.516 553.26C567.504 553.247 565.55 576.075 564.014 576.715Z" fill="#090814"/>
<path d="M564.98 455.484C564.98 455.484 565.818 461.302 574.194 458.79L568.622 506.648C568.622 506.648 552.428 507.277 552.567 505.073L555.906 476.108L564.98 455.484Z" fill="#3B82F6"/>
<path d="M565.201 455.326C564.129 456.343 562.82 456.992 561.43 457.194C560.208 457.309 559.023 457.732 557.965 458.433C556.71 459.279 555.312 460.509 554.887 462.006C554.033 464.944 546.258 471.313 543.816 470.285L545.411 478.617C545.411 478.617 554.033 477.136 555.253 473.904L553.181 505.356H555.012C555.012 505.356 555.988 496.836 556.72 495.074C557.453 493.311 558.917 483.616 559.039 481.265C559.161 478.915 560.992 465.4 562.579 463.063L565.203 456.232L565.201 455.326Z" fill="#3B82F6"/>
<path d="M566.246 453.755C570.41 453.755 573.785 449.949 573.785 445.253C573.785 440.558 570.41 436.751 566.246 436.751C562.083 436.751 558.708 440.558 558.708 445.253C558.708 449.949 562.083 453.755 566.246 453.755Z" fill="#ED9DA0"/>
<path d="M558.67 438.014C558.626 436.69 559.055 435.074 559.376 435.394C559.601 434.043 560.961 434.243 561.357 434.598C561.314 433.767 563.65 432.465 563.695 433.078C563.698 433.179 563.735 433.276 563.799 433.346C563.869 433.397 563.951 433.421 564.034 433.416C564.76 433.447 565.487 433.43 566.21 433.362C567.1 433.249 567.996 433.196 568.891 433.201C571.692 433.334 574.508 435.492 575.135 438.572C575.265 439.319 575.334 440.078 575.34 440.84L575.476 444.728C575.556 445.862 575.515 447.003 575.354 448.127C575.16 449.164 574.766 450.14 574.199 450.985C573.633 451.83 572.908 452.524 572.076 453.017C571.065 451.365 570.976 449.242 570.625 447.274C570.57 446.82 570.42 446.388 570.188 446.012C570.068 445.825 569.9 445.686 569.707 445.612C569.514 445.539 569.305 445.535 569.11 445.601C568.731 445.772 568.569 446.422 568.883 446.713C568.602 447.086 568.079 446.808 567.763 446.476C566.879 445.53 566.27 444.304 566.018 442.96C565.892 442.284 565.766 441.451 565.177 441.219C564.975 441.157 564.763 441.141 564.555 441.172C563.328 441.267 561.409 441.839 560.222 441.399C559.13 440.996 558.67 439.18 558.67 438.014Z" fill="#090814"/>
<path d="M573.716 453.844L582.721 462.582C582.721 462.582 588.026 468.722 585.792 478.641C585.792 478.641 584.814 493.126 583.698 493.755C583.698 493.755 579.789 502.572 579.51 510.916L571.468 507.5L566.347 506.031L567.081 471.72C567.081 471.72 574.834 456.507 573.716 453.844Z" fill="#3B82F6"/>
<path d="M577.833 490.75C577.833 490.75 580.067 489.018 583.696 493.741L574.761 512.004L571.76 506.895C571.76 506.895 578.112 492.796 577.833 490.75Z" fill="#ED9DA0"/>
<path d="M465.929 453.921L466.052 463.48L474.189 463.51C474.189 463.51 472.124 456.028 473.049 454.464C473.974 452.899 465.929 453.921 465.929 453.921Z" fill="#ED9DA0"/>
<path d="M483.034 529.378L482.537 549.024L477.227 572.039C477.227 572.039 478.388 575.968 477.559 576.905C476.729 577.841 472.913 579.524 472.913 579.524L476.065 530.501L483.034 529.378Z" fill="#090814"/>
<path d="M471.506 576.808C471.506 576.808 469.613 581.506 472.264 581.933C474.915 582.36 487.159 583.498 486.401 581.078C485.644 578.658 476.43 576.381 476.43 576.381L471.506 576.808Z" fill="#090814"/>
<path d="M464.451 511.978C464.451 511.978 466.442 524.14 467.77 526.199C469.097 528.258 467.105 543.225 467.105 543.225C467.105 543.225 464.118 564.742 465.446 568.11C466.773 571.478 466.441 570.356 466.275 572.227C466.109 574.098 465.778 575.595 466.275 577.281C466.773 578.967 466.773 578.778 466.939 579.713C467.105 580.649 466.939 585.701 466.939 585.701C466.939 585.701 474.073 588.508 475.235 584.391C475.235 584.391 473.576 581.772 474.074 579.714C474.592 577.642 474.871 575.504 474.903 573.353V569.423L482.536 537.239L484.361 525.637C484.361 525.637 483.863 513.85 482.038 512.727C480.213 511.604 464.451 511.978 464.451 511.978Z" fill="#090814"/>
<path d="M467.437 584.762C467.437 584.762 464.948 590.937 468.432 591.498C471.917 592.059 488.011 593.556 487.015 590.375C486.018 587.194 473.907 584.201 473.907 584.201L467.437 584.762Z" fill="#090814"/>
<path d="M469.873 458.099C473.899 458.099 477.163 454.418 477.163 449.877C477.163 445.336 473.899 441.655 469.873 441.655C465.846 441.655 462.582 445.336 462.582 449.877C462.582 454.418 465.846 458.099 469.873 458.099Z" fill="#ED9DA0"/>
<path d="M478.058 468.755C478.058 468.755 472.251 460.335 467.771 463.89C463.29 467.444 461.632 475.865 461.632 475.865L462.627 499.442C462.627 499.442 465.116 502.81 463.623 505.056C462.13 507.301 461.3 506.74 462.462 508.424C463.623 510.109 464.95 511.418 464.453 511.979C463.955 512.54 464.95 512.914 464.95 512.914L482.538 513.476C482.538 513.476 482.041 512.727 483.534 510.482C485.027 508.236 483.202 505.243 483.534 504.121C483.866 502.999 484.198 504.308 484.363 501.688C484.529 499.069 478.058 468.755 478.058 468.755Z" fill="#E6E6E6"/>
<path d="M461.049 459.305C461.049 459.305 460.883 463.047 461.049 463.608C461.214 464.169 461.381 464.731 461.049 465.292C460.717 465.853 460.883 467.725 461.214 467.911C461.546 468.098 460.551 469.783 460.883 470.905C461.086 471.567 461.365 472.196 461.712 472.777C461.878 473.151 462.145 473.822 462.145 473.822C462.145 473.822 467.021 462.112 471.004 464.919C473.219 466.527 475.62 467.787 478.138 468.661C478.138 468.661 475.984 455.564 461.049 459.305Z" fill="#D6D6E3"/>
<path d="M468.267 468.006C468.267 468.006 462.957 468.567 463.289 476.426C463.621 484.285 462.792 496.634 462.792 496.634C462.792 496.634 471.917 512.351 473.411 513.475C474.904 514.598 475.07 514.41 474.904 515.346C474.738 516.282 474.572 517.03 475.236 517.778C475.627 518.223 476.075 518.602 476.563 518.901C476.563 518.901 481.872 516.843 481.374 514.972C480.876 513.101 478.554 510.107 478.554 510.107C478.554 510.107 474.572 502.81 474.406 501.687C474.241 500.565 474.24 500.752 473.742 500.19C473.244 499.628 471.917 497.383 471.917 496.261V492.704L473.308 473.706C473.371 472.932 473.288 472.152 473.065 471.417C472.842 470.682 472.483 470.008 472.012 469.441C471.539 468.875 470.95 468.449 470.297 468.198C469.645 467.948 468.947 467.882 468.267 468.006Z" fill="#E6E6E6"/>
<path opacity="0.1" d="M472.538 484.215L472.45 497.088L477.858 506.24L473.433 495.98L472.538 484.215Z" fill="black"/>
<path d="M465.885 456.123C467.861 456.05 468.041 455.462 470.017 455.389C470.647 455.365 471.389 455.268 471.693 454.646C471.782 454.413 471.821 454.161 471.809 453.908C471.796 453.654 471.731 453.408 471.62 453.188C471.394 452.751 471.191 452.3 471.011 451.837C470.903 451.474 470.874 451.087 470.928 450.709C470.982 450.33 471.117 449.973 471.321 449.667C471.525 449.36 471.792 449.115 472.1 448.951C472.407 448.787 472.744 448.71 473.084 448.727C473.685 448.756 474.25 449.075 474.85 449.133C475.672 449.213 477.49 446.151 477.112 445.323C476.744 444.518 476.002 443.911 475.885 443.014C475.809 442.427 475.527 442.167 475.556 441.575C475.6 440.697 474.124 442.354 474.485 441.575C475.371 439.665 467.021 437.296 465.646 439.689C465.133 440.583 464.217 440.523 463.401 441.06C462.866 441.412 461.515 442.626 461.208 443.383C460.926 444.155 460.792 444.987 460.817 445.822C460.804 449.705 461.329 453.276 464.106 455.572" fill="#090814"/>
<path d="M467.359 206.588H205.641C201.421 206.588 198 210.444 198 215.201V386.396C198 391.154 201.421 395.01 205.641 395.01H467.359C471.579 395.01 475 391.154 475 386.396V215.201C475 210.444 471.579 206.588 467.359 206.588Z" fill="#D6D6E3"/>
<path d="M464.971 208.741H208.03C204.074 208.741 200.866 212.356 200.866 216.816V383.704C200.866 388.164 204.074 391.779 208.03 391.779H464.971C468.928 391.779 472.135 388.164 472.135 383.704V216.816C472.135 212.356 468.928 208.741 464.971 208.741Z" fill="white"/>
<path d="M426.757 381.132C427.033 381.146 427.307 381.064 427.541 380.897C427.774 380.73 427.957 380.486 428.063 380.198C428.17 379.911 428.196 379.593 428.138 379.288C428.079 378.983 427.939 378.706 427.736 378.494L427.643 378.079L427.68 377.98C427.96 377.238 428.427 376.606 429.024 376.163C429.62 375.72 430.32 375.485 431.034 375.488C431.749 375.491 432.447 375.731 433.041 376.18C433.634 376.628 434.098 377.264 434.372 378.007C435.467 380.979 436.86 383.956 437.203 387.098C437.354 388.486 437.291 389.894 437.015 391.258C439.587 384.938 440.922 378.067 440.931 371.113C440.932 369.369 440.846 367.625 440.674 365.891C440.532 364.47 440.334 363.058 440.082 361.657C438.704 354.053 435.746 346.926 431.45 340.861C429.371 339.583 427.689 337.616 426.632 335.227C426.249 334.368 425.978 333.451 425.828 332.505C426.063 332.54 426.713 328.513 426.535 328.266C426.862 327.707 427.447 327.429 427.804 326.884C429.58 324.17 432.026 324.644 433.303 328.331C436.031 329.883 436.057 332.457 434.383 334.932C433.318 336.507 433.172 338.638 432.238 340.324C432.333 340.463 432.434 340.597 432.53 340.735C434.287 343.282 435.819 346.017 437.103 348.901C436.79 345.671 437.163 342.403 438.189 339.366C439.23 336.536 441.181 334.153 442.898 331.706C444.962 328.767 449.193 330.05 449.556 333.775C449.56 333.811 449.563 333.847 449.567 333.883C449.312 334.045 449.062 334.217 448.817 334.4C448.51 334.631 448.273 334.961 448.135 335.347C447.997 335.734 447.967 336.158 448.046 336.564C448.126 336.97 448.313 337.34 448.583 337.624C448.852 337.909 449.191 338.095 449.556 338.158L449.593 338.165C449.502 339.201 449.342 340.229 449.113 341.238C451.316 350.844 446.559 354.343 439.766 354.5C439.616 354.587 439.47 354.673 439.32 354.756C440.61 358.876 441.419 363.168 441.727 367.524C441.901 370.094 441.891 372.676 441.696 375.244L441.707 375.153C442.2 372.297 443.551 369.721 445.533 367.859C448.478 365.132 452.637 364.128 455.813 361.937C456.15 361.692 456.543 361.56 456.944 361.559C457.346 361.557 457.739 361.685 458.078 361.928C458.417 362.171 458.687 362.518 458.857 362.928C459.026 363.338 459.088 363.795 459.034 364.243C459.03 364.275 459.026 364.307 459.021 364.339C458.548 364.556 458.087 364.807 457.641 365.089C457.386 365.251 457.137 365.423 456.892 365.606C456.585 365.837 456.347 366.167 456.21 366.553C456.072 366.939 456.041 367.363 456.121 367.77C456.201 368.176 456.388 368.546 456.657 368.83C456.926 369.115 457.266 369.301 457.631 369.364L457.668 369.371L457.745 369.384C456.936 371.561 455.8 373.565 454.388 375.308C453.01 383.694 447.092 384.49 440.762 382.048H440.758C440.063 385.45 439.057 388.762 437.755 391.93H427.028C426.989 391.796 426.955 391.657 426.92 391.522C427.913 391.593 428.91 391.526 429.889 391.323C429.093 390.222 428.297 389.113 427.501 388.012C427.484 387.991 427.468 387.969 427.453 387.946C427.049 387.383 426.641 386.824 426.238 386.26C426.217 384.533 426.394 382.81 426.763 381.134L426.757 381.132Z" fill="#F2F2F2"/>
<path d="M452.464 244.252H214.12C214.064 244.254 214.007 244.243 213.955 244.221C213.902 244.198 213.854 244.163 213.813 244.119C213.773 244.075 213.74 244.022 213.718 243.963C213.696 243.905 213.685 243.842 213.685 243.778C213.685 243.714 213.696 243.651 213.718 243.593C213.74 243.534 213.773 243.481 213.813 243.437C213.854 243.393 213.902 243.358 213.955 243.335C214.007 243.313 214.064 243.302 214.12 243.304H452.464C452.521 243.302 452.577 243.313 452.629 243.335C452.682 243.358 452.73 243.393 452.771 243.437C452.811 243.481 452.844 243.534 452.866 243.593C452.888 243.651 452.899 243.714 452.899 243.778C452.899 243.842 452.888 243.905 452.866 243.963C452.844 244.022 452.811 244.075 452.771 244.119C452.73 244.163 452.682 244.198 452.629 244.221C452.577 244.243 452.521 244.254 452.464 244.252Z" fill="#E6E6E6"/>
<path d="M396.325 281.154H281.529C278.495 281.154 275.585 283.472 273.44 287.599C271.295 291.725 270.09 297.322 270.09 303.157C270.09 308.993 271.295 314.59 273.44 318.716C275.585 322.842 278.495 325.161 281.529 325.161H396.325C399.358 325.161 402.268 322.842 404.413 318.716C406.558 314.59 407.763 308.993 407.763 303.157C407.763 297.322 406.558 291.725 404.413 287.599C402.268 283.472 399.358 281.154 396.325 281.154Z" fill="#008AFF"/>
<path d="M226.045 230.021C228.009 230.021 229.601 228.186 229.601 225.922C229.601 223.659 228.009 221.824 226.045 221.824C224.081 221.824 222.488 223.659 222.488 225.922C222.488 228.186 224.081 230.021 226.045 230.021Z" fill="#D6D6E3"/>
<path d="M238.331 230.021C240.295 230.021 241.888 228.186 241.888 225.922C241.888 223.659 240.295 221.824 238.331 221.824C236.367 221.824 234.774 223.659 234.774 225.922C234.774 228.186 236.367 230.021 238.331 230.021Z" fill="#D6D6E3"/>
<path d="M250.618 230.021C252.582 230.021 254.174 228.186 254.174 225.922C254.174 223.659 252.582 221.824 250.618 221.824C248.653 221.824 247.061 223.659 247.061 225.922C247.061 228.186 248.653 230.021 250.618 230.021Z" fill="#D6D6E3"/>
<path d="M264.626 229.161C264.57 229.161 264.515 229.149 264.463 229.124C264.412 229.1 264.365 229.064 264.326 229.018L261.926 226.253C261.849 226.164 261.806 226.046 261.806 225.922C261.806 225.798 261.849 225.679 261.926 225.59L264.326 222.825C264.364 222.778 264.41 222.74 264.461 222.713C264.513 222.687 264.568 222.672 264.625 222.67C264.681 222.668 264.738 222.679 264.79 222.702C264.843 222.726 264.891 222.761 264.932 222.805C264.972 222.85 265.004 222.903 265.026 222.962C265.048 223.021 265.059 223.084 265.058 223.148C265.058 223.211 265.046 223.274 265.023 223.333C265.001 223.391 264.968 223.444 264.927 223.488L262.815 225.921L264.927 228.355C264.986 228.422 265.025 228.507 265.041 228.599C265.057 228.691 265.048 228.786 265.016 228.872C264.984 228.959 264.929 229.032 264.86 229.084C264.791 229.136 264.709 229.163 264.626 229.163V229.161Z" fill="#3B82F6"/>
<path d="M268.658 229.161C268.575 229.162 268.494 229.134 268.425 229.082C268.356 229.031 268.301 228.957 268.269 228.87C268.237 228.784 268.229 228.689 268.244 228.597C268.26 228.505 268.3 228.42 268.358 228.354L270.47 225.92L268.358 223.487C268.317 223.443 268.284 223.39 268.262 223.331C268.239 223.273 268.227 223.21 268.227 223.146C268.227 223.082 268.238 223.019 268.259 222.96C268.281 222.901 268.313 222.848 268.354 222.804C268.394 222.759 268.442 222.724 268.495 222.701C268.547 222.678 268.604 222.667 268.66 222.669C268.717 222.671 268.772 222.685 268.824 222.712C268.875 222.739 268.921 222.777 268.959 222.824L271.359 225.589C271.436 225.677 271.479 225.796 271.479 225.92C271.479 226.044 271.436 226.163 271.359 226.252L268.959 229.016C268.92 229.062 268.874 229.098 268.822 229.123C268.77 229.148 268.715 229.161 268.658 229.161Z" fill="#3B82F6"/>
<path d="M431.21 222.298H426.747C426.503 222.298 426.269 222.408 426.096 222.602C425.924 222.797 425.827 223.061 425.827 223.336V228.372C425.827 228.508 425.85 228.643 425.897 228.769C425.943 228.895 426.011 229.01 426.096 229.106C426.182 229.203 426.283 229.279 426.395 229.331C426.507 229.384 426.626 229.41 426.747 229.41H431.21C431.454 229.411 431.689 229.301 431.862 229.107C432.036 228.912 432.134 228.648 432.135 228.373V223.338C432.134 223.062 432.036 222.798 431.862 222.603C431.689 222.408 431.454 222.299 431.21 222.299V222.298Z" fill="#E6E6E6"/>
<path d="M420.275 222.298H415.813C415.569 222.298 415.335 222.408 415.162 222.602C414.99 222.797 414.893 223.061 414.893 223.336V228.372C414.893 228.508 414.916 228.643 414.963 228.769C415.009 228.896 415.077 229.01 415.162 229.106C415.248 229.203 415.349 229.279 415.461 229.332C415.573 229.384 415.693 229.411 415.814 229.41H420.276C420.521 229.411 420.755 229.301 420.929 229.107C421.102 228.912 421.2 228.648 421.201 228.373V223.338C421.2 223.062 421.102 222.798 420.929 222.603C420.755 222.408 420.521 222.299 420.276 222.299L420.275 222.298Z" fill="#E6E6E6"/>
<path d="M441.513 222.536H437.051C436.93 222.536 436.81 222.563 436.699 222.615C436.587 222.667 436.485 222.743 436.4 222.84C436.314 222.936 436.247 223.051 436.2 223.177C436.154 223.303 436.13 223.438 436.13 223.574V228.609C436.13 228.746 436.154 228.881 436.201 229.007C436.247 229.133 436.315 229.247 436.4 229.343C436.486 229.44 436.587 229.516 436.699 229.568C436.811 229.621 436.931 229.647 437.052 229.647H441.514C441.758 229.648 441.993 229.538 442.167 229.344C442.34 229.149 442.438 228.885 442.439 228.609V223.575C442.438 223.299 442.34 223.034 442.167 222.84C441.993 222.645 441.758 222.536 441.514 222.536L441.513 222.536Z" fill="#3B82F6"/>
<path d="M351.127 224.451H315.458C315.308 224.446 315.158 224.475 315.018 224.536C314.878 224.598 314.751 224.69 314.643 224.808C314.535 224.926 314.449 225.067 314.391 225.223C314.332 225.379 314.302 225.547 314.302 225.716C314.302 225.885 314.332 226.053 314.391 226.209C314.449 226.365 314.535 226.506 314.643 226.624C314.751 226.742 314.878 226.834 315.018 226.895C315.158 226.957 315.308 226.986 315.458 226.981H351.127C351.277 226.986 351.427 226.957 351.567 226.895C351.707 226.834 351.835 226.742 351.942 226.624C352.05 226.506 352.136 226.365 352.194 226.209C352.253 226.053 352.283 225.885 352.283 225.716C352.283 225.547 352.253 225.379 352.194 225.223C352.136 225.067 352.05 224.926 351.942 224.808C351.835 224.69 351.707 224.598 351.567 224.536C351.427 224.475 351.277 224.446 351.127 224.451Z" fill="#3B82F6"/>
<path d="M324.967 344.755H289.64C287.911 344.755 286.253 345.53 285.03 346.908C283.808 348.286 283.121 350.155 283.121 352.104C283.121 354.053 283.808 355.922 285.03 357.3C286.253 358.678 287.911 359.452 289.64 359.452H324.967C326.696 359.452 328.354 358.678 329.577 357.3C330.799 355.922 331.486 354.053 331.486 352.104C331.486 350.155 330.799 348.286 329.577 346.908C328.354 345.53 326.696 344.755 324.967 344.755Z" fill="#3B82F6"/>
<path d="M384.266 344.755H348.938C347.21 344.755 345.551 345.53 344.329 346.908C343.106 348.286 342.419 350.155 342.419 352.104C342.419 354.053 343.106 355.922 344.329 357.3C345.551 358.678 347.21 359.452 348.938 359.452H384.266C385.994 359.452 387.653 358.678 388.875 357.3C390.098 355.922 390.785 354.053 390.785 352.104C390.785 350.155 390.098 348.286 388.875 346.908C387.653 345.53 385.994 344.755 384.266 344.755Z" fill="white"/>
<path d="M384.266 359.925H348.939C347.098 359.925 345.333 359.101 344.032 357.634C342.731 356.167 342 354.177 342 352.102C342 350.028 342.731 348.038 344.032 346.571C345.333 345.104 347.098 344.28 348.939 344.28H384.266C386.106 344.28 387.871 345.104 389.173 346.571C390.474 348.038 391.205 350.028 391.205 352.102C391.205 354.177 390.474 356.167 389.173 357.634C387.871 359.101 386.106 359.925 384.266 359.925ZM348.939 345.228C348.133 345.22 347.335 345.392 346.589 345.733C345.842 346.075 345.164 346.58 344.592 347.219C344.02 347.859 343.566 348.619 343.256 349.457C342.946 350.295 342.787 351.194 342.787 352.102C342.787 353.01 342.946 353.908 343.256 354.746C343.566 355.584 344.02 356.345 344.592 356.984C345.164 357.623 345.842 358.128 346.589 358.47C347.335 358.812 348.133 358.984 348.939 358.976H384.266C385.071 358.984 385.87 358.812 386.616 358.47C387.362 358.128 388.041 357.623 388.613 356.984C389.185 356.345 389.639 355.584 389.949 354.746C390.259 353.908 390.418 353.01 390.418 352.102C390.418 351.194 390.259 350.295 389.949 349.457C389.639 348.619 389.185 347.859 388.613 347.219C388.041 346.58 387.362 346.075 386.616 345.733C385.87 345.392 385.071 345.22 384.266 345.228H348.939Z" fill="#3B82F6"/>
<path d="M253.566 384.388C253.37 384.399 253.175 384.342 253.009 384.223C252.843 384.105 252.713 383.932 252.637 383.728C252.562 383.524 252.543 383.298 252.586 383.082C252.628 382.865 252.728 382.669 252.873 382.519L252.938 382.225L252.912 382.155C252.714 381.629 252.384 381.181 251.961 380.867C251.539 380.553 251.043 380.387 250.537 380.389C250.031 380.391 249.537 380.561 249.116 380.879C248.696 381.197 248.368 381.648 248.174 382.175C247.399 384.279 246.413 386.386 246.168 388.61C246.061 389.593 246.106 390.59 246.302 391.556C244.482 387.081 243.537 382.217 243.532 377.294C243.531 376.059 243.592 374.824 243.714 373.597C243.815 372.592 243.954 371.592 244.133 370.599C245.109 365.215 247.204 360.17 250.246 355.876C251.718 354.971 252.909 353.579 253.657 351.887C253.928 351.279 254.12 350.63 254.226 349.961C254.06 349.985 253.6 347.134 253.725 346.96C253.494 346.564 253.079 346.368 252.827 345.981C251.57 344.06 249.838 344.396 248.934 347.004C247.003 348.103 246.984 349.925 248.17 351.677C248.924 352.792 249.03 354.301 249.689 355.495C249.621 355.593 249.55 355.688 249.482 355.787C248.238 357.59 247.154 359.526 246.245 361.567C246.466 359.28 246.202 356.966 245.475 354.816C244.738 352.813 243.358 351.126 242.141 349.394C241.82 348.928 241.383 348.581 240.886 348.395C240.389 348.21 239.855 348.194 239.35 348.351C238.846 348.508 238.394 348.83 238.052 349.276C237.709 349.722 237.492 350.273 237.428 350.858C237.425 350.884 237.423 350.91 237.42 350.935C237.601 351.05 237.778 351.172 237.951 351.3C238.168 351.464 238.337 351.698 238.434 351.972C238.531 352.246 238.553 352.546 238.496 352.834C238.439 353.121 238.307 353.383 238.116 353.584C237.925 353.786 237.684 353.917 237.426 353.962L237.399 353.966C237.464 354.7 237.578 355.427 237.74 356.141C236.18 362.943 239.546 365.419 244.358 365.532C244.464 365.594 244.567 365.655 244.673 365.713C243.76 368.63 243.187 371.669 242.969 374.753C242.846 376.572 242.853 378.4 242.991 380.218L242.983 380.153C242.635 378.132 241.678 376.307 240.275 374.989C238.191 373.059 235.246 372.348 232.997 370.797C232.758 370.624 232.48 370.532 232.196 370.531C231.912 370.53 231.634 370.621 231.394 370.793C231.155 370.964 230.963 371.209 230.843 371.5C230.723 371.79 230.679 372.112 230.716 372.43L230.726 372.497C231.061 372.651 231.387 372.829 231.703 373.028C231.883 373.143 232.06 373.265 232.233 373.394C232.451 373.558 232.619 373.792 232.716 374.065C232.814 374.339 232.835 374.639 232.779 374.927C232.722 375.215 232.589 375.476 232.398 375.678C232.207 375.879 231.966 376.01 231.708 376.055L231.682 376.06L231.627 376.069C232.2 377.61 233.004 379.029 234.004 380.263C234.979 386.2 239.169 386.764 243.651 385.034H243.654C244.145 387.444 244.858 389.79 245.78 392.033H253.374C253.401 391.938 253.425 391.84 253.45 391.744C252.747 391.794 252.041 391.747 251.349 391.603C251.912 390.824 252.476 390.038 253.039 389.259C253.052 389.244 253.064 389.229 253.075 389.213C253.361 388.814 253.648 388.418 253.934 388.019C253.949 386.796 253.825 385.576 253.564 384.39L253.566 384.388Z" fill="#F2F2F2"/>
<path d="M396.08 309.284C395.896 309.545 395.616 309.724 395.301 309.779C394.986 309.835 394.662 309.763 394.4 309.58L387.81 304.997C387.547 304.813 387.368 304.533 387.313 304.218C387.257 303.902 387.329 303.578 387.513 303.315C387.697 303.053 387.977 302.874 388.293 302.819C388.608 302.763 388.933 302.835 389.195 303.019L395.785 307.602C396.047 307.786 396.226 308.067 396.281 308.382C396.336 308.697 396.264 309.022 396.08 309.284Z" fill="white"/>
<path d="M388.6 304.076C387.627 305.465 386.264 306.534 384.683 307.148C383.103 307.763 381.375 307.895 379.719 307.528C378.063 307.161 376.554 306.312 375.381 305.087C374.208 303.862 373.425 302.318 373.13 300.648C372.836 298.978 373.043 297.259 373.726 295.707C374.409 294.156 375.537 292.841 376.968 291.93C378.398 291.019 380.067 290.553 381.762 290.59C383.458 290.627 385.105 291.166 386.494 292.138C387.416 292.784 388.203 293.605 388.808 294.554C389.413 295.503 389.825 296.563 390.02 297.671C390.216 298.78 390.191 299.916 389.947 301.015C389.704 302.114 389.246 303.154 388.6 304.076ZM376.306 295.472C375.577 296.514 375.173 297.748 375.145 299.019C375.117 300.29 375.467 301.541 376.15 302.613C376.834 303.685 377.82 304.531 378.984 305.043C380.148 305.555 381.438 305.711 382.69 305.49C383.943 305.27 385.102 304.683 386.021 303.804C386.94 302.925 387.578 301.794 387.853 300.553C388.129 299.312 388.03 298.017 387.57 296.832C387.109 295.647 386.307 294.625 385.266 293.895C384.574 293.41 383.793 293.067 382.969 292.884C382.144 292.701 381.291 292.682 380.459 292.828C379.627 292.975 378.832 293.284 378.12 293.737C377.407 294.191 376.791 294.781 376.306 295.472Z" fill="white"/>
<path d="M102.865 341.512L23.5249 355.211C20.8341 355.672 18.1725 354.799 16.1241 352.784C14.0758 350.769 12.808 347.776 12.5988 344.461L5.45772 229.664C5.25459 226.349 6.12711 222.986 7.88389 220.313C9.64067 217.641 12.1383 215.876 14.8286 215.408L88.643 202.658L105.274 215.344L112.226 327.258C112.429 330.571 111.558 333.932 109.803 336.604C108.048 339.275 105.554 341.041 102.865 341.512Z" fill="#090814"/>
<path d="M15.0565 219.011C13.1408 219.345 11.3625 220.601 10.1116 222.504C8.86069 224.407 8.23927 226.802 8.38364 229.162L15.5207 343.964C15.6698 346.324 16.5726 348.455 18.0311 349.89C19.4895 351.325 21.3845 351.947 23.3005 351.619L102.643 337.909C104.558 337.575 106.336 336.319 107.587 334.416C108.838 332.513 109.46 330.119 109.315 327.758L102.467 217.586L87.8503 206.441L15.0565 219.011Z" fill="#F2F2F2"/>
<path d="M105.005 215.894L92.7217 218.016C92.2777 218.093 91.8312 218.061 91.408 217.923C90.9847 217.785 90.5929 217.542 90.2549 217.21C89.9169 216.877 89.6394 216.461 89.4382 215.985C89.2371 215.509 89.1162 214.982 89.0826 214.435L88.3848 203.261C88.3832 203.212 88.3924 203.162 88.4115 203.118C88.4306 203.074 88.4588 203.036 88.4931 203.009C88.5274 202.982 88.5666 202.966 88.6061 202.964C88.6457 202.962 88.6843 202.974 88.7176 202.998L105.101 215.406C105.136 215.436 105.161 215.477 105.175 215.527C105.19 215.576 105.191 215.63 105.18 215.682C105.169 215.734 105.146 215.782 105.114 215.82C105.082 215.858 105.042 215.883 105 215.894L105.005 215.894Z" fill="#090814"/>
<path d="M85.3258 310.279L49.2029 316.52C48.7547 316.597 48.3112 316.452 47.9699 316.117C47.6287 315.781 47.4176 315.282 47.3833 314.73C47.3489 314.178 47.4939 313.617 47.7866 313.172C48.0792 312.727 48.4953 312.433 48.9435 312.356L85.0669 306.119C85.5152 306.041 85.9587 306.186 86.2999 306.522C86.6412 306.858 86.8522 307.356 86.8866 307.909C86.921 308.461 86.776 309.021 86.4833 309.466C86.1907 309.912 85.7745 310.205 85.3263 310.283L85.3258 310.279Z" fill="#CCCCCC"/>
<path d="M92.7398 316.102L49.6426 323.545C49.1944 323.623 48.7509 323.478 48.4096 323.142C48.0684 322.806 47.8573 322.307 47.8229 321.755C47.7885 321.203 47.9336 320.643 48.2262 320.197C48.5188 319.752 48.935 319.458 49.3832 319.381L92.4804 311.937C92.9286 311.86 93.3721 312.005 93.7134 312.341C94.0546 312.676 94.2657 313.175 94.3 313.727C94.3344 314.279 94.1894 314.84 93.8968 315.285C93.6042 315.73 93.188 316.024 92.7398 316.102Z" fill="#CCCCCC"/>
<path d="M33.2032 327.932C36.461 328.393 39.5706 325.462 40.1486 321.384C40.7266 317.305 38.5542 313.625 35.2963 313.163C32.0385 312.701 28.9289 315.633 28.3509 319.711C27.7729 323.79 29.9453 327.47 33.2032 327.932Z" fill="#3B82F6"/>
<path d="M84.3917 290.436L36.4153 298.718C35.0297 298.954 33.6596 298.504 32.6053 297.465C31.551 296.427 30.8984 294.886 30.7906 293.18L27.8027 245.061C27.6992 243.354 28.1493 241.622 29.0544 240.246C29.9595 238.871 31.2457 237.963 32.6311 237.722L80.6052 229.441C81.9909 229.205 83.3611 229.655 84.4154 230.694C85.4697 231.732 86.1222 233.273 86.2297 234.98L89.2175 283.099C89.3206 284.805 88.8706 286.536 87.9661 287.911C87.0616 289.286 85.7763 290.194 84.3917 290.436Z" fill="white"/>
<path d="M84.3917 290.436L36.4153 298.718C35.0297 298.954 33.6596 298.504 32.6053 297.465C31.551 296.427 30.8984 294.886 30.7906 293.18L27.8027 245.061C27.6992 243.354 28.1493 241.622 29.0544 240.246C29.9595 238.871 31.2457 237.963 32.6311 237.722L80.6052 229.441C81.9909 229.205 83.3611 229.655 84.4154 230.694C85.4697 231.732 86.1222 233.273 86.2297 234.98L89.2175 283.099C89.3206 284.805 88.8706 286.536 87.9661 287.911C87.0616 289.286 85.7763 290.194 84.3917 290.436ZM32.6763 238.476C31.4534 238.689 30.3183 239.491 29.5198 240.706C28.7214 241.921 28.3248 243.449 28.4173 244.956L31.4051 293.075C31.5003 294.581 32.0766 295.942 33.0076 296.858C33.9387 297.774 35.1485 298.17 36.3715 297.961L84.3439 289.677C85.5667 289.464 86.7019 288.662 87.5004 287.447C88.2988 286.232 88.6953 284.704 88.6029 283.197L85.6161 235.078C85.521 233.572 84.9446 232.211 84.0136 231.295C83.0825 230.379 81.8727 229.983 80.6497 230.192L32.6763 238.476Z" fill="#E6E6E6"/>
<path d="M76.0481 244.82L51.8354 249.004C51.6229 249.046 51.4104 248.987 51.241 248.84C51.0715 248.692 50.9578 248.466 50.9227 248.208C50.9081 248.074 50.9159 247.936 50.9458 247.802C50.9757 247.668 51.027 247.542 51.0965 247.43C51.166 247.319 51.2523 247.224 51.3501 247.153C51.4478 247.083 51.555 247.036 51.6651 247.017L76.312 242.759C77.1785 243.498 76.7522 244.697 76.047 244.82L76.0481 244.82Z" fill="#F2F2F2"/>
<path d="M76.3718 250.058L52.1592 254.242C51.9466 254.284 51.7341 254.226 51.5647 254.078C51.3953 253.93 51.2815 253.705 51.2464 253.446C51.2318 253.312 51.2397 253.174 51.2696 253.04C51.2995 252.906 51.3508 252.78 51.4203 252.668C51.4898 252.557 51.576 252.463 51.6738 252.392C51.7716 252.321 51.8787 252.274 51.9888 252.256L76.6357 247.997C77.5022 248.736 77.0769 249.935 76.3697 250.058L76.3718 250.058Z" fill="#F2F2F2"/>
<path d="M47.1118 258.119L39.723 259.395C39.4818 259.436 39.2432 259.358 39.0596 259.177C38.876 258.996 38.7625 258.728 38.744 258.431L38.0763 247.689C38.058 247.392 38.1363 247.09 38.2939 246.851C38.4515 246.611 38.6755 246.453 38.9168 246.411L46.3055 245.136C46.5467 245.095 46.7852 245.173 46.9687 245.354C47.1522 245.535 47.2658 245.803 47.2846 246.1L47.9523 256.842C47.9615 256.989 47.947 257.139 47.9097 257.283C47.8724 257.427 47.8131 257.562 47.735 257.68C47.657 257.799 47.5617 257.899 47.4548 257.974C47.3479 258.049 47.2313 258.099 47.1118 258.119Z" fill="#334155"/>
<path d="M76.9679 260.784L40.016 267.163C39.8036 267.205 39.5912 267.147 39.4218 266.999C39.2523 266.852 39.1384 266.626 39.1031 266.369C39.0885 266.234 39.0964 266.096 39.1263 265.962C39.1562 265.828 39.2074 265.702 39.277 265.59C39.3465 265.479 39.4328 265.385 39.5305 265.314C39.6283 265.243 39.7355 265.197 39.8455 265.178L77.2315 258.724C78.098 259.463 77.6728 260.662 76.9655 260.785L76.9679 260.784Z" fill="#F2F2F2"/>
<path d="M77.2922 266.023L40.3393 272.402C40.1269 272.444 39.9145 272.386 39.745 272.238C39.5756 272.091 39.4617 271.865 39.4264 271.607C39.4117 271.473 39.4196 271.335 39.4495 271.201C39.4794 271.067 39.5307 270.941 39.6002 270.829C39.6697 270.718 39.756 270.624 39.8538 270.553C39.9515 270.482 40.0587 270.435 40.1687 270.417L77.559 263.963C78.4255 264.702 78.0003 265.901 77.2941 266.024L77.2922 266.023Z" fill="#F2F2F2"/>
<path d="M77.6176 271.247L40.6658 277.627C40.4532 277.669 40.2408 277.61 40.0713 277.463C39.9019 277.315 39.7881 277.089 39.753 276.831C39.7384 276.697 39.7463 276.559 39.7762 276.425C39.8061 276.291 39.8574 276.164 39.9269 276.053C39.9964 275.941 40.0827 275.847 40.1804 275.776C40.2782 275.705 40.3854 275.659 40.4954 275.64L77.8815 269.186C78.7501 269.926 78.3208 271.123 77.6176 271.247Z" fill="#F2F2F2"/>
<path d="M77.9402 276.48L40.9884 282.859C40.776 282.901 40.5636 282.843 40.3942 282.695C40.2247 282.548 40.1108 282.322 40.0755 282.065C40.0609 281.93 40.0687 281.792 40.0986 281.658C40.1285 281.524 40.1798 281.398 40.2493 281.286C40.3188 281.175 40.4051 281.081 40.5029 281.01C40.6006 280.939 40.7078 280.893 40.8178 280.874L78.2048 274.421C79.0748 275.158 78.6483 276.358 77.9402 276.48Z" fill="#F2F2F2"/>
<path d="M78.268 281.711L41.3162 288.091C41.1036 288.133 40.8911 288.074 40.7217 287.926C40.5522 287.779 40.4385 287.553 40.4034 287.295C40.3888 287.161 40.3967 287.022 40.4266 286.889C40.4565 286.755 40.5077 286.628 40.5772 286.517C40.6468 286.405 40.733 286.311 40.8308 286.24C40.9286 286.169 41.0358 286.123 41.1458 286.104L78.5318 279.65C79.3994 280.389 78.9734 281.594 78.268 281.711Z" fill="#F2F2F2"/>
<path d="M34.3178 323.196C34.1832 323.22 34.0488 323.189 33.9349 323.108L33.9274 323.107L32.4413 322.026C32.3083 321.921 32.2168 321.753 32.186 321.558C32.1552 321.363 32.1875 321.156 32.2763 320.981C32.365 320.805 32.5031 320.675 32.6614 320.618C32.8198 320.561 32.986 320.581 33.125 320.675L34.0879 321.377L36.0216 317.552C36.0664 317.463 36.1244 317.385 36.1923 317.322C36.2601 317.26 36.3364 317.213 36.4168 317.186C36.4973 317.159 36.5803 317.151 36.6611 317.164C36.7419 317.176 36.8189 317.208 36.8877 317.259C37.0265 317.36 37.1236 317.528 37.1578 317.726C37.192 317.925 37.1606 318.136 37.0704 318.315L34.7966 322.807C34.744 322.911 34.6735 322.999 34.5908 323.066C34.508 323.133 34.4152 323.176 34.3194 323.193L34.3178 323.196Z" fill="white"/>
<path d="M347.767 163.231L344.019 162.434L343.881 163.262L347.629 164.059L347.767 163.231Z" fill="#B6B3C5"/>
<path d="M380.919 170.428L377.171 169.63L377.032 170.458L380.78 171.256L380.919 170.428Z" fill="#B6B3C5"/>
<path d="M374.017 130.665C373.545 132.201 372.654 133.499 371.505 134.327C370.356 135.156 369.023 135.461 367.743 135.189C366.464 134.917 365.321 134.085 364.519 132.841C363.716 131.597 363.306 130.023 363.362 128.398L349.732 125.499L343.547 162.475L381.463 170.541L387.648 133.564L374.017 130.665Z" fill="#D6D6E3"/>
<path d="M382.062 167.635L344.147 159.57L343.932 160.857L381.847 168.922L382.062 167.635Z" fill="#090814"/>
<path d="M444.777 146.719L292.276 114.277C291.715 114.157 291.225 113.764 290.912 113.184C290.599 112.603 290.488 111.884 290.605 111.182L308.828 2.23463C308.946 1.53312 309.281 0.907753 309.76 0.495804C310.24 0.083855 310.824 -0.0810075 311.384 0.0374104L463.886 32.479C464.446 32.599 464.937 32.9922 465.25 33.5724C465.563 34.1525 465.674 34.8723 465.558 35.574L447.334 144.523C447.216 145.224 446.88 145.849 446.401 146.261C445.922 146.672 445.338 146.837 444.777 146.719Z" fill="#090814"/>
<path d="M461.356 36.2778L312.122 4.53125L294.49 109.942L443.724 141.688L461.356 36.2778Z" fill="white"/>
<path d="M428.255 43.9406L339.51 25.062L326.897 100.47L415.641 119.348L428.255 43.9406Z" fill="white"/>
<path d="M421.959 65.9543L338.293 48.1562C336.902 47.8603 335.902 46.8562 336.058 45.9141L339.254 26.8076C339.412 25.8659 340.668 25.3427 342.06 25.6377L425.725 43.4358C427.116 43.7317 428.116 44.7358 427.96 45.6779L424.764 64.786C424.605 65.7258 423.35 66.2493 421.959 65.9543Z" fill="#3B82F6"/>
<path d="M373.239 42.0667L351.062 37.3491L350.535 40.5038L372.711 45.2214L373.239 42.0667Z" fill="#F2F2F2"/>
<path d="M401.836 52.0714C402.671 52.249 403.49 51.5457 403.665 50.5003C403.84 49.455 403.305 48.4636 402.469 48.286C401.634 48.1084 400.816 48.8117 400.641 49.8571C400.466 50.9024 401.001 51.8938 401.836 52.0714Z" fill="#F2F2F2"/>
<path d="M406.876 53.1442C407.711 53.3218 408.53 52.6184 408.704 51.5731C408.879 50.5278 408.344 49.5364 407.509 49.3588C406.674 49.1811 405.855 49.8845 405.68 50.9298C405.506 51.9751 406.041 52.9665 406.876 53.1442Z" fill="#F2F2F2"/>
<path d="M411.916 54.2159C412.751 54.3936 413.57 53.6902 413.745 52.6449C413.92 51.5996 413.385 50.6082 412.55 50.4305C411.715 50.2529 410.896 50.9563 410.721 52.0016C410.546 53.0469 411.081 54.0383 411.916 54.2159Z" fill="#F2F2F2"/>
<path d="M417.51 92.5443L333.845 74.7462C332.454 74.4502 331.454 73.4461 331.61 72.504L334.806 53.3955C334.964 52.4537 336.22 51.9306 337.612 52.2256L421.277 70.0237C422.669 70.3196 423.668 71.3237 423.512 72.2658L420.316 91.3733C420.157 92.3157 418.902 92.8392 417.51 92.5443Z" fill="#E6E6E6"/>
<path d="M368.79 68.6575L346.613 63.9399L346.086 67.0946L368.262 71.8122L368.79 68.6575Z" fill="#3B82F6"/>
<path d="M397.389 78.6622C398.224 78.8399 399.042 78.1365 399.217 77.0912C399.392 76.0459 398.857 75.0545 398.022 74.8768C397.187 74.6992 396.368 75.4026 396.193 76.4479C396.018 77.4932 396.554 78.4846 397.389 78.6622Z" fill="#3B82F6"/>
<path d="M402.427 79.7335C403.262 79.9112 404.081 79.2078 404.256 78.1625C404.431 77.1171 403.895 76.1257 403.06 75.9481C402.225 75.7705 401.407 76.4739 401.232 77.5192C401.057 78.5645 401.592 79.5559 402.427 79.7335Z" fill="#3B82F6"/>
<path d="M407.469 80.8068C408.304 80.9844 409.123 80.281 409.298 79.2357C409.473 78.1904 408.937 77.199 408.102 77.0213C407.267 76.8437 406.449 77.5471 406.274 78.5924C406.099 79.6377 406.634 80.6291 407.469 80.8068Z" fill="#3B82F6"/>
<path d="M413.063 119.135L329.397 101.337C328.006 101.041 327.007 100.037 327.163 99.0945L330.359 79.9838C330.517 79.0421 331.773 78.519 333.165 78.8139L416.83 96.6121C418.221 96.908 419.221 97.9121 419.065 98.8542L415.869 117.962C415.709 118.906 414.454 119.43 413.063 119.135Z" fill="#E6E6E6"/>
<path d="M364.343 95.2493L342.167 90.5317L341.639 93.6864L363.815 98.404L364.343 95.2493Z" fill="#3B82F6"/>
<path d="M392.941 105.254C393.776 105.431 394.595 104.728 394.769 103.682C394.944 102.637 394.409 101.646 393.574 101.468C392.739 101.29 391.92 101.994 391.745 103.039C391.571 104.085 392.106 105.076 392.941 105.254Z" fill="#3B82F6"/>
<path d="M397.98 106.325C398.815 106.503 399.634 105.8 399.809 104.754C399.984 103.709 399.449 102.718 398.614 102.54C397.778 102.362 396.96 103.066 396.785 104.111C396.61 105.156 397.145 106.148 397.98 106.325Z" fill="#3B82F6"/>
<path d="M403.02 107.398C403.855 107.576 404.674 106.872 404.849 105.827C405.024 104.782 404.489 103.79 403.654 103.613C402.819 103.435 402 104.138 401.825 105.184C401.65 106.229 402.185 107.22 403.02 107.398Z" fill="#3B82F6"/>
</svg>
