<?xml version="1.0" encoding="utf-8"?>
<!-- Generator: Adobe Illustrator 27.0.0, SVG Export Plug-In . SVG Version: 6.00 Build 0)  -->
<svg version="1.1" xmlns="http://www.w3.org/2000/svg" xmlns:xlink="http://www.w3.org/1999/xlink" x="0px" y="0px"
	 viewBox="0 0 1081.03 200" style="enable-background:new 0 0 1081.03 200;" xml:space="preserve">
<style type="text/css">
	.st0{fill:#0088FF;}
	.st1{fill:#2E3748;}
</style>
<g id="Layer_1">
</g>
<g id="Layer_2">
	<g>
		<g>
			<path class="st0" d="M45.83,131.13c-1.24-2.15-2.39-4.36-3.37-6.66C32.92,107.54,18.6,93.69,1.32,84.72
				c-0.77,5-1.29,10.08-1.29,15.3c0,38.63,21.94,72.08,54,88.73c0.77-5,1.29-10.08,1.29-15.3C55.32,158.3,51.86,144,45.83,131.13z"
				/>
			<path class="st1" d="M154.22,68.9c1.24,2.15,2.39,4.36,3.37,6.66c9.54,16.93,23.86,30.78,41.14,39.76
				c0.77-5,1.29-10.08,1.29-15.3c0-38.63-21.94-72.08-54-88.73c-0.77,5-1.29,10.08-1.29,15.3C144.72,41.73,148.19,56.04,154.22,68.9
				z"/>
			<g>
				<path class="st0" d="M198.73,115.32c-17.28-8.98-31.6-22.83-41.14-39.76c-0.05-0.13-0.13-0.24-0.18-0.36
					c4.73,10.9,6.43,23.25,4.18,35.82c-6.08,34-38.56,56.64-72.56,50.56l-0.01,0.04c-10.05-1.59-19.57,5.11-21.37,15.17
					c-1.8,10.06,4.81,19.65,14.79,21.63l-0.01,0.04c0.08,0.01,0.16,0.02,0.24,0.03c0.04,0.01,0.08,0.03,0.12,0.03
					c0.12,0.02,0.25,0.01,0.37,0.03c54.1,9.26,105.63-26.82,115.3-80.94L198.73,115.32z"/>
			</g>
			<g>
				<g>
					<g>
						<path class="st1" d="M1.32,84.72c17.28,8.98,31.6,22.83,41.14,39.76c0.05,0.13,0.13,0.24,0.18,0.36
							c-4.73-10.9-6.43-23.25-4.18-35.82c6.08-34,38.56-56.64,72.56-50.56l0.01-0.04c0.12,0.02,0.23,0.08,0.35,0.1
							c10.18,1.82,19.91-4.96,21.73-15.14c1.82-10.18-4.96-19.91-15.14-21.73c-0.12-0.02-0.24-0.01-0.37-0.03l0.01-0.04
							C63.25-8.13,11.3,28.06,1.59,82.43L1.32,84.72z"/>
					</g>
				</g>
			</g>
		</g>
		<g>
			<path class="st1" d="M309.34,97.23c-5.37-2.37-12.42-4.54-20.97-6.47c-7.73-1.75-13.24-3.63-16.37-5.6
				c-2.74-1.72-4.08-4.12-4.08-7.33c0-4.02,1.57-7.06,4.8-9.31c3.4-2.37,8.18-3.57,14.22-3.57c5.06,0,9.36,0.65,12.79,1.94
				c3.48,1.31,7.14,3.36,11.06,6.22c1.45,0.83,2.6,1.39,3.53,1.72c2.92,1.03,6.66,0.55,9.03-2.4c1.47-1.83,2.22-3.99,2.22-6.44
				c0-1.83-0.34-3.41-1.01-4.69c-0.65-1.23-1.67-2.43-3.11-3.65c-8.88-7.5-20.49-11.31-34.5-11.31c-7.66,0-14.67,1.38-20.84,4.09
				c-6.24,2.75-11.19,6.64-14.71,11.56c-3.55,4.97-5.36,10.69-5.36,16.98c0,6.1,1.46,11.23,4.36,15.26
				c2.85,3.98,7.1,7.26,12.62,9.77c5.33,2.43,12.33,4.58,20.78,6.4c7.86,1.76,13.51,3.59,16.8,5.44c2.87,1.61,4.21,3.72,4.21,6.63
				c0,3.99-1.53,6.93-4.68,8.99c-3.37,2.2-8.38,3.32-14.91,3.32c-5.21,0-10.01-0.64-14.27-1.91c-4.24-1.26-8.36-3.32-12.38-6.22
				c-5.19-3.15-9.55-3.1-12.61,0.66c-1.47,1.83-2.21,3.99-2.21,6.44c0,3.59,1.37,6.43,4,8.37c4.27,3.48,9.85,6.26,16.58,8.28
				c6.67,1.99,13.84,3,21.32,3c7.93,0,15.08-1.33,21.24-3.94c6.25-2.65,11.18-6.42,14.66-11.21c3.51-4.83,5.3-10.48,5.3-16.77
				c0-5.84-1.55-10.8-4.62-14.75C319.23,102.88,314.9,99.68,309.34,97.23z"/>
			<path class="st1" d="M394.33,129.59c-1.12,0.46-2.43,1.13-3.91,2.02c-2.18,1.19-4.2,2.14-5.97,2.82
				c-1.62,0.62-3.52,0.94-5.64,0.94c-5.33,0-9.29-1.66-12.12-5.07c-2.87-3.47-4.33-8.59-4.33-15.23c0-6.73,1.46-11.9,4.33-15.37
				c2.82-3.41,6.78-5.07,12.11-5.07c2.22,0,4.2,0.32,5.87,0.95c1.78,0.67,3.69,1.6,5.69,2.78c1.22,0.71,2.44,1.32,3.65,1.82
				c3.69,1.55,7.33,0.98,9.52-1.82c1.27-1.63,1.9-3.74,1.9-6.27c0-3.73-1.83-6.83-5.47-9.22c-3-1.9-6.52-3.42-10.44-4.52
				c-3.91-1.09-7.85-1.64-11.72-1.64c-7.34,0-13.95,1.62-19.65,4.82c-5.72,3.21-10.22,7.82-13.39,13.69
				c-3.14,5.82-4.72,12.59-4.72,20.12c0,7.52,1.51,14.21,4.5,19.89c3.02,5.74,7.39,10.24,12.98,13.35
				c5.53,3.1,12.02,4.67,19.28,4.67c4.25,0,8.46-0.58,12.51-1.71c4.06-1.13,7.7-2.73,10.74-4.69c1.9-1.11,3.31-2.42,4.18-3.89
				c0.9-1.49,1.35-3.25,1.35-5.23c0-2.44-0.67-4.53-1.99-6.2C401.33,128.65,397.65,128.23,394.33,129.59z"/>
			<path class="st1" d="M461.83,76.73c-5.31,0-10.14,1.05-14.35,3.13c-2.5,1.23-4.73,2.82-6.66,4.72V56.87
				c0-3.05-1.04-5.51-3.09-7.32c-1.98-1.75-4.58-2.63-7.72-2.63c-3.16,0-5.79,0.94-7.81,2.8c-2.08,1.9-3.14,4.41-3.14,7.44v85.31
				c0,3.2,0.99,5.79,2.95,7.69c1.94,1.88,4.59,2.84,7.85,2.84c3.26,0,5.91-0.95,7.9-2.82c2.02-1.9,3.04-4.5,3.04-7.71v-31.81
				c0-4.94,1.34-8.75,4.1-11.62c2.73-2.86,6.3-4.25,10.92-4.25c3.76,0,6.51,0.95,8.16,2.82c1.71,1.96,2.58,5.24,2.58,9.77v35.09
				c0,3.21,1.02,5.81,3.04,7.71c1.99,1.86,4.65,2.81,7.9,2.81c3.27,0,5.91-0.95,7.86-2.84c1.95-1.9,2.94-4.48,2.94-7.69v-35.09
				C488.33,87.04,479.42,76.73,461.83,76.73z"/>
			<path class="st1" d="M573.21,112.36c0-7.13-1.36-13.43-4.06-18.73c-2.73-5.35-6.63-9.55-11.6-12.49
				c-4.94-2.93-10.8-4.41-17.4-4.41c-6.89,0-13.15,1.63-18.61,4.84c-5.48,3.22-9.79,7.8-12.8,13.63
				c-2.98,5.78-4.49,12.47-4.49,19.87c0,11.71,3.51,21.11,10.43,27.93c6.91,6.81,16.35,10.26,28.05,10.26
				c3.87,0,7.98-0.57,12.2-1.71c4.22-1.12,8.07-2.65,11.45-4.54c4.16-2.36,6.26-5.43,6.26-9.12c0-2.54-0.65-4.64-1.93-6.22
				c-1.37-1.69-3.25-2.59-5.45-2.59c-1.69,0-3.98,0.8-7.09,2.46c-2.83,1.29-5.43,2.32-7.72,3.06c-2.12,0.69-4.63,1.05-7.45,1.05
				c-5.43,0-9.58-1.37-12.32-4.07c-2.45-2.41-4.04-6.15-4.74-11.12h39.89C570.52,120.46,573.21,117.51,573.21,112.36z M553.9,106.98
				h-27.92c0.7-4.19,2.17-7.48,4.39-9.81c2.54-2.66,5.88-3.96,10.21-3.96c4.21,0,7.37,1.25,9.66,3.83
				C552.27,99.33,553.5,102.66,553.9,106.98z"/>
			<path class="st1" d="M693.18,84.16c-4.41-4.93-10.78-7.43-18.93-7.43c-5.46,0-10.45,1.29-14.82,3.83
				c-3.27,1.9-5.97,4.31-8.07,7.19c-4.19-7.32-11.3-11.03-21.19-11.03c-5.07,0-9.63,1.09-13.57,3.23c-2.28,1.25-4.31,2.82-6.07,4.72
				c-0.38-2.09-1.33-3.81-2.82-5.12c-3.91-3.44-10.96-3.36-15.03,0.04c-2.17,1.81-3.27,4.38-3.27,7.64v55.21
				c0,3.34,1.06,5.97,3.16,7.82c4.05,3.58,11.18,3.59,15.35,0.02c2.16-1.86,3.25-4.5,3.25-7.84v-31.81c0-5.01,1.21-8.97,3.6-11.78
				c2.34-2.75,5.47-4.09,9.56-4.09c3.22,0,5.51,0.86,6.99,2.64c1.55,1.87,2.33,5.21,2.33,9.95v35.09c0,3.35,1.09,5.98,3.25,7.84
				c4.16,3.57,11.27,3.57,15.35-0.02c2.09-1.86,3.15-4.49,3.15-7.82v-31.81c0-5.01,1.23-8.97,3.66-11.77
				c2.39-2.76,5.54-4.1,9.65-4.1c3.22,0,5.5,0.86,6.98,2.64c1.55,1.87,2.33,5.21,2.33,9.95v35.09c0,3.34,1.06,5.97,3.16,7.82
				c2.03,1.79,4.6,2.7,7.65,2.7c3.14,0,5.76-0.91,7.79-2.7c2.1-1.85,3.16-4.49,3.16-7.82v-35.09
				C699.74,96.84,697.54,89.03,693.18,84.16L693.18,84.16z"/>
			<path class="st1" d="M784.63,112.36c0-7.13-1.36-13.43-4.06-18.73c-2.73-5.35-6.63-9.55-11.59-12.5
				c-4.95-2.92-10.81-4.41-17.4-4.41c-6.89,0-13.15,1.63-18.62,4.84c-5.48,3.22-9.79,7.81-12.8,13.63
				c-2.98,5.77-4.49,12.45-4.49,19.87c0,11.72,3.5,21.11,10.42,27.93c6.91,6.81,16.35,10.26,28.06,10.26c3.87,0,7.98-0.57,12.2-1.71
				c4.22-1.12,8.07-2.65,11.45-4.54c4.16-2.36,6.26-5.43,6.26-9.12c0-2.54-0.65-4.64-1.93-6.22c-1.37-1.69-3.25-2.59-5.45-2.59
				c-1.69,0-3.98,0.8-7.09,2.46c-2.85,1.29-5.45,2.32-7.72,3.06c-2.12,0.69-4.63,1.05-7.45,1.05c-5.43,0-9.58-1.37-12.32-4.07
				c-2.44-2.41-4.03-6.14-4.74-11.12h39.89C781.94,120.46,784.63,117.51,784.63,112.36z M765.32,106.98H737.4
				c0.7-4.2,2.18-7.49,4.39-9.81v0c2.54-2.66,5.87-3.95,10.21-3.95c4.2,0,7.36,1.25,9.66,3.83
				C763.69,99.32,764.92,102.66,765.32,106.98z"/>
			<path class="st1" d="M848.27,111.87c-3.74-1.77-8.93-3.36-15.42-4.71c-7.17-1.47-10.22-2.7-11.52-3.47
				c-1.51-0.89-2.18-2.04-2.18-3.74c0-1.83,0.71-3.18,2.23-4.24c1.7-1.19,4.13-1.79,7.23-1.79c2.71,0,4.98,0.32,6.75,0.95
				c1.9,0.68,4.22,1.72,6.83,3.07c1.6,0.9,2.93,1.57,3.98,2.02c3.22,1.38,6.91,0.96,9.2-1.85c1.34-1.63,2.01-3.66,2.01-6.02
				c0-3.84-1.84-6.94-5.46-9.21c-3.1-2-6.64-3.55-10.54-4.6c-3.86-1.04-7.91-1.56-12.07-1.56c-5.76,0-10.98,0.99-15.53,2.94
				c-4.64,1.99-8.34,4.84-11.01,8.49c-2.71,3.7-4.09,7.9-4.09,12.5c0,6.09,2.07,10.95,6.17,14.47c3.96,3.39,10.2,5.92,19.05,7.7
				c4.64,1.02,8.14,1.94,10.41,2.72c2.51,0.87,3.61,1.65,4.07,2.13c0.55,0.59,0.82,1.41,0.82,2.51c0,1.67-0.76,2.9-2.4,3.88
				c-1.91,1.14-4.71,1.72-8.34,1.72c-3.71,0-6.76-0.35-9.06-1.05c-2.42-0.73-5.14-1.8-7.99-3.14c-6.53-3.48-10.2-3.18-12.95-0.06
				c-1.36,1.55-2.05,3.55-2.05,5.93c0,3.99,1.9,7.23,5.49,9.37c6.65,4.26,15.44,6.42,26.14,6.42c9.32,0,16.93-2.09,22.62-6.22
				c5.89-4.27,8.87-10.04,8.87-17.14c0-4.34-0.89-7.99-2.64-10.87C855.12,116.15,852.22,113.74,848.27,111.87z"/>
			<path class="st0" d="M962.72,97.23c-5.37-2.37-12.42-4.54-20.98-6.47c-7.73-1.75-13.24-3.63-16.36-5.59
				c-2.74-1.72-4.08-4.12-4.08-7.33c0-4.02,1.57-7.06,4.8-9.31c3.4-2.37,8.18-3.57,14.21-3.57c5.07,0,9.37,0.65,12.79,1.94
				c3.47,1.31,7.13,3.36,11.06,6.22c1.44,0.82,2.6,1.38,3.53,1.72c2.92,1.03,6.66,0.55,9.03-2.4c1.47-1.82,2.22-3.99,2.22-6.44
				c0-1.83-0.34-3.4-1.01-4.7c-0.65-1.23-1.67-2.42-3.11-3.65c-8.88-7.5-20.49-11.31-34.51-11.31c-7.65,0-14.66,1.38-20.83,4.09
				c-6.24,2.75-11.19,6.64-14.71,11.57c-3.56,4.98-5.36,10.69-5.36,16.98c0,6.1,1.47,11.24,4.36,15.26
				c2.86,3.98,7.11,7.27,12.62,9.77c5.32,2.42,12.31,4.58,20.78,6.4c7.86,1.76,13.51,3.59,16.8,5.44c2.87,1.61,4.21,3.72,4.21,6.63
				c0,3.99-1.53,6.93-4.68,8.99c-3.37,2.2-8.38,3.32-14.91,3.32c-5.21,0-10.01-0.64-14.27-1.91c-4.24-1.26-8.36-3.32-12.39-6.22
				c-5.19-3.15-9.55-3.1-12.6,0.65c-1.47,1.83-2.22,3.99-2.22,6.44c0,3.59,1.37,6.42,4,8.37c4.27,3.48,9.85,6.27,16.58,8.28
				c6.67,1.99,13.84,3,21.32,3c7.93,0,15.08-1.33,21.24-3.94c6.25-2.65,11.18-6.42,14.66-11.21c3.51-4.84,5.3-10.49,5.3-16.77
				c0-5.83-1.55-10.8-4.62-14.76C972.6,102.88,968.26,99.68,962.72,97.23z"/>
			<path class="st0" d="M1078.41,96.33c-1.7-1.64-3.93-2.48-6.63-2.48h-25.25c-2.77,0-5.01,0.74-6.66,2.21
				c-1.71,1.52-2.58,3.65-2.58,6.31c0,2.66,0.86,4.79,2.58,6.32c1.65,1.46,3.89,2.21,6.66,2.21h14.16v21.79
				c-5.8,1.5-11.66,2.25-17.45,2.25c-20.57,0-30.57-11.49-30.57-35.13c0-11.54,2.51-20.3,7.45-26.04
				c4.87-5.65,12.27-8.52,21.98-8.52c4.33,0,8.25,0.57,11.65,1.69c3.42,1.12,7.18,3.12,11.23,5.97c1.28,0.85,2.39,1.45,3.37,1.84
				c2.91,1.13,6.84,0.74,9.23-2.24c1.42-1.78,2.14-3.96,2.14-6.5c0-1.72-0.33-3.26-0.99-4.59c-0.63-1.26-1.62-2.5-2.99-3.76
				c-8.88-7.5-20.39-11.31-34.22-11.31c-10.37,0-19.53,2.17-27.21,6.46c-7.72,4.31-13.77,10.58-17.97,18.63
				c-4.17,8-6.28,17.54-6.28,28.37c0,11.02,2.11,20.66,6.28,28.66c4.21,8.07,10.36,14.32,18.28,18.58
				c7.85,4.22,17.24,6.37,27.89,6.37c4.74,0,9.73-0.39,14.84-1.16c5.15-0.78,9.73-1.86,13.58-3.21c4.01-1.3,6.64-3.01,8.04-5.24
				c1.35-2.14,2.01-5.52,2.01-10.32V102.8C1081.01,100.17,1080.14,97.99,1078.41,96.33z"/>
		</g>
	</g>
</g>
</svg>
