<?xml version="1.0" encoding="utf-8"?>
<!-- Generator: Adobe Illustrator 24.0.3, SVG Export Plug-In . SVG Version: 6.00 Build 0)  -->
<svg version="1.1" id="Layer_1" xmlns="http://www.w3.org/2000/svg" xmlns:xlink="http://www.w3.org/1999/xlink" x="0px" y="0px"
	 viewBox="0 0 799 200" style="enable-background:new 0 0 799 200;" xml:space="preserve">
<style type="text/css">
	.st0{fill:#F23742;}
	.st1{fill:#050505;}
	.st2{fill:#030303;}
	.st3{fill:#020202;}
	.st4{fill:#040404;}
	.st5{fill:#F23843;}
</style>
<g>
	<path class="st0" d="M678.3,156.1c6-1.4,11.7-2.7,17.3-4c0.3,0.5,0.6,0.7,0.6,1c2,13.4,12.7,24.9,33.1,21.6
		c13.8-2.2,20.8-11.1,21.6-26.8c0.2-5.2,0-10.4,0-15.5c-0.3,0-0.6-0.1-0.7,0c-11.4,18-40.2,18-56.5,4.1c-21.7-18.5-20.3-57.8,3-74.3
		c12.1-8.6,25.4-9.8,39.3-5.7c6.1,1.8,9.6,4.8,15.1,12.1c0-2.7,0-4.6,0-6.4c0-1.8,0-3.6,0-5.7c6.2,0,12.1,0,18.4,0
		c0,1.4,0,2.6,0,3.8c0,27.9,0.1,55.9-0.1,83.8c0,5.4-0.7,11-2.1,16.2c-4.7,17.9-18.2,29-36.8,30.8c-10.9,1.1-21.6,0.3-31.5-5
		c-10.3-5.5-17.2-13.8-20.1-25.2C678.7,159.4,678.6,157.9,678.3,156.1z M752.1,100.6c-0.3-2.8-0.5-5.6-1-8.3
		c-2.4-13-12.1-21.5-25.3-22.2c-12.6-0.7-23.4,7-26.8,19.8c-1.1,4.3-1.7,8.9-1.4,13.3c1.6,25.3,21.5,30.9,36.1,26.4
		C744.9,126,751.8,114.8,752.1,100.6z"/>
	<path class="st1" d="M290.2,150.3c-6.8,2-13.6,2.5-20.4,0.8c-10.4-2.5-17.6-10.3-18-21.1c-0.6-17.2-0.4-34.5-0.5-51.7
		c0-1.6,0-3.3,0-5.2c-6.1,0-11.8,0-17.8,0c0-5.6,0-11,0-17c1.9,0,3.9,0.1,6,0c8.5-0.6,13-5.3,13.3-13.7c0.2-5.3,0-10.6,0-16.1
		c1.1-0.1,1.7-0.2,2.4-0.2c4.7,0,9.5,0,14.6,0c0,10,0,19.8,0,29.5c9,0,17.7,0.5,26.2-0.2c5.8-0.5,9.3-5.2,9.7-11.5
		c0.3-5.8,0.1-11.7,0.1-17.6c6.1,0,11.5,0,17.3,0c0,10,0,19.7,0,29.8c6.9,0,13.5,0,20.2,0c0,5.7,0,11.1,0,16.8c-6.6,0-13.1,0-20.2,0
		c0,1.6,0,3,0,4.3c0,14.3,0,28.6,0,42.9c0,12.6,4.6,16.5,17.2,14.9c0.9-0.1,1.9-0.2,3.1-0.3c0,5.3,0,10.5,0,15.7
		c-6.7,1.9-13.3,2.4-20,1c-10.7-2.3-18.2-10.7-18.5-22.1c-0.5-16.3-0.3-32.5-0.3-48.8c0-2.2,0-4.5,0-7.1c-11.5,0-22.9,0-34.3,0
		c0,17.4-0.2,34.8,0.1,52.2c0.1,5.5,3.1,8.3,8.5,9.3c1.9,0.3,3.9,0.5,5.8,0.4c1.8,0,3.6-0.4,5.6-0.6
		C290.2,139.9,290.2,145,290.2,150.3z"/>
	<path class="st2" d="M55.5,137.4c0,5.2,0,9.1,0,13.3c-6.1,0-12,0-18.2,0c0-47.4,0-94.8,0-142.4c5.9,0,11.7,0,18,0
		c0,19.8,0,39.7,0,61.2c5.7-8.3,12.5-12.8,20.9-14.8c26.1-6.4,49.2,9.2,53.3,36.2c2,13,1.3,25.7-4.2,37.9
		c-9.1,20.2-31.4,29.9-52.3,22.8C65.9,149.1,60.4,144.6,55.5,137.4z M54.4,103.2c1.7,6.1,2.7,12.7,5.4,18.6
		c4.7,10.4,13.6,15.5,25,15.1c11.5-0.4,19.5-6.4,23.8-17.1c4.2-10.6,4.3-21.4,0.6-32.1c-3.7-10.9-12.7-17.6-23.5-18
		c-12.5-0.5-22.2,5.1-26.8,16.3C56.7,91.3,55.9,97.1,54.4,103.2z"/>
	<path class="st2" d="M230.8,108.7c-24.5,0-48,0-71.3,0c-2.1,10.3,6.2,22.9,17.6,27.1c15.4,5.6,27.8-0.1,37.2-17.2
		c5.1,1.8,10.2,3.6,15.3,5.3c-4.3,16.6-20.7,29.1-39.1,30c-28.2,1.4-49.7-18.5-50.9-46.7c-0.6-14.3,2.5-27.4,12.1-38.3
		c13.1-14.9,29.6-19.1,48.4-13.6c18.1,5.3,26.7,18.9,29.6,36.6C230.5,97.3,230.5,102.8,230.8,108.7z M210.9,93.6
		c0.5-13.7-9.9-23.7-24.8-24c-14.8-0.3-26.5,10.3-26.4,24C176.8,93.6,193.9,93.6,210.9,93.6z"/>
	<path class="st2" d="M437.2,108.8c-24.6,0-48.2,0-71.7,0c-0.8,12.7,7.8,24.2,20.4,27.7c15.1,4.2,26.1-1.5,34.8-17.9
		c5.1,1.8,10.2,3.6,15.3,5.3c-3.4,14.2-17.4,26.5-32.8,29.2c-32.3,5.7-61.3-17.8-56.8-56.8c2.2-19.1,11.9-33.5,30.3-40.5
		c27.2-10.4,55.4,6.8,59.2,35.8C436.8,97,436.8,102.6,437.2,108.8z M417.4,93.6c0.5-14.1-10.3-24.1-25.6-24c-14.3,0-26,11-25.5,24
		C383.2,93.6,400.1,93.6,417.4,93.6z"/>
	<path class="st0" d="M671.8,78.5c-5.6,2.1-10.7,4-16,6c-0.5-1.1-0.9-1.9-1.2-2.8c-4-10.8-15.7-15.9-26.4-11.3
		c-5.4,2.3-8.7,7-8.3,12c0.4,5.1,3.5,8.6,9.7,10.2c6.1,1.6,12.3,2.6,18.4,4.2c10.2,2.7,18.8,7.6,22.7,18.1
		c4.9,13.1-1,27.7-13.9,34.7c-13.7,7.4-34.3,5.5-46.5-4.4c-5.9-4.8-9.7-10.8-11.3-18.7c5.3-1.9,10.7-3.8,16.2-5.8
		c0.4,0.8,0.8,1.3,1,2c3.9,12.6,17.2,19.1,29.5,14.2c5-2,8.2-5.5,8.4-11c0.1-5.4-2.8-9.3-7.7-10.9c-6.1-2-12.5-3.1-18.7-4.8
		c-3.2-0.8-6.6-1.6-9.6-3c-16-7.2-21.1-25.5-10.8-39.7c7.9-11,19.1-15.2,32.3-14.2c13.6,1,24.5,6.6,30.4,19.7
		C670.5,74.5,671,76.3,671.8,78.5z"/>
	<path class="st3" d="M446.2,150.8c0-31.5,0-62.8,0-94.4c5.8,0,11.6,0,17.8,0c0,4.7,0,9.5,0,13.5c4.8-4.1,9.4-9,14.9-12.4
		c5.7-3.6,12.5-3.6,19.5-2.6c0,6.6,0,13.1,0,19.7c-2.6-0.2-5.1-0.5-7.6-0.5c-15.7,0-25.4,8.9-25.9,24.7c-0.5,15.7-0.2,31.4-0.2,47.2
		c0,1.5,0,3,0,4.7C458.4,150.8,452.6,150.8,446.2,150.8z"/>
	<path class="st4" d="M510.2,50.6c0.2-7.1,5.9-13,13.1-13.4c7-0.4,13.6,4.9,14.1,12.2c0.2,3.4,1.6,5.2,4.1,7.1
		c9.5,7.4,18.9,14.9,28.3,22.5c1.9,1.5,3.4,2.2,6,1.5c5.5-1.5,11.1,0.8,14.4,5.4c3.2,4.5,3.4,10.4,0.3,15c-3.2,4.9-7.8,6.9-13.7,6.4
		c-1.6-0.1-3.6,0.3-4.8,1.2c-6.6,5-13,10.2-19.5,15.4c-4.3,3.4-8.1,3.5-10.7,0.3c-2.7-3.2-1.8-7.2,2.6-10.7
		c6-4.8,12.1-9.6,18.1-14.4c3.9-3.1,3.9-6.1-0.2-9.3c-10.1-8-20.1-16.1-30.3-24c-1.4-1.1-3.8-1.6-5.5-1.3
		C517.9,65.9,510.1,59.3,510.2,50.6z"/>
	<path class="st5" d="M510.2,138.2c0-7.5,6.2-13.6,13.7-13.7c7.5,0,13.7,6.1,13.8,13.6c0.1,7.6-6.4,14.1-13.9,13.9
		C516.3,151.9,510.2,145.7,510.2,138.2z"/>
</g>
</svg>
